<svg xmlns="http://www.w3.org/2000/svg" width="47.794" height="83.883" viewBox="0 0 47.794 83.883"><g transform="translate(-100 -2.559)"><g transform="translate(100 2.558)"><path d="M87.124,343.586V351.8h3.254l1.5-1.5H88.766v-2h1.308l1.49-1.49h-2.8v-1.735h2.254l1.49-1.49Z" transform="translate(-67.936 -267.917)" fill="#a37b30"/><path d="M0,343.586V351.8H3.326l1.5-1.5H1.642v-2H2.95l1.49-1.49h-2.8v-1.735H3.9l1.49-1.49Z" transform="translate(0 -267.917)" fill="#a37b30"/><path d="M192.561,343.586V351.8h3.6l1.5-1.5H194.2v-2h1.308l1.49-1.49h-2.8v-1.735h2.254l1.49-1.49Z" transform="translate(-150.153 -267.917)" fill="#a37b30"/><path d="M112.882,346.079l.446,2.469h-.892Zm.447-2.473h-1.642l-1.483,8.209h1.642l.321-1.777h0l1.209-1.211.54,2.989h1.642l-1.483-8.209Z" transform="translate(-85.933 -267.932)" fill="#a37b30"/><path d="M61.927,343.606v8.209h3.449l1.5-1.5H63.569v-6.708Z" transform="translate(-48.289 -267.932)" fill="#a37b30"/><path d="M25.662,343.606l-.963.963v2.791l3.2,1.632V350l-.326.326H26.523L26.2,350v-1.3l-1.642.89v1.263l.963.963h3.058l.963-.963v-2.792l-3.2-1.632v-1.012l.326-.326h1.049l.326.326v1.422l1.642-1.007v-1.263l-.963-.963Z" transform="translate(-19.147 -267.932)" fill="#a37b30"/><path d="M138.567,343.606l-.963.963v6.283l.963.963h3.058l.963-.963v-3.175h-2.628l.987.987V350l-.326.326h-1.049l-.326-.326v-4.586l.325-.326h1.049l.326.326v.846h1.642v-1.695l-.963-.963Z" transform="translate(-107.299 -267.932)" fill="#a37b30"/><path d="M168.5,343.586v6.4l-.326.326h-1.049l-.326-.326v-6.4H165.16v7.251l.963.963h3.058l.963-.963v-7.251Z" transform="translate(-128.787 -267.917)" fill="#a37b30"/><path d="M31.066,171.571l10.816-10.816v-6.034L25.134,171.475v9.042l5.932-5.932Z" transform="translate(-19.599 -120.647)" fill="#a37b30"/><path d="M25.134,110.7v9.053l5.932-5.943V110.8l4.917-4.906-.033-2.976,7.642-7.66V92.241Z" transform="translate(-19.599 -71.926)" fill="#a37b30"/><path d="M25.134,232.263l16.749-16.748v-6.028L25.134,226.235Z" transform="translate(-19.599 -163.351)" fill="#a37b30"/><path d="M117.373,85.255,128.189,74.44v6.05L117.373,91.283v6.028l16.748-16.747V62.471L117.373,79.227Z" transform="translate(-91.523 -48.713)" fill="#a37b30"/><path d="M135.83,0,117.372,18.458V27.5l5.932-5.932V18.554l4.884-4.884V10.657l7.642-7.642Z" transform="translate(-91.523 0)" fill="#a37b30"/></g></g></svg>