<svg xmlns="http://www.w3.org/2000/svg" width="13" height="13" viewBox="0 0 13 13"><path d="M153.5,235a1.5,1.5,0,0,0,1.5,1.5h8a1.5,1.5,0,0,0,1.5-1.5v-4a.5.5,0,0,0-1,0v4a.5.5,0,0,1-.5.5h-8a.5.5,0,0,1-.5-.5v-8a.5.5,0,0,1,.5-.5h4a.5.5,0,0,0,0-1h-4a1.5,1.5,0,0,0-1.5,1.5Z" transform="translate(-153.5 -223.5)" fill="#03c" fill-rule="evenodd"/><path d="M160.5,224a.5.5,0,0,1,.5-.5h5a.5.5,0,0,1,.5.5v5a.5.5,0,0,1-1,0v-4.5H161A.5.5,0,0,1,160.5,224Z" transform="translate(-153.5 -223.5)" fill="#03c" fill-rule="evenodd"/><path d="M166.354,223.646a.5.5,0,0,1,0,.708l-8,8a.5.5,0,0,1-.708-.708l8-8A.5.5,0,0,1,166.354,223.646Z" transform="translate(-153.5 -223.5)" fill="#03c" fill-rule="evenodd"/></svg>