<svg xmlns="http://www.w3.org/2000/svg" width="184.953" height="321.808" viewBox="0 0 184.953 321.808"><g transform="translate(12724.543 -8931.898)"><path d="M52.07,240.131l49.111-49.11v-27.4L25.134,239.7V280.75L52.07,253.815Z" transform="translate(-12749.677 8931.898)" fill="#fff"/><path d="M25.134,184.955V226.06L52.07,199.075V185.4L74.4,163.12l-.151-13.511,34.7-34.782V101.144Z" transform="translate(-12749.677 8931.898)" fill="#fff"/><path d="M25.134,321.808l76.05-76.047V218.39l-76.05,76.048Z" transform="translate(-12749.677 8931.898)" fill="#fff"/><path d="M117.373,174.829l49.111-49.109v27.47L117.373,202.2v27.371l76.047-76.043V71.374l-76.047,76.083Z" transform="translate(-12749.677 8931.898)" fill="#fff"/><path d="M210.087,0,117.373,92.714v41.057l26.936-26.936V93.146L166.484,70.97V57.29l43.6-43.6Z" transform="translate(-12749.677 8931.898)" fill="#fff"/></g></svg>