<svg id="レイヤー_3" data-name="レイヤー 3" xmlns="http://www.w3.org/2000/svg" viewBox="0 0 128.92 128.92"><circle cx="64.46" cy="64.46" r="63.96" fill="#fff" stroke="#000" stroke-miterlimit="10"/><path d="M79.19,95a23.68,23.68,0,0,0,6.67,13c-.77.84-1.55,1.69-2.33,2.57s-1.59,1.79-2.36,2.68c-.37-.55-1-1.44-1.76-2.53-1.34-1.88-1.72-2.3-2.44-3.46a13,13,0,0,1-1.66-3.37,10.21,10.21,0,0,1-.42-2.61c.6-1,1.26-2,2-3.08S78.43,96,79.19,95Z" transform="translate(-65.23 -69.78)" fill="#999"/><path d="M70.58,119.26A51.27,51.27,0,0,0,67,130.5a52.35,52.35,0,0,0-.71,12.5,22,22,0,0,0,.51,3.17,21,21,0,0,0,1.07,3.17c0-1.5-.07-3.63-.1-6.2a65.1,65.1,0,0,1,.1-6.71,40.65,40.65,0,0,1,1.19-6.5,63.58,63.58,0,0,1,2.63-7.74c.38-1,.71-1.74.93-2.27Z" transform="translate(-65.23 -69.78)" fill="#999"/><path d="M76.25,142.85a68.72,68.72,0,0,1,8.9-7.58c5.39-3.86,10-6,15.66-8.56a134.09,134.09,0,0,1,13.7-5.38c2.78-.92,5.19-1.62,7.06-2.13l-.81-4.09c-.25-1.28-.51-2.56-.77-3.84-1.74.49-4.27,1.22-7.31,2.19a125,125,0,0,0-12.6,4.47,104.18,104.18,0,0,0-10.31,5.21,55.92,55.92,0,0,0-8.5,5.57,46,46,0,0,0-5.81,5.66Z" transform="translate(-65.23 -69.78)" fill="#999"/><path d="M90,86c.81-1,1.51-1.85,2-2.46a18,18,0,0,1,3-3.1,5.65,5.65,0,0,1,2.33-1.24c.11.15-1.26,1-2.92,3-.27.33-.74.93-1.66,2.14l-1.33,1.75Z" transform="translate(-65.23 -69.78)" fill="#999"/><path d="M121.53,72.08c0,.08,1.59-.17,4.26-.17.44,0,1.85,0,3.67.18a52.69,52.69,0,0,1,10,2,47.18,47.18,0,0,1,11.21,4.79,46.68,46.68,0,0,1,8.59,6.67,47.32,47.32,0,0,1,5.36,6.23l2-1c-.36-.64-.9-1.53-1.61-2.54a36.62,36.62,0,0,0-4.24-4.86,59.06,59.06,0,0,0-6.54-5.79,30,30,0,0,0-5.48-3.55,26.28,26.28,0,0,0-4.29-1.62,31.85,31.85,0,0,0-5.67-1c-1.77-.19-3.05-.23-5.54-.31-2.25-.07-3.37-.1-4.61-.06A28.13,28.13,0,0,0,121.53,72.08Z" transform="translate(-65.23 -69.78)" fill="#999"/><path d="M162.62,103.41c2.38-.37,4.41-.6,5.95-.75,1.33-.12,3.64-.32,6.54-.37a23.77,23.77,0,0,1,5,.25c2.88.51,3.84,1.36,4.11,1.62a7.28,7.28,0,0,1,1.62,2.3c.08.17.24.61.56,1.5a18,18,0,0,1,.61,1.79,9,9,0,0,1,.27,1.88,11.26,11.26,0,0,0-2.68-1.43c-1.67-.62-3-.64-5.73-.62-4,0-5.94,0-7.16.12a62.84,62.84,0,0,0-7,.9c-.24-1.15-.55-2.38-.93-3.67S163,104.49,162.62,103.41Z" transform="translate(-65.23 -69.78)" fill="#999"/><path d="M141.34,83.74c-.11,2.1-.3,5.2-.62,8.94-.45,5.19-.75,7-2.4,20.14-1.23,9.71-1.48,12-2.4,16.3-.74,3.47-1.51,6.31-2.07,8.26l8,2.84c.63-1.83,1.6-4.77,2.54-8.46a134.13,134.13,0,0,0,3.72-27.58c.13-2.43.33-7.15.48-12.1.06-2.13.11-3.89.13-5.06Z" transform="translate(-65.23 -69.78)" fill="#999"/><path d="M112.48,138.88c4,4,7.55,7.16,10.25,9.42,4.25,3.56,7.51,5.89,13.19,10,4.54,3.24,7.92,5.49,11,7.43,2.44,1.52,4.42,2.67,6.36,3.71s3.56,1.87,4.84,2.49l-5.64,4.68a94.27,94.27,0,0,1-9-3.69,108.52,108.52,0,0,1-16.79-9.95,116.77,116.77,0,0,1-10.91-8.39,111.77,111.77,0,0,1-9.87-9.76Z" transform="translate(-65.23 -69.78)" fill="#999"/><path d="M187.06,126.27a38.49,38.49,0,0,1,2.26,5.63,41.2,41.2,0,0,1,1.41,6.34,47.92,47.92,0,0,1,.42,6.61,50.58,50.58,0,0,1-.77,8.59,28.8,28.8,0,0,0,1.75-7.18,32.58,32.58,0,0,0-.42-9.29,57.84,57.84,0,0,0-1.69-7.32c-.54-2-1.07-3.56-1.47-4.72Z" transform="translate(-65.23 -69.78)" fill="#999"/><path d="M140.7,188.22a48.54,48.54,0,0,0,9.71-1.57A56.76,56.76,0,0,0,170,176.59a46.63,46.63,0,0,0,5.35-5.14,44.18,44.18,0,0,0,5.56-8.09,53.69,53.69,0,0,0,2.49-5.21,13.39,13.39,0,0,1-.1,3.45,17.34,17.34,0,0,1-2,5.35,45.15,45.15,0,0,1-3.38,5.27,56.19,56.19,0,0,1-4.15,5.28,37.63,37.63,0,0,1-9.36,7.6c-3.81,2.17-6.94,3-11,4.08a70,70,0,0,1-11.86,2.07Z" transform="translate(-65.23 -69.78)" fill="#999"/><path d="M121.85,179.22a22.84,22.84,0,0,1-.44,3.07c-.94,4.43-2.44,5-3.51,9.15a13.8,13.8,0,0,1-1.55,3.87,13.23,13.23,0,0,1-.91,1.3c.88.2,1.8.39,2.74.56,1.78.32,3.48.55,5.08.71a29.68,29.68,0,0,0,2.87-4.69,46,46,0,0,0,2.46-6.54c.46-1.39,1-3.26,1.68-5.52-1.34-.23-2.74-.51-4.19-.84S123.19,179.59,121.85,179.22Z" transform="translate(-65.23 -69.78)" fill="#999"/><path d="M95.59,188.15a6.93,6.93,0,0,0,2.43.53,6.83,6.83,0,0,0,3.28-.71l.56,1.64a8.53,8.53,0,0,1-1.38.33,6.86,6.86,0,0,1-2.1.08A4.62,4.62,0,0,1,95.59,188.15Z" transform="translate(-65.23 -69.78)" fill="#999"/><path d="M87.77,85.94a11.3,11.3,0,0,1,4.92.78c2.18.89,3.51,2.28,6.06,5a52.85,52.85,0,0,1,3.84,4.61" transform="translate(-65.23 -69.78)" fill="none" stroke="#000" stroke-miterlimit="10"/><path d="M128.55,70.55a27.72,27.72,0,0,0-8.29,2c-3.72,1.55-6,3.49-9.8,6.63A57.7,57.7,0,0,0,102.64,87a51,51,0,0,0-3.59,5" transform="translate(-65.23 -69.78)" fill="none" stroke="#000" stroke-miterlimit="10"/><path d="M118.66,93.07a45.36,45.36,0,0,0-17,3.71,46.68,46.68,0,0,0-12.44,8,53.17,53.17,0,0,0-7.36,7.84,27.83,27.83,0,0,0-4.74,8A25.47,25.47,0,0,0,75.76,127a60,60,0,0,0,.41,15.33,68.81,68.81,0,0,0,5,16.64c2.79,6.8,5,9.79,5.64,10.59a36.33,36.33,0,0,0,6.39,6.46" transform="translate(-65.23 -69.78)" fill="none" stroke="#000" stroke-miterlimit="10"/><path d="M75,167.41a54.74,54.74,0,0,0,6.68,4.31,37.23,37.23,0,0,0,10.8,4.33,31.45,31.45,0,0,0,8.45.62" transform="translate(-65.23 -69.78)" fill="none" stroke="#000" stroke-miterlimit="10"/><path d="M102.92,168.9a39,39,0,0,0-2,7.77,28.82,28.82,0,0,0-.34,6.81,19.28,19.28,0,0,0,1.17,5.84,17.72,17.72,0,0,0,2.06,3.92" transform="translate(-65.23 -69.78)" fill="none" stroke="#000" stroke-miterlimit="10"/><path d="M94.37,187.57a8.51,8.51,0,0,0,4,1.13,8.27,8.27,0,0,0,3-.46" transform="translate(-65.23 -69.78)" fill="none" stroke="#000" stroke-miterlimit="10"/><path d="M82.38,161.9a67,67,0,0,0,9.24-5.13c4.25-2.82,7.39-5.7,13.68-11.44,3.19-2.92,6.49-5.72,9.6-8.72a42.56,42.56,0,0,1,6.48-5.2c.7-.46,1.29-.81,1.68-1" transform="translate(-65.23 -69.78)" fill="none" stroke="#000" stroke-miterlimit="10"/><path d="M123.06,133a24.33,24.33,0,0,0,.16-4.4,40.74,40.74,0,0,0-1-6.32c-.41-2-.79-4.06-1.2-6.08-.91-4.54-1.37-6.81-1.52-7.76a71.44,71.44,0,0,1-.72-13c0-3.9.06-5.9.64-8.24a24.86,24.86,0,0,1,3-7" transform="translate(-65.23 -69.78)" fill="none" stroke="#000" stroke-miterlimit="10"/><path d="M104.67,84.69a33.86,33.86,0,0,1,4.55-2.4,28.9,28.9,0,0,1,5.44-1.84c2.73-.6,4.75-.49,8.48-.24a69.15,69.15,0,0,1,10.48,1.52,58.93,58.93,0,0,1,6.72,1.68,53.37,53.37,0,0,1,11.12,5.12,18.11,18.11,0,0,1,5,3.76,16.94,16.94,0,0,1,2.32,3.36,51.08,51.08,0,0,1,4.48,9.68,54.7,54.7,0,0,1,2.56,14.16,58.82,58.82,0,0,1-.4,14.24,50.52,50.52,0,0,1-2.4,9.52,47.33,47.33,0,0,1-2.32,5.36" transform="translate(-65.23 -69.78)" fill="none" stroke="#000" stroke-miterlimit="10"/><path d="M121.38,131.41a35.42,35.42,0,0,0,4.08,2.56,46.75,46.75,0,0,0,6.64,2.8c2.47.89,2.68.86,5.28,1.76,1.23.42,2.26.8,7.52,2.88,4.93,1.94,7.41,2.93,8.56,3.44,4,1.8,6.73,3.29,7.35,3.63,1.32.73,3.16,1.77,5.45,3.33a62.08,62.08,0,0,1,6,4.64" transform="translate(-65.23 -69.78)" fill="none" stroke="#000" stroke-miterlimit="10"/><path d="M180.26,141.41a82.6,82.6,0,0,1-5,10.08,70,70,0,0,1-4,6.24,73.27,73.27,0,0,1-7.2,8.4,106.17,106.17,0,0,1-9.6,8.88,61.87,61.87,0,0,1-6,4.32,16.76,16.76,0,0,1-4.64,2.32,14.5,14.5,0,0,1-5.44.32,80.2,80.2,0,0,1-10.56-1.28,55.57,55.57,0,0,1-17.12-6.16,54.5,54.5,0,0,1-9.28-6.8,68.4,68.4,0,0,1-6.32-6.48c-1.47-1.72-2.64-3.26-3.52-4.48" transform="translate(-65.23 -69.78)" fill="none" stroke="#000" stroke-miterlimit="10"/><path d="M141.39,197.13a15.72,15.72,0,0,0,.31-3.24,15.05,15.05,0,0,0-.48-3.92c-.24-.93-.45-1.3-.72-2.56-.2-.93-.29-1.66-.32-1.92a19,19,0,0,1-.08-3.42" transform="translate(-65.23 -69.78)" fill="none" stroke="#000" stroke-miterlimit="10"/><path d="M165.63,132.61c1.36-.22,3.29-.56,5.59-1,3.65-.77,6-1.43,8.56-2.16a23.77,23.77,0,0,0,5.76-2.16,10.91,10.91,0,0,0,3.28-2.64,10.25,10.25,0,0,0,1.6-2.8,12.62,12.62,0,0,0,.93-4.62" transform="translate(-65.23 -69.78)" fill="none" stroke="#000" stroke-miterlimit="10"/><path d="M175.14,130.67a45.2,45.2,0,0,1,3.28,6.1,50.82,50.82,0,0,1,2.64,7.6,56.15,56.15,0,0,1,1.92,9,32.28,32.28,0,0,1,.32,8.32,29.16,29.16,0,0,1-2.24,8.4,33.59,33.59,0,0,1-4.32,7.52" transform="translate(-65.23 -69.78)" fill="none" stroke="#000" stroke-miterlimit="10"/><path d="M67.82,118q1.94,1,4.11,1.89c1.66.71,3.26,1.33,4.8,1.88" transform="translate(-65.23 -69.78)" fill="none" stroke="#000" stroke-miterlimit="10"/><path d="M158.82,95.65c1.77-1.15,3.29-2.1,4.46-2.83.81-.49,2.47-1.51,4.67-2.67a10.31,10.31,0,0,1,3.24-1.37,7.2,7.2,0,0,1,4.17.68" transform="translate(-65.23 -69.78)" fill="none" stroke="#000" stroke-miterlimit="10"/><path d="M165.63,132.61a50.94,50.94,0,0,1-1.8,8.33,50.4,50.4,0,0,1-3,7.54,63.88,63.88,0,0,1,11.42,7.94c1.43-2.13,2.91-4.53,4.35-7.22a84.32,84.32,0,0,0,3.68-7.79,49.12,49.12,0,0,0-2.49-6,51.23,51.23,0,0,0-2.63-4.71q-2.41.6-5,1.12C168.58,132.1,167.08,132.37,165.63,132.61Z" transform="translate(-65.23 -69.78)"/><path d="M123.25,130.27l-1.85,1.15,1.72,1.13Z" transform="translate(-65.23 -69.78)"/><path d="M99.12,92l3.42,4.34a48.06,48.06,0,0,1,16.12-3.23,24.62,24.62,0,0,1,3.68-12.86,22.17,22.17,0,0,0-6.17,0,25.5,25.5,0,0,0-7.45,2.33,33,33,0,0,0-4,2.18c-1,1.11-2.08,2.36-3.15,3.78C100.61,89.67,99.82,90.85,99.12,92Z" transform="translate(-65.23 -69.78)"/><path d="M82.38,161.9q2.1-1,4.4-2.2c1.77-1,3.38-2,4.84-2.93,1.42,2,2.78,3.63,4,5,2.1,2.41,3.89,4.13,4.69,4.88,1,.9,1.81,1.64,2.46,2.19-.39,1.29-.77,2.67-1.11,4.14-.29,1.28-.53,2.51-.73,3.67a24.12,24.12,0,0,1-4.32,0,24.38,24.38,0,0,1-3.45-.59,34.7,34.7,0,0,1-7.59-8.18A34.75,34.75,0,0,1,82.38,161.9Z" transform="translate(-65.23 -69.78)"/></svg>