<svg id="アタック" xmlns="http://www.w3.org/2000/svg" viewBox="0 0 375 300"><rect width="375" height="300" fill="none"/><path d="M187.72,25.2l130,94.48L268.09,272.55H107.35L57.68,119.68l130-94.48m0-.34L57.35,119.57l49.8,153.26H268.29l49.79-153.26L187.72,24.86Z" fill="#4d4d4d"/><path d="M187.72,54.3l102.37,74.37L251,249H124.45L85.35,128.67,187.72,54.3m0-.34L85,128.56l39.22,120.72H251.19l39.22-120.72L187.72,54Z" fill="#4d4d4d"/><path d="M187.72,81.83l76.18,55.35-29.1,89.55H140.64l-29.1-89.55,76.18-55.35m0-.34-76.5,55.58L140.44,227H235l29.22-89.94-76.5-55.58Z" fill="#4d4d4d"/><path d="M187.72,111l48.47,35.22-18.51,57H157.76l-18.52-57L187.72,111m0-.34-48.8,35.46,18.64,57.36h60.32l18.64-57.36-48.8-35.46Z" fill="#4d4d4d"/><path d="M187.72,139.1l21.72,15.78-8.3,25.52H174.3L166,154.88l21.72-15.78m0-.34-22,16,8.42,25.91h27.24l8.42-25.91-22-16Z" fill="#4d4d4d"/><circle cx="187.72" cy="162.56" r="2.19" fill="#ccc"/><polyline points="317.46 119.77 187.72 162.56 187.72 25.95" fill="none" stroke="#ccc" stroke-miterlimit="10" stroke-width="0.27"/><polyline points="107.8 272.18 187.72 162.56 268.09 272.28" fill="none" stroke="#ccc" stroke-miterlimit="10" stroke-width="0.27"/><line x1="58.22" y1="119.77" x2="187.42" y2="162.56" fill="none" stroke="#ccc" stroke-miterlimit="10" stroke-width="0.27"/><path d="M184.25,22.5v8.57l.32.66h-2.42l.25-.69V24.2h-.26l-.62.21.39-1.91Z" fill="#666"/><path d="M190.05,22.5l1.24,1.22V30.5l-1.24,1.23h-3.11l-1.23-1.23V23.73l1.23-1.23Zm-1,7.54.34-.36V24.51l-.3-.33h-1.19l-.36.35v5.18l.34.33Z" fill="#666"/><path d="M189.25,52.14l1.23,1.21V56.1l-.27.27.52.51v3.25l-1.23,1.22h-3.61l-1.22-1.22V56.89l.52-.52-.27-.27V53.36l1.22-1.22Zm-.72,7.53.34-.35V57.66l-.32-.33h-1.67l-.36.36v1.65l.33.33Zm-.25-4,.34-.35V54.14l-.31-.34h-1.18l-.35.35v1.15l.32.33Z" fill="#666"/><path d="M189.16,80.65l1.22,1.24v.76l-2,.89.18-.72v-.17l-.32-.33H187l-.36.36v1.5h2.48l1.23,1.22v3.25l-1.23,1.23H186l-1.23-1.23V81.88L186,80.65Zm-1,7.54.34-.35V86.18l-.32-.33H187l-.36.36v1.66l.33.32Z" fill="#666"/><path d="M187.08,108.08l-.24.72v4.3l.33.33h.89v-3.84l-.25-.76h2.37l-.25.76v3.84h1.36l-.5,1.87H190v1.33l.34.68H187.8l.24-.66V115.3h-1.88L185,114.07v-5.28l-.24-.71Z" fill="#666"/><path d="M189.18,136.61l1.22,1.23v3l-3.57,1.9v1.45h1.7v-1.52l1.86.65v2.56H185v-4.13l3.56-1.9v-1.18l-.35-.35H187l-.32.33v1.06l-1.87-.81v-1l1.23-1.23Z" fill="#666"/><path d="M89.4,124.55l1.23,1.22v2.75l-.27.26.52.52v3.24l-1.22,1.23H86l-1.22-1.23V129.3l.52-.52-.27-.27v-2.74l1.22-1.22Zm-.72,7.54.35-.36v-1.65l-.33-.33H87l-.35.35v1.65l.33.33Zm-.25-4,.34-.36v-1.15l-.31-.33H87.28l-.35.35v1.16l.33.33Z" fill="#666"/><path d="M115.65,133.32l1.22,1.23v.77l-2,.88.17-.72v-.16l-.31-.33h-1.18l-.35.35v1.51h2.47l1.24,1.21v3.26l-1.24,1.22h-3.11l-1.22-1.22v-6.77l1.22-1.23Zm-1,7.54.35-.35v-1.66l-.32-.33h-1.18l-.35.35v1.66l.33.33Z" fill="#666"/><path d="M139.9,142.1l-.24.72v4.3l.33.32h.89v-3.83l-.25-.76H143l-.25.75v3.84h1.36l-.5,1.87h-.86v1.33l.34.68h-2.49l.24-.65v-1.36H139l-1.22-1.23V142.8l-.24-.7Z" fill="#666"/><path d="M169.43,149.78l1.22,1.22v3l-3.57,1.9v1.45h1.7v-1.53l1.86.66V159h-5.42v-4.12l3.56-1.9V151.8l-.35-.35h-1.17l-.32.33v1.06l-1.87-.81v-1l1.23-1.23Z" fill="#666"/><path d="M58.07,115.76v8.57l.32.66H56l.25-.68v-6.85H56l-.62.21.39-1.91Z" fill="#666"/><path d="M63.88,115.76,65.11,117v6.78L63.88,125H60.76l-1.23-1.23V117l1.23-1.23Zm-1,7.54.35-.36v-5.17l-.31-.33H61.75l-.36.35V123l.34.33Z" fill="#666"/><path d="M125.61,244.15l1.23,1.21v2.76l-.27.26.52.51v3.25l-1.23,1.22h-3.61L121,252.14V248.9l.52-.52-.27-.27v-2.74l1.22-1.22Zm-.72,7.53.34-.35v-1.66l-.32-.33h-1.67l-.35.36v1.65l.32.33Zm-.25-4,.34-.35v-1.15l-.31-.34h-1.18l-.35.35v1.15l.33.33Z" fill="#666"/><path d="M143.08,221.09l1.22,1.24v.76l-2,.89.18-.72v-.17l-.32-.32h-1.18l-.35.35v1.5h2.48l1.23,1.22v3.25l-1.23,1.23H140l-1.22-1.23v-6.77l1.22-1.23Zm-1,7.55.35-.36v-1.66l-.32-.32h-1.18l-.35.35v1.66l.33.33Z" fill="#666"/><path d="M157.45,198.05l-.23.72v4.3l.33.33h.89v-3.84l-.25-.75h2.36l-.25.75v3.84h1.36l-.5,1.87h-.85v1.33l.33.68h-2.48l.24-.66v-1.35h-1.87L155.33,204v-5.28l-.24-.71Z" fill="#666"/><path d="M176,173.91l1.23,1.23v3l-3.57,1.9v1.45h1.71v-1.53l1.87.66v2.55h-5.43V179l3.57-1.9v-1.18l-.36-.35h-1.17l-.32.32V177l-1.86-.81v-1l1.22-1.24Z" fill="#666"/><path d="M106.35,267.18v8.57l.32.65h-2.43l.26-.68v-6.85h-.26l-.63.22.4-1.91Z" fill="#666"/><path d="M112.15,267.18l1.24,1.22v6.77l-1.24,1.23H109l-1.22-1.23v-6.76l1.22-1.23Zm-1,7.54.34-.36v-5.18l-.31-.32H110l-.35.35v5.17l.34.34Z" fill="#666"/><path d="M252.89,244.15l1.23,1.21v2.76l-.27.26.52.51v3.25l-1.23,1.22h-3.61l-1.22-1.22V248.9l.52-.52-.27-.27v-2.74l1.22-1.22Zm-.72,7.53.34-.35v-1.66l-.32-.33h-1.67l-.36.36v1.65l.33.33Zm-.25-4,.34-.35v-1.15l-.32-.34h-1.17l-.36.35v1.15l.33.33Z" fill="#666"/><path d="M237.44,221.09l1.22,1.24v.76l-2,.89.18-.72v-.17l-.32-.32H235.3l-.35.35v1.5h2.48l1.23,1.22v3.25l-1.23,1.23h-3.12l-1.22-1.23v-6.77l1.22-1.23Zm-1,7.55.35-.36v-1.66l-.32-.32H235.3l-.35.35v1.66l.33.33Z" fill="#666"/><path d="M216.7,198.05l-.24.72v4.3l.34.33h.89v-3.84l-.25-.75h2.36l-.25.75v3.84h1.36l-.5,1.87h-.85v1.33l.33.68h-2.48l.24-.66v-1.35H215.8L214.57,204v-5.28l-.23-.71Z" fill="#666"/><path d="M202.35,175l1.22,1.23v3L200,181.11v1.44h1.7V181l1.87.65v2.56h-5.43v-4.12l3.57-1.91V177l-.35-.36h-1.17l-.32.33v1.06l-1.87-.81v-1l1.22-1.24Z" fill="#666"/><path d="M265.44,268.27v8.57l.32.66h-2.42l.25-.68V270h-.26l-.62.21.39-1.91Z" fill="#666"/><path d="M271.25,268.27l1.23,1.23v6.77l-1.23,1.23h-3.12l-1.23-1.23V269.5l1.23-1.23Zm-1,7.55.34-.36v-5.18l-.31-.33h-1.19l-.35.36v5.17l.33.34Z" fill="#666"/><path d="M289.1,124.55l1.22,1.22v2.75l-.27.26.53.52v3.24l-1.23,1.23h-3.62l-1.22-1.23V129.3l.52-.52-.27-.27v-2.74l1.23-1.22Zm-.72,7.54.34-.36v-1.65l-.32-.33h-1.68l-.35.35v1.65l.33.33Zm-.25-4,.34-.36v-1.15l-.32-.33H287l-.36.35v1.16l.33.33Z" fill="#666"/><path d="M264.87,133.32l1.22,1.23v.77l-2,.88.18-.72v-.16l-.32-.33h-1.18l-.35.35v1.51h2.48l1.23,1.21v3.26l-1.23,1.22h-3.12l-1.22-1.22v-6.77l1.22-1.23Zm-1,7.54.35-.35v-1.66l-.32-.33h-1.18l-.35.35v1.66l.33.33Z" fill="#666"/><path d="M235.36,142.1l-.24.72v4.3l.33.32h.89v-3.83l-.25-.76h2.37l-.25.75v3.84h1.37l-.51,1.87h-.85v1.33l.33.68h-2.48l.24-.65v-1.36h-1.88l-1.22-1.23V142.8l-.24-.7Z" fill="#666"/><path d="M210,149.78l1.22,1.22v3l-3.57,1.9v1.45h1.7v-1.53l1.87.66V159h-5.43v-4.12l3.57-1.9V151.8l-.35-.35h-1.17l-.32.33v1.06l-1.87-.81v-1l1.22-1.23Z" fill="#666"/><path d="M312.62,114.67v8.57l.32.65h-2.42l.25-.68v-6.85h-.26l-.62.22.39-1.91Z" fill="#666"/><path d="M318.43,114.67l1.23,1.22v6.77l-1.23,1.23h-3.12l-1.23-1.23v-6.77l1.23-1.22Zm-1,7.54.34-.36v-5.18l-.31-.33H316.3l-.35.36v5.17l.33.34Z" fill="#666"/><path d="M152.51,5.47V3.15h12.66l.21-.21,1.83,1.69a25.56,25.56,0,0,1-5,6.47l-1.83-2a13.45,13.45,0,0,0,3.3-3.66Zm.14,9.43a9.16,9.16,0,0,0,3.8-3.59,12.11,12.11,0,0,0,1.13-5.13h2.81a15.77,15.77,0,0,1-1.69,6.39,11.59,11.59,0,0,1-4.43,4.5Z" fill="#333"/><path d="M171,8.78a17.86,17.86,0,0,0,3.3-3.17,25.57,25.57,0,0,0,2.25-3.79L179,2.87l-1,1.69h4.15l.21-.35,2,1.19a26.46,26.46,0,0,1-3,5.63,18.06,18.06,0,0,1,1.55,1.33l-1.62,2-.77-.77a4,4,0,0,0-.78-.63,16.2,16.2,0,0,1-6.25,4.29L171.92,15a15.41,15.41,0,0,0,5.84-3.45,20.33,20.33,0,0,0-2.54-1.62L176.84,8a28.49,28.49,0,0,1,2.53,1.55A7.65,7.65,0,0,0,180.78,7h-4.36a19.9,19.9,0,0,1-3.73,3.73Z" fill="#333"/><path d="M188.65,5.9l2-.78a27.87,27.87,0,0,1,1.48,3.59l-2,.84A33.25,33.25,0,0,0,188.65,5.9Zm1.83,9A12.62,12.62,0,0,0,196.32,11a16.28,16.28,0,0,0,2.39-6.12l2.46.84a18.32,18.32,0,0,1-3.09,7A15,15,0,0,1,192,17Zm1.9-9.64,2-.77c.52,1.12,1,2.27,1.48,3.44l-2.11.71C193.32,7.37,192.85,6.25,192.38,5.26Z" fill="#333"/><path d="M206.79,9.2a18.27,18.27,0,0,0,5.35-7.31l2.53,1L214,4.35h4.22l.21-.28,2,1.26a19.66,19.66,0,0,1-9.57,12l-2-2.11q6.19-3.16,8.09-8.51h-4.43A22.31,22.31,0,0,1,208.9,11Z" fill="#333"/><path d="M304.34,101.9l.21-.29V89.17h2.74v11.18a27,27,0,0,0,8.65-6.4l1.62,2.39a38.76,38.76,0,0,1-11.39,7.45Z" fill="#333"/><path d="M320.72,94.86l1.13-2c1.45.66,2.91,1.34,4.36,2L325,97.18A42,42,0,0,0,320.72,94.86Zm.57,6.82A25.37,25.37,0,0,0,328,98.24a23.63,23.63,0,0,0,5.41-5.77l1.83,2.11a27.82,27.82,0,0,1-12.59,9.71Zm1-10.61L323.54,89q1.75.63,4.57,2l-1.34,2.25A44.19,44.19,0,0,0,322.27,91.07Z" fill="#333"/><path d="M339,95.36h13.64v2.39H339Z" fill="#333"/><path d="M368.68,89.73l1.12.7-1.05-1.19,1.12-.92,1.41,1.76-.91.71.28.21a23,23,0,0,1-3.52,7.59,18.63,18.63,0,0,1-6.68,5.34l-1.76-2.25q7.11-3.23,8.65-9.28H357V90h11.46Zm1.61-1.26,1.13-.92,1.34,1.69-1.06.84Z" fill="#333"/><path d="M6.44,94.86V92.47h3V89.24h2.6v3.23h3.44V89.1h2.61v3.37h2.95v2.39H18.12a11,11,0,0,1-1.27,5.56,9.57,9.57,0,0,1-4.22,3.65l-1.9-2a8.84,8.84,0,0,0,3.66-2.89,7.49,7.49,0,0,0,1.12-4.36H12.07v3.87H9.47V94.86Z" fill="#333"/><path d="M25,95.36H38.65v2.39H25Z" fill="#333"/><path d="M54.68,89.73l1.12.7-1-1.19,1.12-.92,1.41,1.76-.91.71.28.21a23,23,0,0,1-3.52,7.59,18.63,18.63,0,0,1-6.68,5.34l-1.76-2.25q7.11-3.23,8.65-9.28H43V90H54.47Zm1.61-1.26,1.13-.92,1.34,1.69-1.06.84Z" fill="#333"/><path d="M69.39,296A28.42,28.42,0,0,0,70,291l2,.28a36.74,36.74,0,0,1-.49,5.27Zm2.18-8.16-2.11-2.46,1.26-2,.36.43,1.4-2.4,1.83.92-1.76,3.09.35.42,1.41-2.18,2,1.2-2.53,3.66,1.12-.07-.21-.92,1.76-.42.21.7a9.36,9.36,0,0,0,2.39-1,12.17,12.17,0,0,1-1.69-2.39h-.91V282.1h7.52l.14-.14,1.69,1.54A11,11,0,0,1,83,286.81a9.38,9.38,0,0,0,3.23,1l-1,2.25a11.49,11.49,0,0,1-4.22-1.54,26.32,26.32,0,0,1-2.67,1.61l-1.41-1.47.56,1.9-2,.56-.08-.64-.77.08v7.1H72.13v-7l-2.46.14-.21-2.18H71Zm4.78,7.39-1.27.14-.35-3.73,1.76-.21.56,3.44h2.89v-1.61H77.33V291h2.61v-1.48H82.4V291h2.81v2.25H82.4v1.61h3.51v2.32H76.35Zm3.59-10.76a3.32,3.32,0,0,0,1,1.19A3.74,3.74,0,0,0,82,284.42Z" fill="#333"/><path d="M87.39,296.51a26.41,26.41,0,0,0,.49-4.5l1.13.28a38.49,38.49,0,0,1-.22,4.57Zm11-15.26,2.46.29-.21.35a7.51,7.51,0,0,0,1.4,1.47,9,9,0,0,0,2.18,1.34l-1,2.46a5.51,5.51,0,0,1-1.06-.63v.77h-1.68v.63h2.88v4.64h-2.74a5.72,5.72,0,0,0,1.4,1.62,8.45,8.45,0,0,0,2.25,1.41l-1.4,2.18a8.84,8.84,0,0,1-3.59-3.24,7.83,7.83,0,0,1-3.44,3.31l-1.27-2c0,1.17-.8,1.76-2.25,1.76H91l-.49-1.76-1.19.14-.07-3.66.91-.07.28,3.17h1.13c.37,0,.61-.1.7-.28a1.8,1.8,0,0,0,.14-.85v-.21l-.63.21L91.4,292l.84-.14.14.63v-.91H88.16v-9.7H95v2.25H93.29v.56h1.2v.14A8.31,8.31,0,0,0,98.43,281.25Zm-8,3.45h.78v-.56h-.78Zm0,2.39h.78v-.56h-.78Zm0,2.39h.78V289h-.78Zm.78,2.6.42,2.46-.92.28-.28-2.6Zm6.53.49h-2.6v-4.64h3v-.63H96.32v-.77a3.28,3.28,0,0,1-.85.56l-1-1.76v1.2h-1.2v.56h1.2V289h-1.2v.49h1.48l-.14,6.12C96.46,294.75,97.49,293.75,97.72,292.57Zm-.14-2h.5v-.78h-.5Zm.29-5.21h2.81a13.83,13.83,0,0,1-1.48-1.33A6,6,0,0,1,97.87,285.4Zm2.67,5.21H101v-.78h-.49Z" fill="#333"/><path d="M110.1,283.64l-.63,1.62v12.38h-2.39v-7.95a3.61,3.61,0,0,1-.85,1.2l-1-3a9.62,9.62,0,0,0,1.83-2.95,20.76,20.76,0,0,0,1.26-3.73l2.32.64-.21.7h4.29l.21-1.34,2.74.14-.21,1.2h4.29v2H117.2l-.21,1.05h3.94v8.65h-7.6v-8.65h.85l.21-1.05H110.1Zm.21,2.4h2.39v8.78h9.14v2H112.7v.78h-2.39Zm5.48,2h2.68v-.63h-2.68Zm0,2.25h2.68v-.63h-2.68Zm0,2.18h2.68v-.63h-2.68Z" fill="#333"/><path d="M252.68,282.73l1.12.7-1.05-1.19,1.12-.92,1.41,1.76-.91.71.28.21a23,23,0,0,1-3.52,7.59,18.63,18.63,0,0,1-6.68,5.34l-1.76-2.25q7.11-3.23,8.65-9.28H241V283h11.46Zm1.61-1.27,1.13-.91,1.34,1.69-1.06.84Z" fill="#333"/><path d="M259.64,295.88V283.79h12.3v12.09h-2.6V295h-7.1v.92Zm2.6-3.38h7.1v-6.25h-7.1Z" fill="#333"/><path d="M276.65,285.89l2-.77a27.87,27.87,0,0,1,1.48,3.59l-2,.84A34.29,34.29,0,0,0,276.65,285.89Zm1.83,9a12.47,12.47,0,0,0,5.84-3.93,16.28,16.28,0,0,0,2.39-6.12l2.46.84a18.19,18.19,0,0,1-3.09,7A14.92,14.92,0,0,1,280,297Zm1.9-9.63,2-.77c.52,1.12,1,2.27,1.48,3.44l-2.11.71C281.32,287.37,280.85,286.25,280.38,285.26Z" fill="#333"/><path d="M294.79,289.2a18.27,18.27,0,0,0,5.35-7.31l2.53,1-.63,1.48h4.22l.21-.28,2,1.26a19.66,19.66,0,0,1-9.57,12l-2-2.11q6.19-3.17,8.09-8.51h-4.43A22.31,22.31,0,0,1,296.9,291Z" fill="#333"/><path d="M4.26,106.23l.35.69a5.19,5.19,0,0,0,0,6.31l-.35.66A5.28,5.28,0,0,1,3,110.61,5.91,5.91,0,0,1,4.26,106.23Z" fill="#333"/><path d="M7.61,112.76V111.7h2.56v-3h-2v-1.06h5.31v1.06h-2v3H14v1.06Z" fill="#333"/><path d="M15.7,108l.78-1c.52.36,1.09.78,1.69,1.28l-.81,1A17.65,17.65,0,0,0,15.7,108Zm0,4.22a10.12,10.12,0,0,0,3.13-1.38,8.77,8.77,0,0,0,2.47-2.56l.81,1a11.3,11.3,0,0,1-2.6,2.53,14.11,14.11,0,0,1-3.28,1.63Z" fill="#333"/><path d="M25.2,106.67h1.19v2.65l.56-.68a25.61,25.61,0,0,1,2.63,1.81l-.75.94a21.69,21.69,0,0,0-2.44-1.75v3.81H25.2Zm2.63,1.06.59-.44.69.85-.6.47Zm.84-.53.56-.41.69.78-.56.44Z" fill="#333"/><path d="M31.86,109.73v-1.06H37l.1-.1.78.57a7.66,7.66,0,0,1-1.38,2.53,5.68,5.68,0,0,1-2.5,1.84l-.75-.94a5.23,5.23,0,0,0,3.1-2.84Zm.75-1.72v-1h4.25v1Z" fill="#333"/><path d="M39.7,110.14a12.48,12.48,0,0,0,5.06-3.38l1,.81a10.48,10.48,0,0,1-2.09,1.79v4H42.45v-3.28a15.32,15.32,0,0,1-2.09,1.12Z" fill="#333"/><path d="M47.7,108l.78-1c.52.36,1.09.78,1.69,1.28l-.81,1A17.65,17.65,0,0,0,47.7,108Zm0,4.22a10.12,10.12,0,0,0,3.13-1.38,8.77,8.77,0,0,0,2.47-2.56l.81,1a11.3,11.3,0,0,1-2.6,2.53,14.11,14.11,0,0,1-3.28,1.63Z" fill="#333"/><path d="M57.14,113.23a5.23,5.23,0,0,0,0-6.31l.31-.69a5.17,5.17,0,0,1,1.25,3.34,5.62,5.62,0,0,1-1.25,4.32Z" fill="#333"/></svg>