<svg xmlns="http://www.w3.org/2000/svg" xmlns:xlink="http://www.w3.org/1999/xlink" width="210.09" height="60.15" viewBox="0 0 210.09 60.15"><defs><clipPath id="a"><rect width="210.09" height="60.15" fill="none"/></clipPath></defs><path d="M173.155,19.166,165.272,37.4H169.7l1.52-3.864h7.084l1.572,3.864h4.534l-7.935-18.239Zm-.67,10.974,2.216-5.668,2.241,5.668Z" transform="translate(-93.218 -10.81)" fill="#f48400"/><path d="M214.734,37.405h4.019V22.721h5.2V19.166H209.53v3.555h5.2Z" transform="translate(-118.181 -10.81)" fill="#f48400"/><path d="M259.112,25.967h-7.806v-6.8h-4.019V37.4h4.019V29.522h7.806V37.4h4.019V19.165h-4.019Z" transform="translate(-139.477 -10.81)" fill="#f48400"/><path d="M320.457,19.166h-3.323L309.41,37.038l-8.479-9.4,8.115-8.475H303.79l-7.085,7.574V19.166h-4.019V37.4h4.019V28.75l7.419,8.655h9.557l1.52-3.864h7.084l1.572,3.864h4.534ZM316.464,30.14l2.216-5.668,2.241,5.668Z" transform="translate(-165.084 -10.81)" fill="#921b00"/><path d="M384.161,37.405V22.721h5.2V19.166H374.939v3.555h5.2V37.405Z" transform="translate(-211.477 -10.81)" fill="#921b00"/><g clip-path="url(#a)"><path d="M420.552,27.2a8.359,8.359,0,0,0-2.022-.876q-1.082-.309-2.022-.619a5.824,5.824,0,0,1-1.559-.747,1.451,1.451,0,0,1-.618-1.263,1.467,1.467,0,0,1,.258-.875,1.909,1.909,0,0,1,.67-.58,3.474,3.474,0,0,1,.876-.322,4.138,4.138,0,0,1,.9-.1,4.756,4.756,0,0,1,1.584.3,2.865,2.865,0,0,1,1.327.914l2.757-3.014a6.9,6.9,0,0,0-2.6-1.468,10.244,10.244,0,0,0-2.989-.438,9.14,9.14,0,0,0-2.6.374,6.73,6.73,0,0,0-2.228,1.121,5.59,5.59,0,0,0-1.546,1.855,5.477,5.477,0,0,0-.58,2.576,4.27,4.27,0,0,0,.631,2.447,4.963,4.963,0,0,0,1.584,1.495,9.218,9.218,0,0,0,2.061.9q1.107.335,2.061.67a5.828,5.828,0,0,1,1.584.812,1.542,1.542,0,0,1,.631,1.3,1.477,1.477,0,0,1-.245.85,1.938,1.938,0,0,1-.644.592,3.223,3.223,0,0,1-.9.348,4.383,4.383,0,0,1-.992.116,4.446,4.446,0,0,1-1.945-.451,4.169,4.169,0,0,1-1.559-1.275l-2.859,3.143a8.261,8.261,0,0,0,2.834,1.752,10.28,10.28,0,0,0,5.99.18A6.516,6.516,0,0,0,420.63,35.8a5.383,5.383,0,0,0,1.533-1.881,5.865,5.865,0,0,0,.567-2.653,4.635,4.635,0,0,0-.618-2.55,4.789,4.789,0,0,0-1.559-1.52" transform="translate(-231.007 -10.21)" fill="#921b00"/><path d="M457.975,19.166V30.217a4.437,4.437,0,0,1-.27,1.572,3.765,3.765,0,0,1-.76,1.249,3.488,3.488,0,0,1-1.159.824,3.586,3.586,0,0,1-1.469.3,3.671,3.671,0,0,1-1.481-.3,3.446,3.446,0,0,1-1.172-.824,3.751,3.751,0,0,1-.76-1.249,4.437,4.437,0,0,1-.27-1.572V19.166h-4.019V30.372a8.8,8.8,0,0,0,.489,2.988,6.571,6.571,0,0,0,1.456,2.37,6.661,6.661,0,0,0,2.409,1.571,10.1,10.1,0,0,0,6.672,0,6.665,6.665,0,0,0,2.409-1.571,6.569,6.569,0,0,0,1.455-2.37,8.8,8.8,0,0,0,.49-2.988V19.166Z" transform="translate(-251.903 -10.81)" fill="#921b00"/><path d="M171.3,80.538a.252.252,0,0,0-.175-.108.952.952,0,0,0-.145.056,1.891,1.891,0,0,1-.529.044h-3.272q-.823,0-1.55-.052a7.325,7.325,0,0,0,.138.82.124.124,0,0,0,.138.116q.891-.06,1.349-.06h3.3a4.515,4.515,0,0,1-.555.66,7.93,7.93,0,0,1-.813.674,1.851,1.851,0,0,1,.634.317.287.287,0,0,0,.186.075.227.227,0,0,0,.16-.067,6.382,6.382,0,0,0,1.341-1.476,1.007,1.007,0,0,1,.2-.22.2.2,0,0,0,.108-.16.219.219,0,0,0-.06-.138,3.978,3.978,0,0,0-.458-.48" transform="translate(-93.416 -45.365)" fill="#921b00"/><path d="M167.71,86.875a4.413,4.413,0,0,1-1.036.712,2.236,2.236,0,0,1,.694.388.213.213,0,0,0,.153.071.4.4,0,0,0,.216-.075,3.923,3.923,0,0,0,1.386-1.521,4.942,4.942,0,0,0,.451-2.1.788.788,0,0,1,.071-.313.306.306,0,0,0,.037-.134.143.143,0,0,0-.13-.146,7.259,7.259,0,0,0-.984-.145,3.2,3.2,0,0,1,.075.716,3.826,3.826,0,0,1-.373,1.8,3.05,3.05,0,0,1-.559.746" transform="translate(-94.009 -47.159)" fill="#921b00"/><path d="M190.775,83.5a13.243,13.243,0,0,0,.977-1.427,1.457,1.457,0,0,1,.279-.339.2.2,0,0,0,.1-.153.219.219,0,0,0-.037-.1,2.725,2.725,0,0,0-.5-.537.311.311,0,0,0-.13-.059.143.143,0,0,0-.086.03,1.254,1.254,0,0,1-.525.071h-2.1q-.88,0-1.29-.03a3.679,3.679,0,0,0,.067.794q.026.138.1.13.619-.048,1.208-.048l1.968-.007a9.643,9.643,0,0,1-2.542,2.9,10.59,10.59,0,0,1-1.58.961,2.113,2.113,0,0,1,.641.5.165.165,0,0,0,.13.067.654.654,0,0,0,.175-.06,11.041,11.041,0,0,0,2.564-2.016,13.869,13.869,0,0,1,1.982,1.893.177.177,0,0,0,.108.06.14.14,0,0,0,.093-.045,4.08,4.08,0,0,0,.511-.521.188.188,0,0,0,.052-.112.165.165,0,0,0-.06-.108,18.653,18.653,0,0,0-2.113-1.845" transform="translate(-105.299 -45.625)" fill="#921b00"/><path d="M212.4,85.5a3.113,3.113,0,0,0,.768-.082,1.1,1.1,0,0,0,.548-.31,1.635,1.635,0,0,0,.354-.723,11.377,11.377,0,0,0,.283-2.508q.029-.809.03-.813c0-.07-.054-.1-.16-.1l-1.062.015H212c.015-.137.027-.278.037-.425q.026-.3.03-.376a.863.863,0,0,1,.1-.358.339.339,0,0,0,.037-.145.16.16,0,0,0-.13-.16,5.723,5.723,0,0,0-.991-.16,3.128,3.128,0,0,1,.056.6q-.008.481-.056,1.028h-.8q-.786,0-1.267-.03a7.232,7.232,0,0,0,.063.741c.007.088.04.131.1.131h.019q.592-.041,1.1-.041h.69a4.535,4.535,0,0,1-.552,1.648,4.469,4.469,0,0,1-1.792,1.558,1.853,1.853,0,0,1,.641.443.2.2,0,0,0,.145.075.339.339,0,0,0,.175-.06,4.768,4.768,0,0,0,1.618-1.573,5.768,5.768,0,0,0,.678-2.113h1.543a11.433,11.433,0,0,1-.228,2.288,1.136,1.136,0,0,1-.145.354.477.477,0,0,1-.254.182,2.459,2.459,0,0,1-.7.075q-.141,0-.339-.007a1.732,1.732,0,0,1,.443.693.182.182,0,0,0,.183.153" transform="translate(-117.678 -44.757)" fill="#921b00"/><path d="M234.612,84.982a10.62,10.62,0,0,1-1.368,1.044,2.371,2.371,0,0,1,.73.361.241.241,0,0,0,.13.052.343.343,0,0,0,.175-.067,8.553,8.553,0,0,0,2.016-1.893,12.727,12.727,0,0,0,1.48-2.6,1.552,1.552,0,0,1,.3-.5.182.182,0,0,0,.06-.13.164.164,0,0,0-.086-.153,5.376,5.376,0,0,0-.995-.451,3.877,3.877,0,0,1-.224,1,8.881,8.881,0,0,1-1.319,2.366,8.325,8.325,0,0,1-.9.969" transform="translate(-131.557 -45.486)" fill="#921b00"/><path d="M231.135,81.384a6.332,6.332,0,0,0-.678.354,6.3,6.3,0,0,1,.891,1.539c.032.087.075.13.127.13a.219.219,0,0,0,.075-.015,4.165,4.165,0,0,0,.585-.3c.062-.04.093-.078.093-.116a.389.389,0,0,0-.03-.1,6.126,6.126,0,0,0-.853-1.438.155.155,0,0,0-.123-.078.209.209,0,0,0-.085.022" transform="translate(-129.985 -45.891)" fill="#921b00"/><path d="M235.866,82.295a.324.324,0,0,0,.1-.023,4.1,4.1,0,0,0,.578-.276.165.165,0,0,0,.1-.134.2.2,0,0,0-.019-.078,5.479,5.479,0,0,0-.749-1.413.153.153,0,0,0-.119-.078.193.193,0,0,0-.078.019q-.153.063-.47.216l-.235.112a6.127,6.127,0,0,1,.786,1.539c.025.077.061.116.108.116" transform="translate(-132.531 -45.288)" fill="#921b00"/><path d="M253.074,85.842l.06-.011a3.185,3.185,0,0,0,.57-.13q.093-.03.093-.082V85.6a1.424,1.424,0,0,1,.008-.406,4.686,4.686,0,0,1,.391-1.159.237.237,0,0,0,.045-.123.173.173,0,0,0-.045-.108,2.238,2.238,0,0,1-.268-.481q-.086.2-.224.507-.194.428-.25.555-.022-.32-.022-.977a13.827,13.827,0,0,1,.38-2.78,1.762,1.762,0,0,1,.138-.422.4.4,0,0,0,.052-.168c0-.06-.039-.11-.116-.153a5.093,5.093,0,0,0-.868-.272,1.874,1.874,0,0,1,.011.212,5.187,5.187,0,0,1-.063.686,19.86,19.86,0,0,0-.313,2.9,6.579,6.579,0,0,0,.328,2.33c.024.067.056.1.093.1" transform="translate(-142.504 -44.907)" fill="#921b00"/><path d="M261.155,84.611a5.171,5.171,0,0,0-1.267-.73q-.056-.921-.056-2.046a7.578,7.578,0,0,0,1.174-.16c.057-.01.085-.048.085-.116a2.7,2.7,0,0,0-.044-.544c-.013-.065-.037-.1-.075-.1l-.048.008q-.574.094-1.085.138,0-.551.015-.809a.89.89,0,0,1,.064-.268.509.509,0,0,0,.044-.131c0-.059-.046-.1-.138-.13a4.964,4.964,0,0,0-.924-.141,3.405,3.405,0,0,1,.1.745l.007.8q-.366.026-.723.026-.511,0-1.018-.048a4.045,4.045,0,0,0,.056.7c0,.067.05.1.134.1q.324.022.734.022.3,0,.839-.018.015,1.118.03,1.748a3.059,3.059,0,0,0-.607-.06,1.521,1.521,0,0,0-.909.265,1.011,1.011,0,0,0-.119,1.554,1.537,1.537,0,0,0,1.059.324q1.3,0,1.4-.992a4.73,4.73,0,0,1,.824.611l.067.038a.1.1,0,0,0,.071-.045,4.376,4.376,0,0,0,.35-.589.232.232,0,0,0,.023-.075c0-.025-.02-.051-.06-.078m-2.218.257a.678.678,0,0,1-.477.164q-.619,0-.619-.384,0-.366.574-.365a2.179,2.179,0,0,1,.664.1,1.312,1.312,0,0,1,.007.153.435.435,0,0,1-.149.332" transform="translate(-145.02 -44.888)" fill="#921b00"/><path d="M274.269,92.245c.017,0,.054-.024.108-.071l.466-.395a.182.182,0,0,0,.075-.123.215.215,0,0,0-.052-.116,5.805,5.805,0,0,0-1.521-1.4.154.154,0,0,0-.1-.045.165.165,0,0,0-.116.064l-.429.38a.182.182,0,0,0-.052.093c0,.02.022.045.067.075a5.55,5.55,0,0,1,1.446,1.461.125.125,0,0,0,.1.075" transform="translate(-153.784 -50.818)" fill="#921b00"/><path d="M301.237,80.538a.251.251,0,0,0-.175-.108.954.954,0,0,0-.145.056,1.89,1.89,0,0,1-.529.044h-3.272q-.824,0-1.55-.052a7.323,7.323,0,0,0,.138.82.124.124,0,0,0,.138.116q.891-.06,1.349-.06h3.3a4.516,4.516,0,0,1-.555.66,7.924,7.924,0,0,1-.813.674,1.851,1.851,0,0,1,.634.317.287.287,0,0,0,.186.075.227.227,0,0,0,.16-.067,6.381,6.381,0,0,0,1.341-1.476,1.008,1.008,0,0,1,.2-.22.2.2,0,0,0,.108-.16.216.216,0,0,0-.06-.138,3.982,3.982,0,0,0-.458-.48" transform="translate(-166.707 -45.365)" fill="#921b00"/><path d="M297.652,86.875a4.422,4.422,0,0,1-1.036.712,2.236,2.236,0,0,1,.694.388.214.214,0,0,0,.153.071.4.4,0,0,0,.216-.075,3.923,3.923,0,0,0,1.386-1.521,4.936,4.936,0,0,0,.451-2.1.788.788,0,0,1,.071-.313.312.312,0,0,0,.037-.134.143.143,0,0,0-.13-.146,7.259,7.259,0,0,0-.984-.145,3.2,3.2,0,0,1,.075.716,3.826,3.826,0,0,1-.373,1.8,3.051,3.051,0,0,1-.559.746" transform="translate(-167.3 -47.159)" fill="#921b00"/><path d="M318.212,84.731a10.63,10.63,0,0,1-1.58.962,2.114,2.114,0,0,1,.641.5.165.165,0,0,0,.13.067.654.654,0,0,0,.175-.06,11.049,11.049,0,0,0,2.564-2.016,13.847,13.847,0,0,1,1.983,1.893.175.175,0,0,0,.108.06.142.142,0,0,0,.093-.044,4.085,4.085,0,0,0,.51-.522.187.187,0,0,0,.052-.112.166.166,0,0,0-.06-.108,18.693,18.693,0,0,0-2.113-1.845,13.146,13.146,0,0,0,.976-1.427,1.475,1.475,0,0,1,.28-.339.2.2,0,0,0,.1-.153.218.218,0,0,0-.037-.1,2.7,2.7,0,0,0-.5-.537.31.31,0,0,0-.13-.06.145.145,0,0,0-.086.03,1.248,1.248,0,0,1-.525.071h-2.1q-.88,0-1.29-.03a3.646,3.646,0,0,0,.067.793c.017.092.051.136.1.131q.618-.048,1.207-.049l1.968-.007a9.645,9.645,0,0,1-2.542,2.9" transform="translate(-178.59 -45.625)" fill="#921b00"/><path d="M344.159,84.2a3.694,3.694,0,0,1-1.86,1.114,2.582,2.582,0,0,1,.649.466.257.257,0,0,0,.183.093.5.5,0,0,0,.16-.037,4.049,4.049,0,0,0,.88-.462,3.29,3.29,0,0,0,.8-.738,2.785,2.785,0,0,0,.459-.966,5.948,5.948,0,0,0,.164-1.524v-1.42a2.932,2.932,0,0,1,.067-.831.249.249,0,0,0,.03-.123.13.13,0,0,0-.1-.13,4.957,4.957,0,0,0-1-.168,6.722,6.722,0,0,1,.086,1.245v1.442a3.236,3.236,0,0,1-.514,2.039" transform="translate(-193.067 -44.825)" fill="#921b00"/><path d="M342.36,79.931a6.277,6.277,0,0,0-.95-.16,5.707,5.707,0,0,1,.086,1.114V82.38l-.023,1.04v.018c0,.075.048.112.142.112h.615q.164,0,.164-.153-.019-.82-.019-.961V80.893a2.036,2.036,0,0,1,.082-.723.331.331,0,0,0,.034-.116q0-.09-.13-.123" transform="translate(-192.565 -44.993)" fill="#921b00"/><path d="M366.368,85.67h-.037q-.1,0-.824.015-.57.012-.932.011h-2.46a11.308,11.308,0,0,1-1.648-.093,7.307,7.307,0,0,0,.116.928.168.168,0,0,0,.175.16l1.122-.093h2.747q.559,0,1.7.015h.03c.072,0,.108-.038.108-.116.008-.116.011-.236.011-.358s0-.245-.011-.362c0-.072-.033-.108-.1-.108" transform="translate(-203.315 -48.283)" fill="#921b00"/><path d="M389.613,82.432a11.449,11.449,0,0,0-2.427-1.04V80.3a2.521,2.521,0,0,1,.052-.715.4.4,0,0,0,.064-.175c0-.067-.049-.111-.146-.13a5.383,5.383,0,0,0-.954-.123,6.9,6.9,0,0,1,.075,1.13v3.757q0,.764-.03,1.5c0,.077.049.116.146.116s.225.011.339.011.225,0,.339-.011c.092,0,.138-.031.138-.093v-.022q-.03-1.077-.03-1.495V82.361a8.431,8.431,0,0,1,2.005.98.126.126,0,0,0,.086.037c.034,0,.068-.028.1-.085a4.308,4.308,0,0,0,.328-.664l.015-.067c0-.053-.033-.1-.1-.131" transform="translate(-217.83 -44.646)" fill="#921b00"/><path d="M406.894,80.823a3.363,3.363,0,0,0-2.482.977,2.736,2.736,0,0,0-.861,1.987,2.407,2.407,0,0,0,.373,1.379,1.163,1.163,0,0,0,.977.582,1.483,1.483,0,0,0,1.3-.88,9.234,9.234,0,0,0,.954-3.287h.03a1.606,1.606,0,0,1,1.174.48,1.741,1.741,0,0,1,.533,1.29,1.957,1.957,0,0,1-.589,1.495,3.756,3.756,0,0,1-1.715.786,1.6,1.6,0,0,1,.533.481c.069.1.142.156.216.156a.439.439,0,0,0,.112-.018,2.8,2.8,0,0,0,2.352-2.78,2.524,2.524,0,0,0-.671-1.8,2.925,2.925,0,0,0-2.236-.85m-.924,2.221a6.528,6.528,0,0,1-.51,1.312q-.261.466-.574.466-.179,0-.328-.245a1.65,1.65,0,0,1-.19-.846,2.1,2.1,0,0,1,.6-1.413,2.347,2.347,0,0,1,1.3-.693,9.612,9.612,0,0,1-.3,1.42" transform="translate(-227.615 -45.587)" fill="#921b00"/><path d="M426.255,88.742a.793.793,0,0,0,.052-.183c0-.042-.056-.106-.168-.19a2.878,2.878,0,0,1-.41-.392,18.186,18.186,0,0,1-.764,1.756,3.843,3.843,0,0,1-.406.6,4.675,4.675,0,0,0,.589.421.334.334,0,0,0,.138.052c.05,0,.082-.033.1-.1a1.324,1.324,0,0,1,.13-.287q.391-.783.742-1.681" transform="translate(-239.464 -49.622)" fill="#921b00"/><path d="M425.6,84.739c.03.03.054.045.071.045s.038-.017.06-.052l.343-.488a.25.25,0,0,0,.044-.093c0-.01-.015-.03-.044-.059a5.682,5.682,0,0,0-1.085-.779.154.154,0,0,0-.067-.026c-.022,0-.051.021-.085.063l-.321.414a.165.165,0,0,0-.044.089c0,.015.017.032.052.052a5.866,5.866,0,0,1,1.077.835" transform="translate(-239.416 -46.975)" fill="#921b00"/><path d="M433.749,81.041l-1.055.015h-1V79.912a10.709,10.709,0,0,0,1.245-.313,1.771,1.771,0,0,1,.41-.085c.072-.008.108-.04.108-.1a.238.238,0,0,0-.067-.153,4.555,4.555,0,0,0-.507-.492,2.336,2.336,0,0,1-.5.216A10.706,10.706,0,0,1,431,79.3a18.444,18.444,0,0,1-1.975.227,1.763,1.763,0,0,1,.213.5.714.714,0,0,0,.059.157.14.14,0,0,0,.119.045c.03,0,.075,0,.134-.007q.749-.078,1.323-.168v1h-.894l-1.062-.015c-.054,0-.082.025-.082.075v.608a.129.129,0,0,0,.011.067c.007.01.031.015.071.015l1.063-.015h.894v.984h-.466l-.991-.015a.157.157,0,0,0-.075.011c-.013.008-.019.031-.019.071l.015.872v.6l-.015,1.312a.1.1,0,0,0,.011.06.138.138,0,0,0,.082.015h.626c.055,0,.082-.025.082-.075v-.3H432.5v.261c0,.05.028.075.085.075h.649c.054,0,.082-.025.082-.075l-.015-1.3v-.686l.015-.764a.129.129,0,0,0-.011-.067c-.007-.01-.031-.015-.071-.015l-1,.015H431.7v-.984h1l1.055.015c.05,0,.075-.027.075-.082v-.608a.066.066,0,0,0-.075-.075m-1.245,3.6h-2.382V83.46H432.5Z" transform="translate(-241.874 -44.43)" fill="#921b00"/><path d="M426.218,80.333a.15.15,0,0,0,.067.037c.02,0,.043-.02.071-.059l.343-.481a.253.253,0,0,0,.044-.093.091.091,0,0,0-.044-.067,5.763,5.763,0,0,0-1.062-.786.136.136,0,0,0-.063-.026c-.02,0-.047.019-.082.056l-.351.41a.2.2,0,0,0-.052.093c0,.015.017.032.052.052a6.017,6.017,0,0,1,1.077.865" transform="translate(-239.763 -44.478)" fill="#921b00"/><path d="M452.762,85.092l-.9.015h-.633v-.454h.022l1.129.015c.038,0,.061,0,.069-.014s.014-.031.014-.069V84.2a.129.129,0,0,0-.011-.067c-.007-.01-.031-.015-.071-.015l-1.129.015h-.022v-.417h.022l1.129.015c.038,0,.061,0,.069-.013s.014-.032.014-.069v-.392a.127.127,0,0,0-.011-.067c-.007-.01-.031-.015-.071-.015l-1.129.015h-.022v-.426h.5l.868.015a.12.12,0,0,0,.072-.013c.009-.009.013-.032.013-.069v-.4a.13.13,0,0,0-.011-.067.118.118,0,0,0-.075-.015l-.868.015h-.429l.093-.19a.275.275,0,0,1,.067-.1c.047-.044.071-.079.071-.1s-.039-.071-.116-.093q-.335-.094-.611-.153a1.53,1.53,0,0,1-.086.358c-.05.126-.089.221-.119.283h-.887a1.027,1.027,0,0,1,.183-.3q.071-.044.071-.1c0-.04-.041-.071-.123-.093s-.29-.078-.6-.146a2.112,2.112,0,0,1-.182.511,4.474,4.474,0,0,1-.675.988v-.47a.128.128,0,0,0-.011-.067c-.007-.01-.034-.015-.078-.015l-.369.015h-.16v-.9l.336.008.153.007a.138.138,0,0,0,.071-.011.135.135,0,0,0,.015-.082l-.015-.656v-.913l.015-.667a.127.127,0,0,0-.011-.067c-.007-.01-.032-.015-.075-.015l-.678.015h-.7l-.678-.015a.127.127,0,0,0-.067.011c-.01.008-.015.031-.015.071l.015.667v.913l-.015.656a.152.152,0,0,0,.011.075c.007.012.031.018.071.018l.678-.015h.216v2.959l-.29.086V82.983a1.5,1.5,0,0,1,.037-.466.349.349,0,0,0,.048-.138c0-.034-.036-.061-.108-.078a4.335,4.335,0,0,0-.671-.06,4.347,4.347,0,0,1,.044.719v1.916a2.266,2.266,0,0,1-.395.059,4.726,4.726,0,0,0,.2.678c.022.062.058.093.108.093a.223.223,0,0,0,.127-.06.72.72,0,0,1,.276-.123q1.088-.327,1.834-.618a.66.66,0,0,0,.179-.086.218.218,0,0,0,.044-.16c0-.024,0-.058,0-.1,0-.2,0-.338.007-.425q-.294.127-.772.291V83.214h.16l.332.015a1.756,1.756,0,0,1-.131.123,1.723,1.723,0,0,1,.336.287c.075.082.125.123.153.123s.086-.04.16-.119l.123-.138v1.733l-.015.671c0,.055.024.082.075.082h.537a.135.135,0,0,0,.067-.011c.01-.008.015-.031.015-.071v-.261h2.284l.9.015a.157.157,0,0,0,.075-.011c.013-.008.019-.031.019-.071v-.406a.131.131,0,0,0-.011-.067.14.14,0,0,0-.082-.015m-5.091-4.055h-.865V79.931h.865Zm2.892,4.07h-.984v-.454h.984Zm0-.973h-.984v-.417h.984Zm0-.943h-.984v-.425h.984Z" transform="translate(-251.423 -44.709)" fill="#921b00"/><path d="M452.85,81l-.429-.018a.146.146,0,0,0-.075.011c-.013.01-.019.034-.019.075v.38a.14.14,0,0,0,.011.071.139.139,0,0,0,.082.015l.429-.015h.592l.678.015c.052,0,.078-.028.078-.086l-.015-.686V80l.015-.686c0-.057-.026-.086-.078-.086l-.678.019H453l-.578-.019a.151.151,0,0,0-.075.011c-.013.007-.019.032-.019.075v.429a.126.126,0,0,0,.011.067c.01.01.037.015.082.015l.578-.015h.522v.328h-.488l-.514-.015a.13.13,0,0,0-.067.011.137.137,0,0,0-.015.082v.365a.149.149,0,0,0,.011.075c.007.013.031.019.071.019l.514-.019h.488V81Z" transform="translate(-255.126 -44.685)" fill="#921b00"/><path d="M457.728,81l-.432-.018a.134.134,0,0,0-.071.011c-.01.01-.015.034-.015.075v.38a.142.142,0,0,0,.011.071.121.121,0,0,0,.075.015l.432-.015h.633l.667.015a.122.122,0,0,0,.067-.011c.01-.007.015-.032.015-.075l-.015-.686V80l.015-.686a.14.14,0,0,0-.011-.071c-.007-.01-.031-.015-.071-.015l-.667.019h-.481l-.585-.019a.139.139,0,0,0-.071.011.118.118,0,0,0-.015.075v.429a.127.127,0,0,0,.011.067.114.114,0,0,0,.075.015l.585-.015h.537v.328h-.5l-.514-.015a.1.1,0,0,0-.067.015.289.289,0,0,0-.015.123v.32a.151.151,0,0,0,.011.075c.007.013.031.019.071.019l.514-.019h.5V81Z" transform="translate(-257.88 -44.685)" fill="#921b00"/><path d="M474.8,84.536l-.048,0a13.022,13.022,0,0,1-2.329.179,2.3,2.3,0,0,1-.9-.131.52.52,0,0,1-.317-.511q0-.562.9-1.155a11,11,0,0,1,1.793-.891,3.666,3.666,0,0,1,.734-.231c.1-.015.153-.066.153-.153a.3.3,0,0,0-.052-.16,3.814,3.814,0,0,0-.559-.716,1.931,1.931,0,0,1-.525.41l-.525.283q-.332.175-.559.3a11.665,11.665,0,0,1-.246-1.312q-.037-.44-.037-.515l.056-.32c0-.057-.046-.1-.138-.119a4.342,4.342,0,0,0-1-.093,3.66,3.66,0,0,1,.2.887,10.965,10.965,0,0,0,.395,1.86,4.39,4.39,0,0,0-1.006.816,1.731,1.731,0,0,0-.444,1.155q0,1.465,2.206,1.464a17.912,17.912,0,0,0,2.274-.116q.149-.011.138-.126a6.6,6.6,0,0,0-.075-.712c-.013-.065-.042-.1-.089-.1" transform="translate(-265.287 -44.786)" fill="#921b00"/><path d="M173.809,104.625a.137.137,0,0,0-.011-.071.134.134,0,0,0-.082-.015l-.854.015h-1.137l-.854-.015a.151.151,0,0,0-.075.011q-.018.011-.018.075l.015,1.066v.936a11.658,11.658,0,0,1-.134,2.012,3.032,3.032,0,0,1-.477,1.2,3.894,3.894,0,0,1-.909.861,2.043,2.043,0,0,1,.466.38q.126.138.167.138a.432.432,0,0,0,.187-.116,3.732,3.732,0,0,0,.838-.924,4.1,4.1,0,0,0,.518-1.525h1.566v1.465a.305.305,0,0,1-.052.2.33.33,0,0,1-.246.067q-.305,0-.656-.03a1.861,1.861,0,0,1,.213.571.56.56,0,0,0,.071.2q.033.037.22.037a1.744,1.744,0,0,0,1.025-.2.794.794,0,0,0,.22-.626l-.015-1.055v-3.6Zm-.794,3.332h-1.48q.033-.447.045-1h1.435Zm0-1.7H171.58v-.98h1.435Z" transform="translate(-95.475 -58.963)" fill="#921b00"/><path d="M167.121,109.773a.14.14,0,0,0,.011.071.135.135,0,0,0,.082.015h.57a.138.138,0,0,0,.071-.011c.01-.007.015-.032.015-.075l-.015-1.968v-1.312l.015-1.368a.128.128,0,0,0-.011-.067c-.007-.01-.032-.015-.075-.015l-.772.015h-.883l-.771-.015a.141.141,0,0,0-.071.011c-.01.007-.015.031-.015.071l.015,1.588v1.215L165.272,110a.106.106,0,0,0,.011.063c.007.008.031.011.071.011h.589a.2.2,0,0,0,.075-.007c.012-.007.019-.03.019-.067v-.6h1.084Zm-1.084-4.029h1.085v1.114h-1.085Zm0,1.8h1.085v1.163h-1.085Z" transform="translate(-93.218 -59.248)" fill="#921b00"/><path d="M193.421,105.184a.14.14,0,0,0-.011-.071c-.007-.013-.031-.019-.071-.019l-1.055.015h-2.62l-1.051-.015a.138.138,0,0,0-.071.011.125.125,0,0,0-.015.078l.015,1.994v1.476l-.015,2.717a.062.062,0,0,0,.082.082h.682a.124.124,0,0,0,.067-.011c.01-.007.015-.031.015-.071v-.414h3.2v.373a.14.14,0,0,0,.011.071c.007.01.032.015.075.015h.678a.13.13,0,0,0,.067-.011c.01-.007.015-.032.015-.075l-.015-2.683v-1.7Zm-.846,5.017h-3.2v-1.845h3.2Zm0-2.594h-3.2v-1.741h3.2Z" transform="translate(-106.335 -59.277)" fill="#921b00"/><path d="M214.854,104.556a.236.236,0,0,0-.067.015l-.38.138c-.062.022-.093.046-.093.071a.151.151,0,0,0,.022.064,3.137,3.137,0,0,1,.328.712c.017.052.038.078.063.078a.254.254,0,0,0,.082-.026l.414-.146c.065-.02.1-.046.1-.078l-.011-.052a4.736,4.736,0,0,0-.369-.708c-.027-.045-.056-.067-.086-.067" transform="translate(-120.879 -58.973)" fill="#921b00"/><path d="M213.9,107.174q.354,0,.649.011l.1,0c.052,0,.078-.027.078-.082v-.5c0-.055-.027-.082-.078-.082q-.25,0-.854.015l-.283.007a4.951,4.951,0,0,1-.265-.611h.153l.991.015a.124.124,0,0,0,.067-.011c.01-.007.015-.031.015-.071V105.4a.149.149,0,0,0-.011-.075c-.007-.013-.031-.019-.071-.019l-.727.015a4.332,4.332,0,0,0,.306-.5.8.8,0,0,1,.157-.2.155.155,0,0,0,.067-.116c0-.045-.036-.083-.108-.116a6.108,6.108,0,0,0-.611-.205,1.457,1.457,0,0,1-.123.377,6.059,6.059,0,0,1-.373.76h-.436a6.331,6.331,0,0,0,.123-.641,1.468,1.468,0,0,1,.116-.458.483.483,0,0,0,.052-.127q0-.078-.131-.1-.324-.044-.723-.067c0,.077.007.148.007.212a4.553,4.553,0,0,1-.041.518,5.392,5.392,0,0,1-.1.664h-.261l-.991-.015a.121.121,0,0,0-.067.011c-.013.01-.019.037-.019.082v.473a.124.124,0,0,0,.011.067c.01.01.034.015.075.015l.991-.015h.086a6.077,6.077,0,0,1-.231.611l-.2-.007q-.6-.015-.854-.015a.139.139,0,0,0-.071.011c-.01.008-.015.031-.015.071v.5a.13.13,0,0,0,.011.067c.007.01.032.015.075.015l.16,0q.231-.007.533-.011a3.444,3.444,0,0,1-.947.932v-2.594l.015-1.263a.133.133,0,0,0-.011-.068c-.007-.01-.032-.015-.075-.015l-.63.015h-.589l-.615-.015a.14.14,0,0,0-.071.011c-.01.007-.015.031-.015.071l.015,1.263v1.241a19.31,19.31,0,0,1-.1,2.184,4.708,4.708,0,0,1-.376,1.428,1.532,1.532,0,0,1,.436.395c.05.067.093.1.131.1s.069-.043.1-.13a7.368,7.368,0,0,0,.421-2.311h.715v1.442c0,.162-.058.246-.175.254q-.048,0-.1,0c-.087,0-.2-.006-.339-.019a2.02,2.02,0,0,1,.194.518.821.821,0,0,0,.048.179.133.133,0,0,0,.123.048c.02,0,.058,0,.116-.007a1.121,1.121,0,0,0,.611-.153.824.824,0,0,0,.19-.641l-.015-1.07v-.745a1.786,1.786,0,0,1,.212.313c.062.107.108.16.138.16a.352.352,0,0,0,.16-.093l.224-.19v.5c0,.057.025.085.075.085l.865-.015a1.683,1.683,0,0,1-.47.8,2.653,2.653,0,0,1-1.1.533,1.463,1.463,0,0,1,.343.4c.055.092.1.138.145.138a1.2,1.2,0,0,0,.183-.052,2.807,2.807,0,0,0,1.028-.656,2.433,2.433,0,0,0,.582-1.167h.686a3.445,3.445,0,0,1-.119,1.014.305.305,0,0,1-.306.145,3.43,3.43,0,0,1-.589-.056,1.859,1.859,0,0,1,.16.537q.026.171.123.183c.055,0,.167.007.335.007a1.9,1.9,0,0,0,.47-.045.623.623,0,0,0,.428-.35,4.152,4.152,0,0,0,.216-1.413q.011-.347.03-.563c0-.062-.029-.093-.086-.093l-.838.015H212.6l.015-.168a.871.871,0,0,1,.06-.376.2.2,0,0,0,.052-.1c0-.057-.048-.093-.145-.108q-.216-.034-.664-.071a2.754,2.754,0,0,1,.018.313q0,.123-.011.313c-.01.1-.015.162-.015.194h-.1l-.865-.015a4.876,4.876,0,0,0,.917-1.185h1.252a5.326,5.326,0,0,0,1.2,1.435.451.451,0,0,0,.16.1c.037,0,.078-.053.123-.16a1.839,1.839,0,0,1,.283-.488,3.243,3.243,0,0,1-.969-.88m-4.42.551h-.686q.008-.283.007-.939v-.153h.678Zm0-1.789H208.8V104.9h.678Zm2.673.619q.112-.3.2-.619h.253a5.471,5.471,0,0,0,.205.619Z" transform="translate(-117.138 -58.616)" fill="#921b00"/><path d="M234.021,107.548a9.818,9.818,0,0,0-2.751.633,8.358,8.358,0,0,1-1.479.395,4.086,4.086,0,0,0,.488.794c.079.107.153.16.22.16a.384.384,0,0,0,.209-.116q.044-.033.525-.272a7.54,7.54,0,0,1,2.758-.786,1.455,1.455,0,0,1,.928.272,1.068,1.068,0,0,1,.384.887,1.658,1.658,0,0,1-1.055,1.521,7.921,7.921,0,0,1-2.069.563,1.332,1.332,0,0,1,.533.6c.034.092.087.138.157.138a.576.576,0,0,0,.112-.015q.656-.141.928-.22a4.7,4.7,0,0,0,1.01-.414,2.725,2.725,0,0,0,.969-.8,2.227,2.227,0,0,0,.376-1.319,1.912,1.912,0,0,0-.533-1.39,2.289,2.289,0,0,0-1.711-.633" transform="translate(-129.609 -60.66)" fill="#921b00"/><path d="M258.218,114.046a.373.373,0,0,0-.067.008,9.7,9.7,0,0,1-2.069.22,4.219,4.219,0,0,1-1.338-.157q-.473-.168-.473-.559a1.064,1.064,0,0,1,.2-.581l.023-.064c0-.027-.02-.052-.06-.075q-.295-.156-.589-.305a2.113,2.113,0,0,0-.406,1.092,1.25,1.25,0,0,0,.57,1.092,3.609,3.609,0,0,0,2.016.451,12.759,12.759,0,0,0,2.277-.183c.087-.015.131-.048.131-.1v-.015a4.286,4.286,0,0,0-.123-.746.089.089,0,0,0-.093-.078" transform="translate(-142.948 -63.472)" fill="#921b00"/><path d="M256.273,107.719a.335.335,0,0,0,.16.045.325.325,0,0,0,.194-.067,4.806,4.806,0,0,1,1.867-.756c.087-.007.131-.061.131-.16a5.118,5.118,0,0,0-.038-.648.086.086,0,0,0-.093-.086h-.022q-1.092.067-1.617.067a9.541,9.541,0,0,1-2.143-.2c-.022.373-.034.6-.034.679a.124.124,0,0,0,.1.138,7.622,7.622,0,0,0,1.335.13,5.715,5.715,0,0,0,.626-.022q-.377.228-1,.633a1.808,1.808,0,0,1,.533.246" transform="translate(-143.646 -59.739)" fill="#921b00"/><path d="M279.884,109.825l-.048,0a13.022,13.022,0,0,1-2.329.179,2.3,2.3,0,0,1-.9-.131.52.52,0,0,1-.317-.511q0-.562.9-1.155a11,11,0,0,1,1.793-.891,3.665,3.665,0,0,1,.734-.231c.1-.015.153-.066.153-.153a.3.3,0,0,0-.052-.16,3.814,3.814,0,0,0-.559-.716,1.931,1.931,0,0,1-.525.41l-.525.283q-.332.175-.559.3a11.665,11.665,0,0,1-.246-1.312q-.037-.44-.037-.515l.056-.32c0-.057-.046-.1-.138-.119a4.342,4.342,0,0,0-1-.093,3.662,3.662,0,0,1,.2.887,10.968,10.968,0,0,0,.395,1.86,4.389,4.389,0,0,0-1.006.816,1.731,1.731,0,0,0-.444,1.155q0,1.465,2.206,1.464a17.912,17.912,0,0,0,2.274-.116q.149-.011.138-.126a6.6,6.6,0,0,0-.075-.712c-.013-.065-.042-.1-.089-.1" transform="translate(-155.351 -59.05)" fill="#921b00"/><path d="M301.066,106.428a2.252,2.252,0,0,1-.578.41q-.343.175-1.126.537a.841.841,0,0,0-.928-.824,1.38,1.38,0,0,0-.764.235l-.007-.015a9.8,9.8,0,0,0,.57-.846q.9-.1,1.789-.231.131-.018.131-.1v-.022a2.665,2.665,0,0,0-.078-.548c-.012-.054-.039-.082-.078-.082l-.045,0a12.285,12.285,0,0,1-1.39.238q.063-.141.13-.3c.023-.05.039-.087.049-.112a.548.548,0,0,1,.13-.182.135.135,0,0,0,.052-.112.128.128,0,0,0-.093-.13,4.252,4.252,0,0,0-.868-.216,1.95,1.95,0,0,1-.056.466,6.243,6.243,0,0,1-.228.656q-.5.026-.987.026-.4,0-.768-.015.048.484.075.63c.015.082.051.123.108.123q.689,0,1.222-.022a7.873,7.873,0,0,1-1.6,1.893.11.11,0,0,0-.052.082.125.125,0,0,0,.03.071,3.251,3.251,0,0,0,.436.5c.035.035.062.052.082.052s.056-.022.093-.067q.41-.485.764-.831a1.878,1.878,0,0,1,1.055-.552h.044a.366.366,0,0,1,.3.109.738.738,0,0,1,.116.421,4.386,4.386,0,0,0-1.185.82,1.479,1.479,0,0,0-.425,1.039q0,1.26,1.916,1.26a14.988,14.988,0,0,0,1.889-.1c.057,0,.086-.038.086-.116v-.026a2.871,2.871,0,0,0-.071-.626c-.005-.057-.032-.086-.082-.086H300.7a13.585,13.585,0,0,1-1.9.153q-1.058,0-1.058-.525a.735.735,0,0,1,.179-.481,2.347,2.347,0,0,1,.742-.533q-.008.272-.007.928,0,.123.1.123a3.664,3.664,0,0,0,.54-.037q.146-.023.146-.138V108.1q.518-.212,1.64-.607a2.467,2.467,0,0,1,.466-.116c.077-.015.116-.051.116-.108a.322.322,0,0,0-.06-.168,4.224,4.224,0,0,0-.537-.671" transform="translate(-166.771 -58.732)" fill="#921b00"/><path d="M322.982,106.353h-.019q-.525.022-1.151.022h-.269v-.727a2.412,2.412,0,0,1,.06-.671.38.38,0,0,0,.034-.138c0-.06-.046-.1-.138-.119a6.961,6.961,0,0,0-.895-.13,4.574,4.574,0,0,1,.071.887c0,.069,0,.122,0,.157l-.007.749h-1.64v-.555a2.735,2.735,0,0,1,.056-.734.58.58,0,0,0,.045-.16c0-.057-.039-.093-.115-.109a7.769,7.769,0,0,0-.932-.119,6.488,6.488,0,0,1,.093,1.122v.555h-.231q-.868,0-1.4-.037.03.619.052.739c.007.1.037.145.089.145q.6-.037,1.26-.037h.231v.291q0,.6-.041,1.248v.019c0,.052.046.082.138.089s.212.011.332.011.227,0,.324-.011.136-.044.131-.109q-.023-.4-.023-1.263v-.276h1.625a6.284,6.284,0,0,1-.108,1.077,2.822,2.822,0,0,1-.339.869,2.547,2.547,0,0,1-.708.741,4.979,4.979,0,0,1-1.353.611,2.033,2.033,0,0,1,.634.455.223.223,0,0,0,.141.085.717.717,0,0,0,.216-.067,3.59,3.59,0,0,0,1.8-1.42,3.7,3.7,0,0,0,.4-.924,6.712,6.712,0,0,0,.19-1.428h.313l1.1.007h.03c.06,0,.093-.041.1-.123s.011-.2.011-.3,0-.2-.011-.3-.037-.123-.089-.123" transform="translate(-178.537 -58.992)" fill="#921b00"/><path d="M350.407,103.71a.811.811,0,0,0-.551.2.822.822,0,0,0,.551,1.435.8.8,0,0,0,.552-.208.78.78,0,0,0,.272-.607.818.818,0,0,0-.824-.82m.339,1.125a.451.451,0,0,1-.79-.305.451.451,0,0,1,.112-.31.451.451,0,0,1,.79.31.445.445,0,0,1-.112.305" transform="translate(-197.175 -58.495)" fill="#921b00"/><path d="M349.359,111.783a.153.153,0,0,0-.116-.071.161.161,0,0,0-.1.041l-.261.183q-.213.149-.32.227a6.889,6.889,0,0,1,1.163,1.607q.037.071.078.071a.226.226,0,0,0,.1-.041,3.665,3.665,0,0,0,.511-.384.17.17,0,0,0,.078-.122.234.234,0,0,0-.041-.112,5.81,5.81,0,0,0-1.092-1.4" transform="translate(-196.601 -63.009)" fill="#921b00"/><path d="M342.2,107.235h.9q.384,0,1.573.037c.062.005.1-.044.108-.146s.011-.224.011-.35c0-.072,0-.154,0-.246s-.029-.123-.086-.123h-.015q-1.122.048-1.558.048h-.94v-.4a2.139,2.139,0,0,1,.078-.764.325.325,0,0,0,.044-.138c0-.057-.046-.1-.138-.116q-.294-.056-.947-.112a6.185,6.185,0,0,1,.085,1.174v.358H340.1q-.757,0-1.435-.052,0,.182.03.731c0,.1.034.153.1.153q.626-.052,1.32-.052h1.2v2.635a.329.329,0,0,1-.175.336,3.975,3.975,0,0,1-1.04.089,1.873,1.873,0,0,1,.514.69c.042.106.1.16.183.16a2.083,2.083,0,0,0,.977-.253.813.813,0,0,0,.451-.786l-.015-1.327Z" transform="translate(-191.017 -59.18)" fill="#921b00"/><path d="M339.96,112.245c.057-.045.086-.086.086-.123s-.039-.093-.116-.146a3.308,3.308,0,0,0-.794-.351,1.844,1.844,0,0,1-.2.619,5.342,5.342,0,0,1-.925,1.26,2.247,2.247,0,0,1,.649.321.238.238,0,0,0,.119.044.232.232,0,0,0,.149-.089,5.261,5.261,0,0,0,.846-1.278.792.792,0,0,1,.19-.257" transform="translate(-190.646 -62.96)" fill="#921b00"/><path d="M366.368,110.959h-.037q-.1,0-.824.015-.57.012-.932.011h-2.46a11.309,11.309,0,0,1-1.648-.093,7.307,7.307,0,0,0,.116.928.168.168,0,0,0,.175.16l1.122-.093h2.747q.559,0,1.7.015h.03c.072,0,.108-.038.108-.116.008-.116.011-.236.011-.357s0-.245-.011-.362c0-.072-.033-.108-.1-.108" transform="translate(-203.315 -62.546)" fill="#921b00"/><path d="M389.613,107.721a11.449,11.449,0,0,0-2.427-1.04v-1.092a2.521,2.521,0,0,1,.052-.715.4.4,0,0,0,.064-.175c0-.067-.049-.111-.146-.13a5.384,5.384,0,0,0-.954-.123,6.9,6.9,0,0,1,.075,1.13v3.757q0,.764-.03,1.5c0,.077.049.115.146.115s.225.011.339.011.225,0,.339-.011c.092,0,.138-.031.138-.093v-.022q-.03-1.078-.03-1.495V107.65a8.431,8.431,0,0,1,2.005.98.126.126,0,0,0,.086.037c.034,0,.068-.028.1-.085a4.308,4.308,0,0,0,.328-.664l.015-.067c0-.053-.033-.1-.1-.131" transform="translate(-217.83 -58.91)" fill="#921b00"/><path d="M410.8,108.724a5.028,5.028,0,0,1-1.338,1.028,2.952,2.952,0,0,1-1.338.377.741.741,0,0,1-.559-.157,1.394,1.394,0,0,1-.142-.79q0-1.189.115-2.955a5.1,5.1,0,0,1,.1-.928.92.92,0,0,0,.078-.253q0-.1-.183-.145a9.38,9.38,0,0,0-.954-.138,3.6,3.6,0,0,1,.089.868q0,.142-.011.529-.108,2.587-.108,3.3a1.8,1.8,0,0,0,.306,1.167,1.4,1.4,0,0,0,1.129.392,4.114,4.114,0,0,0,1.409-.254,4.282,4.282,0,0,0,1.483-.891.357.357,0,0,0,.153-.238.568.568,0,0,0-.06-.183,2.5,2.5,0,0,1-.175-.727" transform="translate(-229.307 -59.089)" fill="#921b00"/><path d="M429.523,108.99q-.019-.305-.052-1.077.693-.052,1.495-.182c.077-.008.116-.044.116-.108q0-.19-.022-.626c0-.048-.025-.071-.06-.071a.266.266,0,0,0-.063.011q-1.148.175-1.494.2l-.007-.865a16.321,16.321,0,0,0,1.763-.2c.054-.007.082-.048.082-.123a4.033,4.033,0,0,0-.037-.555c-.005-.067-.03-.1-.075-.1l-.056.008a13.812,13.812,0,0,1-1.67.231c0-.06,0-.146.007-.257s0-.174.007-.231a.932.932,0,0,1,.116-.369.158.158,0,0,0,.022-.082.139.139,0,0,0-.108-.145,4.5,4.5,0,0,0-.961-.138,2.433,2.433,0,0,1,.093.511q.014.522.015.742a19.456,19.456,0,0,1-2-.075q.019.407.052.686a.113.113,0,0,0,.13.108,9.505,9.505,0,0,0,1.059.052c.209,0,.464-.005.768-.015l.015.876c-.167.007-.329.011-.488.011a10.27,10.27,0,0,1-1.23-.071,3.814,3.814,0,0,0,.045.648q.011.127.123.127.458.041.995.041.258,0,.578-.007.008.194.037.909-.358-.03-.731-.03a1.9,1.9,0,0,0-1.055.272.93.93,0,0,0-.473.813.894.894,0,0,0,.354.731,1.893,1.893,0,0,0,1.2.335,2.1,2.1,0,0,0,1.11-.235,1.027,1.027,0,0,0,.44-.924,6.124,6.124,0,0,1,1.517.869.119.119,0,0,0,.086.037.117.117,0,0,0,.1-.059,1.718,1.718,0,0,0,.336-.567.331.331,0,0,0,.015-.075.161.161,0,0,0-.067-.108,6.966,6.966,0,0,0-2.024-.921M428.648,110a.848.848,0,0,1-.693.228q-.757,0-.756-.343,0-.4.824-.4a3.065,3.065,0,0,1,.708.089.792.792,0,0,1-.082.429" transform="translate(-240.534 -58.833)" fill="#921b00"/><path d="M452.982,105.5c-.013-.015-.042-.022-.09-.022q-1.319,0-2.344.037c.007-.293.013-.456.015-.488a.739.739,0,0,1,.064-.22.4.4,0,0,0,.067-.175q0-.108-.213-.145a6.671,6.671,0,0,0-.894-.108,3.209,3.209,0,0,1,.093.559c0,.069.005.164.007.283,0,.159.005.276.008.35q-1.752.1-2.367.153-.574.041-.689.041a2.394,2.394,0,0,1-.242-.011,5.174,5.174,0,0,0,.19.768.131.131,0,0,0,.13.108.545.545,0,0,0,.13-.034,1.34,1.34,0,0,1,.228-.056q.987-.137,2.642-.231l.007.779a.881.881,0,0,0-.582-.153,1.152,1.152,0,0,0-.764.268,1.081,1.081,0,0,0-.388.876,1.226,1.226,0,0,0,.268.82.984.984,0,0,0,.794.35.8.8,0,0,0,.716-.306,1.962,1.962,0,0,1-.447.872,3.048,3.048,0,0,1-1.118.808,1.625,1.625,0,0,1,.582.3.427.427,0,0,0,.227.116.778.778,0,0,0,.3-.145,2.794,2.794,0,0,0,1.36-2.464,2.168,2.168,0,0,0-.116-.756q-.007-.466-.007-1.42.388,0,.857,0,.78,0,1.472.022h.03a.087.087,0,0,0,.1-.1c0-.1.007-.2.007-.291s0-.191-.007-.29a.177.177,0,0,0-.022-.093m-3.407,2.9a.517.517,0,0,1-.388.149.475.475,0,0,1-.328-.116.521.521,0,0,1-.16-.406.472.472,0,0,1,.145-.358.507.507,0,0,1,.362-.138.515.515,0,0,1,.347.112.464.464,0,0,1,.156.377.531.531,0,0,1-.134.38" transform="translate(-251.78 -58.872)" fill="#921b00"/><path d="M474.5,109.254h.772l.2-4.543h-1.189Z" transform="translate(-267.511 -59.06)" fill="#921b00"/><rect width="1.085" height="1.028" transform="translate(206.819 50.936)" fill="#921b00"/><path d="M36.423,71.738A35.072,35.072,0,0,0,39.5,73.594c.452.242.906.477,1.365.7.378.187.762.361,1.146.532s.769.336,1.159.492c.776.316,1.56.606,2.356.863-1.113-1.143-2.207-2.267-3.244-3.417-.05-.055-.1-.11-.151-.166-1.08-1.208-2.11-2.429-3.03-3.686-.463-.623-.9-1.256-1.293-1.893-.221-.351-.428-.7-.62-1.056a1.518,1.518,0,0,1-.064-1.011.905.905,0,0,1,.628-.388l.885-.1,2.391-.251c.416-.048.841-.1,1.289-.163s.912-.137,1.473-.264a6.4,6.4,0,0,0,2.484-.635c.112-.054.224-.113.336-.177s.208-.124.31-.192a5.057,5.057,0,0,0,1.863-2.222A7.577,7.577,0,0,0,49,54.718c-.1-.276-.207-.525-.305-.739l-.018-.042c-.083-.207-.171-.4-.263-.6-.073-.151-.146-.3-.223-.442a11.82,11.82,0,0,0-.989-1.524,23.111,23.111,0,0,0-2.138-2.407q-.539-.537-1.1-1.013c-.186-.16-.374-.313-.563-.465l-.284-.223-.262-.2c-.7-.52-1.4-1.028-2.131-1.524-.626-.426-1.274-.835-1.94-1.234-.108-.065-.212-.132-.322-.2l0,0c-.111-.065-.225-.129-.338-.193a22.945,22.945,0,0,0-2.158-1.1c-.452-.2-.922-.383-1.436-.548a9.643,9.643,0,0,0-1.716-.393c-.119-.015-.244-.027-.371-.037l-.071-.006c-.126-.008-.255-.013-.388-.013h-.031c-.064,0-.128,0-.194,0-.161,0-.33.018-.5.039a5.122,5.122,0,0,0-.744.142,4.575,4.575,0,0,0-1.252.553c-.031.02-.064.037-.1.058-.106.07-.215.151-.322.237s-.2.172-.29.259c-.037.036-.071.071-.106.107a4.711,4.711,0,0,0-.349.411,6.672,6.672,0,0,0-.907,1.745c-.183.5-.3.955-.42,1.382-.226.85-.4,1.612-.6,2.3a12.719,12.719,0,0,1-.535,1.562,3.206,3.206,0,0,1-.858,1.108.646.646,0,0,1-.129.063l-.052.016c-.034.01-.068.02-.105.027-.022,0-.046.008-.069.011s-.072.011-.11.014l-.078.006-.119,0-.043,0h-.1c-.057,0-.115,0-.174-.008l-.178-.016-.051-.005-.138-.017-.04-.005-.167-.024L23.18,51.8l-.126-.021-.044-.008-.139-.026-.01,0-.124-.026-.034-.007-.084-.018-.022,0-.08-.019-.017,0-.038-.009-.013,0-.014,0,0,.018q-.3-.093-.606-.2a37.827,37.827,0,0,1-4.325-1.914q-2.157-1.105-4.315-2.331c.508.654,1.049,1.282,1.606,1.9q.42.458.85.91c.289.3.584.592.882.883q.894.877,1.863,1.7a24.254,24.254,0,0,0,2.056,1.561,12.782,12.782,0,0,0,2.45,1.316,6.5,6.5,0,0,0,1.609.412q.124.013.253.021l.078,0c.061,0,.123,0,.187.005s.105,0,.158,0l.087,0c.085,0,.171-.01.26-.02a3.946,3.946,0,0,0,.582-.107c.1-.027.2-.056.3-.093.051-.018.1-.036.153-.058l.142-.06a5.814,5.814,0,0,0,1.593-1.021,7.079,7.079,0,0,0,1.143-1.318,11.9,11.9,0,0,0,1.307-2.673c.182-.5.338-.985.485-1.444.232-.5.569-1,1.009-1.111a1.112,1.112,0,0,1,.166-.027l.052,0c.022,0,.044,0,.067,0l.054,0,.06,0c.042,0,.084.008.126.015l.049.007c.059.011.117.024.176.04l.019.006c.052.014.1.031.156.049l.056.021c.04.014.078.03.117.046l.059.025.114.053.049.023c.052.026.1.053.153.079.409.281.826.594,1.239.926.56.453,1.113.946,1.658,1.458s1.081,1.048,1.6,1.6l.195.207.167.185c.109.124.217.249.32.374.154.187.3.375.435.564a2.1,2.1,0,0,1,.282,1.631c-.184.47-.99.8-1.264.9l-1.513.511c-.82.28-1.655.583-2.559.968-.456.2-.925.405-1.462.692a9.759,9.759,0,0,0-.895.537c-.173.12-.346.244-.554.419-.1.078-.212.184-.32.287-.054.051-.12.12-.177.181l-.088.1-.1.113-.1.117c-.031.04-.061.076-.1.127-.069.1-.135.193-.2.292s-.136.236-.2.357c-.033.065-.054.113-.076.166l-.065.157a4.407,4.407,0,0,0-.268,1.115,5,5,0,0,0,.087,1.54,6.444,6.444,0,0,0,.321,1.059,7.735,7.735,0,0,0,.392.839,13.127,13.127,0,0,0,1.814,2.489,21.99,21.99,0,0,0,2,1.9c.688.574,1.395,1.1,2.109,1.59" transform="translate(-7.441 -23.592)" fill="#f48400"/><path d="M46.084,44.58l-.007.01c-.034.047-.064.092-.1.138a5.279,5.279,0,0,0,.436-.543c-.11.119-.219.249-.332.4" transform="translate(-25.934 -24.921)" fill="#f48400"/><path d="M30.077,60.15A30.076,30.076,0,0,0,30.37,0,21.324,21.324,0,0,1,47.39,8.819a26.334,26.334,0,0,1,4.981,15.606c0,.837-.051,1.664-.132,2.482l.007-.059-.007.059q-.031.307-.068.611c0,.023-.005.045-.008.068A26.228,26.228,0,0,1,48.568,37.9c.14.127.275.247.4.357a.44.44,0,0,0,.177.063,3.528,3.528,0,0,0,1.026-.6.649.649,0,0,1,.095-.061c.6-.477,1.249-1.005,2.024-1.652,1.464-1.224,2.995-2.538,4.679-4.016a.633.633,0,0,1,.416-.159h0a.634.634,0,0,1,.529.983c-1.17,1.923-2.243,3.644-3.282,5.263-.464.721-1.08,1.672-1.74,2.632-.29.42-.609.874-.967,1.341a8.907,8.907,0,0,1-.631.748l-.094.1-.023.024-.029.029-.036.032-.071.063-.136.118-.017.014-.034.026-.041.029-.031.021c-.048.031-.1.062-.148.093a3.07,3.07,0,0,1-.3.153,3.227,3.227,0,0,1-.951.25,3.833,3.833,0,0,1-.412.022c-.076,0-.147,0-.217-.005a5.732,5.732,0,0,1-.814-.105c-.191-.038-.38-.083-.6-.142-.309-.085-.609-.18-.972-.309-.456-.163-.916-.346-1.456-.578a26.627,26.627,0,0,1-9.447,6.3c.945,1.039,1.925,2.049,2.959,3.111l.1.1a.634.634,0,0,1-.454,1.076.624.624,0,0,1-.194-.031c-.779-.251-1.564-.538-2.4-.878-.367-.147-.754-.311-1.181-.5-.375-.167-.776-.349-1.162-.54-.684-.329-1.36-.687-2.026-1.062A26.453,26.453,0,0,1,.006,29.646c0,.143-.006.285-.006.427A30.077,30.077,0,0,0,30.077,60.15" fill="#f48400"/><path d="M75.467,23.044a25.347,25.347,0,0,0-4.712-12.6A20.489,20.489,0,0,0,54.238,1.981h-.093a29.12,29.12,0,0,0-9.766,1.673q-.865.307-1.708.667a29.324,29.324,0,0,1,32.8,18.723" transform="translate(-24.068 -1.117)" fill="#921b00"/><path d="M61.95,38.577A24.46,24.46,0,0,1,64.517,39.9l.044.027c.618-.28,1.238-.55,1.859-.8a22.022,22.022,0,0,1,2.707-.929c.217-.055.429-.1.626-.135a3.887,3.887,0,0,1,.5-.054l.075,0,.021,0,.012,0,.023,0c.1.021.192.04.3.073.207.056.429.137.651.219a27.692,27.692,0,0,1,2.716,1.261c1.809.943,3.595,1.982,5.353,3.064-1.449-1.475-2.935-2.916-4.5-4.3a29.48,29.48,0,0,0-2.5-2c-.231-.158-.464-.315-.726-.465-.126-.076-.269-.149-.412-.221a1.19,1.19,0,0,0-.148-.06c-.055-.02-.114-.042-.163-.055l-.156-.044c-.052-.014-.1-.023-.147-.034a5.576,5.576,0,0,0-1.034-.11l-.18,0c-.249,0-.488.01-.723.026a24.737,24.737,0,0,0-3.275.495c-1.052.221-2.082.476-3.1.749s-2.032.567-3.039.873c-.159.049-.317.1-.475.149a10.371,10.371,0,0,1,1.636.388c.471.151.946.332,1.5.571" transform="translate(-33.175 -19.925)" fill="#921b00"/><path d="M104.586,78.3c-.71.592-1.423,1.178-2.139,1.743l.006-.018a3.948,3.948,0,0,1-1.373.735h-.045a1.094,1.094,0,0,1-.545-.177c-.123-.1-.249-.216-.375-.33-.2-.181-.406-.371-.61-.568-.685-.659-1.369-1.373-2.043-2.1s-1.34-1.48-2-2.24q-.492-.57-.977-1.146l-.067-.08a8.264,8.264,0,0,1-.609,4.907,5.693,5.693,0,0,1-1.817,2.31c.63.342,1.263.681,1.906,1.011.962.493,1.937.972,2.965,1.423l.411.177c.386.163.783.321,1.206.473.289.1.589.2.926.294.17.046.348.091.552.131a4.952,4.952,0,0,0,.724.094c.057,0,.118,0,.183,0a3.263,3.263,0,0,0,.345-.018,2.579,2.579,0,0,0,.764-.2,2.458,2.458,0,0,0,.231-.119c.04-.024.079-.048.117-.074l.029-.019.021-.015.017-.014.131-.113.064-.057.032-.028.023-.024.092-.1a8.454,8.454,0,0,0,.586-.7c.34-.443.645-.877.946-1.313.6-.87,1.166-1.74,1.728-2.614,1.121-1.747,2.211-3.5,3.285-5.269-1.552,1.362-3.116,2.71-4.693,4.028" transform="translate(-51.887 -41.802)" fill="#921b00"/><path d="M34.457,34.057c.112-.147.221-.276.332-.4a5.178,5.178,0,1,0-.436.543c.032-.046.062-.091.1-.138Z" transform="translate(-14.308 -14.399)" fill="#f48400"/></g></svg>