<svg xmlns="http://www.w3.org/2000/svg" width="285.133" height="46.863" viewBox="0 0 285.133 46.863"><g transform="translate(-1674.431 -17702.078)"><path d="M113.057,312.706a8.765,8.765,0,0,1,9.806-3.186l22.392,7.265v29.921L116.8,355.953,99.212,331.747Zm3.548,2.577-11.961,16.464,9.79,13.475,26.427-8.587V319.979l-19.354-6.288a4.385,4.385,0,0,0-4.9,1.593m24.256,28.231v-4.94l-25.287,8.217,2.9,4Z" transform="translate(1575.219 17392.988)" fill="#fbbc27"/><path d="M333.831,319.8h14.991v2.929h-12v9.376h12v2.929h-12v14.685h-2.99Z" transform="translate(1509.172 17389.973)" fill="#474645"/><path d="M375.365,318.754a15.526,15.526,0,0,1,11.377,4.537,15.729,15.729,0,0,1-11.133,26.89,15.314,15.314,0,0,1-11.234-4.557A14.98,14.98,0,0,1,359.8,334.6a15.942,15.942,0,0,1,2.086-7.994,15.415,15.415,0,0,1,13.484-7.852m.133,2.909a12.776,12.776,0,0,0-10.941,6.392,12.971,12.971,0,0,0-1.671,6.535A12.586,12.586,0,0,0,375.5,347.272a12.806,12.806,0,0,0,6.448-1.689,12.1,12.1,0,0,0,4.625-4.621,12.988,12.988,0,0,0,1.66-6.515A12.669,12.669,0,0,0,386.57,328a12.408,12.408,0,0,0-4.676-4.611,12.656,12.656,0,0,0-6.4-1.73" transform="translate(1501.863 17390.268)" fill="#474645"/><path d="M424.853,318.754a15.525,15.525,0,0,1,11.377,4.537,15.729,15.729,0,0,1-11.133,26.89,15.314,15.314,0,0,1-11.234-4.557,14.98,14.98,0,0,1-4.58-11.025,15.942,15.942,0,0,1,2.086-7.994,15.416,15.416,0,0,1,13.484-7.852m.133,2.909a12.776,12.776,0,0,0-10.941,6.392,12.971,12.971,0,0,0-1.671,6.535,12.586,12.586,0,0,0,12.612,12.682,12.806,12.806,0,0,0,6.448-1.689,12.094,12.094,0,0,0,4.625-4.621,12.988,12.988,0,0,0,1.66-6.515,12.67,12.67,0,0,0-1.66-6.442,12.407,12.407,0,0,0-4.676-4.611,12.656,12.656,0,0,0-6.4-1.73" transform="translate(1487.932 17390.268)" fill="#474645"/><path d="M460.986,349.723V319.8h6.2q6.712,0,9.743,1.077a13.032,13.032,0,0,1,6.8,5.289,16.073,16.073,0,0,1,2.451,8.97,15.732,15.732,0,0,1-1.942,7.912A12.451,12.451,0,0,1,479.2,348.1q-3.1,1.627-8.7,1.627Zm2.868-2.827h3.457q6.2,0,8.6-.772a9.93,9.93,0,0,0,5.31-3.952,12.173,12.173,0,0,0,1.932-6.982,12.8,12.8,0,0,0-2.1-7.4,10.55,10.55,0,0,0-5.838-4.208,35.3,35.3,0,0,0-9.255-.854h-2.115Z" transform="translate(1473.377 17389.973)" fill="#474645"/><path d="M185.892,349.722V319.8h4.7a24.371,24.371,0,0,1,5.987.529,8.016,8.016,0,0,1,4.276,2.644,6.954,6.954,0,0,1,1.589,4.557,6.64,6.64,0,0,1-.722,3.1,7.893,7.893,0,0,1-2.349,2.614,9.372,9.372,0,0,1,3.987,3.2,8.1,8.1,0,0,1,1.26,4.547,8.464,8.464,0,0,1-1.3,4.6,8.32,8.32,0,0,1-3.36,3.1,12.907,12.907,0,0,1-5.68,1.027Zm5.7-24.49v6.306h1.245a4.64,4.64,0,0,0,3.094-.874,2.985,2.985,0,0,0,1.01-2.38,2.784,2.784,0,0,0-.96-2.227,4.4,4.4,0,0,0-2.919-.824Zm0,11.391v7.668h1.427q3.549,0,4.784-.9a3.016,3.016,0,0,0,1.234-2.6,3.649,3.649,0,0,0-1.448-3.051q-1.448-1.118-4.814-1.119Z" transform="translate(1550.818 17389.973)" fill="#1a1311"/><path d="M225.459,319.8h5.776l11.507,29.921h-5.919l-2.341-6.163H222.273l-2.434,6.163H213.92Zm2.924,7.933-4.015,10.272h8.005Z" transform="translate(1542.928 17389.973)" fill="#1a1311"/><path d="M273.887,323.575l-4.218,3.722q-2.222-3.092-4.524-3.092a2.755,2.755,0,0,0-1.834.6,1.749,1.749,0,0,0-.713,1.353,2.316,2.316,0,0,0,.509,1.424,38.627,38.627,0,0,0,4.177,3.844q3.259,2.727,3.952,3.438a11.908,11.908,0,0,1,2.455,3.346,8.358,8.358,0,0,1,.724,3.488,7.994,7.994,0,0,1-2.546,6.081,9.276,9.276,0,0,1-6.637,2.4,9.874,9.874,0,0,1-5.569-1.566,12.371,12.371,0,0,1-4.062-4.922l4.787-2.888q2.16,3.967,4.971,3.967a3.662,3.662,0,0,0,2.465-.854,2.542,2.542,0,0,0,1-1.974,3.406,3.406,0,0,0-.754-2.034,21.766,21.766,0,0,0-3.322-3.112q-4.89-3.987-6.316-6.153A7.81,7.81,0,0,1,257,326.321a7.068,7.068,0,0,1,2.373-5.34,8.228,8.228,0,0,1,5.854-2.227,9.234,9.234,0,0,1,4.266,1.037,15.547,15.547,0,0,1,4.389,3.784" transform="translate(1531.194 17390.268)" fill="#1a1311"/><path d="M288.365,319.8H304.7v5.573H294.02v5.41H304.7v5.472H294.02v7.871H304.7v5.594H288.365Z" transform="translate(1521.971 17389.973)" fill="#1a1311"/></g></svg>