<svg xmlns="http://www.w3.org/2000/svg" xmlns:xlink="http://www.w3.org/1999/xlink" width="248.912" height="58.157" viewBox="0 0 248.912 58.157"><defs><clipPath id="a"><rect width="248.912" height="58.157" fill="none"/></clipPath></defs><g clip-path="url(#a)"><path d="M161.915,30.024H158.51V34.01H146.476v2.842h4.562a25.655,25.655,0,0,0,6.6,12.471,22.61,22.61,0,0,1-10.9,4.4v3.125a25.874,25.874,0,0,0,13.356-5.338,25.865,25.865,0,0,0,13.353,5.338V53.723a22.593,22.593,0,0,1-10.9-4.4,25.621,25.621,0,0,0,6.593-12.471h4.555V34.01H161.915Zm-1.826,17.143a21.873,21.873,0,0,1-5.647-10.315h11.291a21.889,21.889,0,0,1-5.643,10.315" transform="translate(-73.78 -15.123)" fill="#474645"/><path d="M209.514,30.1c-.1,6.726-5.3,11.618-7.622,12.577l.007,3.58a16.677,16.677,0,0,0,4.889-3.436l0,14.064h3.18V38.878a20.018,20.018,0,0,0,2.791-8.775Z" transform="translate(-101.693 -15.163)" fill="#474645"/><path d="M230.083,30.023H226.91V52.395c0,2.83.355,3.986,3.761,3.986h6.2c2.323,0,4.363.262,4.363-4.065V46.839l-3.1,0v5.1c0,1.648-.4,1.755-2.431,1.755h-2.478c-3.3,0-3.136-.126-3.136-2.854v-8.54a46.959,46.959,0,0,0,11.189-2.032V36.93a36.143,36.143,0,0,1-11.189,2.349Z" transform="translate(-114.294 -15.123)" fill="#474645"/><path d="M272.742,36.505V33.362a73.592,73.592,0,0,0-9.919-.052v3.144a74.413,74.413,0,0,1,9.919.052" transform="translate(-132.384 -16.702)" fill="#474645"/><path d="M272.675,51.774V48.565a74.576,74.576,0,0,0-9.985-.051v3.147a80.822,80.822,0,0,1,9.985.113" transform="translate(-132.317 -24.36)" fill="#474645"/><path d="M281.91,40.617c.337,14.251-8.694,18.3-19.371,17.64v3.13c12.137.7,23.208-3.915,22.808-20.77Z" transform="translate(-132.241 -20.459)" fill="#474645"/><path d="M322.035,30.024h-3.578l.156,5.279h-6.018l0,3.173h6.114l.542,18.319h3.582l-.543-18.319h12s.464,7.5-6.233,8l.011,3.377C339.054,48.79,338,37.406,338.1,35.3H322.193Z" transform="translate(-157.453 -15.123)" fill="#474645"/><path d="M373.587,49.644a33.017,33.017,0,0,0-.82-8.964h-3.161a37.8,37.8,0,0,1,.659,8.964Z" transform="translate(-186.17 -20.491)" fill="#474645"/><path d="M383.7,49.644h3.321a32.9,32.9,0,0,0-.818-8.964h-3.163a37.821,37.821,0,0,1,.661,8.964" transform="translate(-192.938 -20.491)" fill="#474645"/><path d="M388.158,40.7c.78,13.352-3.836,17.62-13.746,17.775v3.056C389.1,61.4,392.246,52.561,391.539,40.7Z" transform="translate(-188.591 -20.5)" fill="#474645"/><path d="M419.166,32.756c.22,7.944-3.4,9.262-5.277,9.68V45.67c.78-.091,7.838-1.028,8.654-9.794h12.379a40.917,40.917,0,0,1-.382,7.736,52.134,52.134,0,0,0-11.462-1.205v3.282a52.016,52.016,0,0,1,10.664,1.035c-1.94,5.249-6.618,7.836-16.767,7.646v3.091c22.908.841,21.611-13.394,21.611-24.686Z" transform="translate(-208.476 -16.499)" fill="#474645"/><rect width="16.902" height="3.381" transform="translate(232.011 25.811)" fill="#474645"/><rect width="58.157" height="58.157" fill="#0092e5"/><path d="M17.577,56.442c.855-.191,2.6-.117,2.6-3.484V37.383c0-3.372-1.743-3.3-2.6-3.488v-.968c1.086.077,2.868.2,4.106.2.931,0,1.861-.079,2.788-.154s1.863-.156,2.753-.156c4.686,0,7.631,1.743,7.631,5.54,0,3.449-2.711,4.416-4.379,5.038v.077c2.6.579,7.013,1.393,7.013,6.856,0,5.268-4.688,7.206-9.724,7.206-1.045,0-2.054-.077-3.022-.154-1.007-.077-2.015-.157-3.061-.157-1.354,0-2.75.157-4.106.2Zm5.772-13.557h2.52c3.679,0,5.81-1.319,5.81-4.261,0-3.063-2.44-4.185-5.619-4.185a12.619,12.619,0,0,0-2.711.31Zm0,9.955c0,2.129.311,3.059,3.876,3.059,4.8,0,7.09-1.9,7.09-5.46,0-3.836-2.556-5.929-8.446-5.929h-2.52Z" transform="translate(-8.854 -16.527)" fill="#fff"/><path d="M51.891,56.559c2.4-.543,3.6-2.284,5.619-4.609l5.425-6.469-5.192-7.167c-1.9-2.6-2.715-3.988-5.076-4.3v-.968c1.7.041,3.409.2,5.116.2,1.472,0,2.943-.154,4.377-.2v.968c-.97.117-2.17.155-2.17,1.551,0,.969.815,1.819,1.434,2.6l3.487,4.686,4.065-4.959a4.687,4.687,0,0,0,1.434-2.634c0-1.048-1.162-1.124-1.9-1.241v-.968c1.049.041,2.092.2,3.176.2.932,0,1.863-.154,2.793-.2-.234,1.007-.854,1.977-4.262,6.042L65.876,44.32l4.031,5.424c2.789,3.791,4.029,6.467,6.972,6.815v.97c-1.51-.038-3.061-.2-4.57-.2-1.666,0-3.334.157-5,.2v-.97c.579,0,2.208,0,2.208-1.355,0-.89-.774-1.627-1.277-2.365l-4.34-6L59.022,52.8c-.582.733-1.4,1.472-1.4,2.363,0,1.393,1.51,1.354,2.209,1.393v.97c-1.356-.038-2.714-.2-4.069-.2-1.279,0-2.6.157-3.875.2Z" transform="translate(-26.137 -16.644)" fill="#fff"/></g></svg>