<svg xmlns="http://www.w3.org/2000/svg" xmlns:xlink="http://www.w3.org/1999/xlink" width="104.855" height="72.812" viewBox="0 0 104.855 72.812"><defs><clipPath id="a"><rect width="104.855" height="72.812" fill="none"/></clipPath></defs><rect width="104.855" height="72.811" transform="translate(0 0)" fill="#dc000c"/><path d="M183.735,48.864l-8.506,48.984h-6.4l-9.383-48.984h6.37l6,31.441,5.407-31.441Z" transform="translate(-119.838 -36.726)" fill="#fff"/><g clip-path="url(#a)"><path d="M291.254,52.679c0-1.928-1.373-4.122-3.682-4.122H273.181V97.6h14.661c2.918,0,3.413-2.872,3.413-4.618ZM285,89.043a2.08,2.08,0,0,1-2.281,2.25h-2.992V54.555h3.3A1.968,1.968,0,0,1,285,56.562Z" transform="translate(-205.324 -36.496)" fill="#fff"/><path d="M94.114,66.384V51.831a4.344,4.344,0,0,0-4.235-4.552H76.2v49.29H90.017c2.568,0,4.328-1.358,4.328-3.965V75.3c0-2.437-1.9-4.717-3.438-4.717,1.069,0,3.206-1.59,3.206-4.2M87.8,66A1.572,1.572,0,0,1,86.286,67.4H82.44V53.693h3.845A1.81,1.81,0,0,1,87.8,55.405Zm.274,22.033c0,1.772-.7,2.39-2.347,2.39h-3.2V73.827h3.289a2.175,2.175,0,0,1,2.26,2.4Z" transform="translate(-57.275 -35.535)" fill="#fff"/><rect width="4.827" height="6.12" transform="translate(39.783 54.97)" fill="#fff"/><rect width="4.824" height="6.12" transform="translate(59.316 54.97)" fill="#fff"/><rect width="4.815" height="6.12" transform="translate(88.989 54.97)" fill="#fff"/><path d="M364.531,51.512a4.268,4.268,0,1,0,4.262-4.257,4.274,4.274,0,0,0-4.262,4.257m.481,0a3.781,3.781,0,1,1,3.781,3.784,3.787,3.787,0,0,1-3.781-3.784" transform="translate(-273.984 -35.517)" fill="#fff"/><path d="M375.564,57.19V59.4h-.8V54.3h1.658c.935,0,1.905.252,1.905,1.4a1.166,1.166,0,0,1-1.041,1.184v.034c.7.131.777.448.865,1a7.81,7.81,0,0,0,.3,1.474h-1.009a8.556,8.556,0,0,1-.173-.91,1.954,1.954,0,0,0-.288-1.085,1.037,1.037,0,0,0-.747-.21Zm.845-.8c.757-.023.92-.329.92-.726s-.163-.581-.809-.581h-.956v1.307Z" transform="translate(-281.675 -40.809)" fill="#fff"/></g></svg>