<svg xmlns="http://www.w3.org/2000/svg" xmlns:xlink="http://www.w3.org/1999/xlink" width="220.036" height="54.906" viewBox="0 0 220.036 54.906"><defs><clipPath id="a"><rect width="220.036" height="54.907" fill="none"/></clipPath></defs><g clip-path="url(#a)"><path d="M26.939,60.382a9.481,9.481,0,0,1-1.262,12.774q-3.168,2.653-8.834,2.652H0V39.65H16.277q5.511,0,8.627,2.524a8.35,8.35,0,0,1,3.116,6.851,8.275,8.275,0,0,1-1.674,5.305,8.651,8.651,0,0,1-4.455,2.936,8.417,8.417,0,0,1,5.048,3.116m-18.131-6.1h5.769a5.105,5.105,0,0,0,3.322-.952,3.424,3.424,0,0,0,1.159-2.807A3.5,3.5,0,0,0,17.9,47.685a5.018,5.018,0,0,0-3.322-.979H8.808ZM18.723,67.7a3.564,3.564,0,0,0,1.211-2.909A3.729,3.729,0,0,0,18.672,61.8a5.175,5.175,0,0,0-3.477-1.081H8.808V68.7H15.3a5.222,5.222,0,0,0,3.425-1" transform="translate(0 -34.551)" fill="#1d1d1c"/><path d="M271.3,97.327l-18.028,42.39H243.8l6.593-14.628L238.7,97.327h9.837l6.645,17.976,6.593-17.976Z" transform="translate(-208.001 -84.81)" fill="#1d1d1c"/><path d="M530.915,48.3a6.6,6.6,0,0,0-2.807-2.755,9.18,9.18,0,0,0-4.3-.953,8.849,8.849,0,0,0-6.85,2.807,10.651,10.651,0,0,0-2.576,7.494q0,5,2.7,7.8a9.846,9.846,0,0,0,7.442,2.807,9,9,0,0,0,5.486-1.649,9.343,9.343,0,0,0,3.271-4.739H522.107v-6.49h19.161v8.189a17.283,17.283,0,0,1-3.322,6.129A17.541,17.541,0,0,1,532,71.527a18.391,18.391,0,0,1-8.137,1.751,19.265,19.265,0,0,1-9.555-2.343,16.683,16.683,0,0,1-6.541-6.516,19.1,19.1,0,0,1-2.344-9.529,19.253,19.253,0,0,1,2.344-9.554,16.7,16.7,0,0,1,6.515-6.542,19.127,19.127,0,0,1,9.529-2.343,18.52,18.52,0,0,1,10.946,3.141,14.837,14.837,0,0,1,5.9,8.7Z" transform="translate(-440.418 -31.763)" fill="#1d1d1c"/><path d="M810.27,101.072a12.489,12.489,0,0,1,4.559-5.15,11.9,11.9,0,0,1,6.438-1.8,11.062,11.062,0,0,1,5.331,1.236,9.122,9.122,0,0,1,3.529,3.244V94.531h8.807v28.741h-8.807V119.2a9.526,9.526,0,0,1-3.58,3.245,11.065,11.065,0,0,1-5.331,1.236,11.679,11.679,0,0,1-6.387-1.828,12.633,12.633,0,0,1-4.559-5.2,18.974,18.974,0,0,1,0-15.582M828.3,103.7a6.191,6.191,0,0,0-8.91-.025,7.111,7.111,0,0,0-1.828,5.177,7.292,7.292,0,0,0,1.828,5.228,6.131,6.131,0,0,0,8.91.026,8.312,8.312,0,0,0,0-10.4" transform="translate(-704.605 -82.015)" fill="#1d1d1c"/><path d="M1120.782,97.327v28.741h-8.807v-3.915a9.676,9.676,0,0,1-3.631,3.066,11.1,11.1,0,0,1-5.074,1.159,11.365,11.365,0,0,1-5.82-1.468,9.9,9.9,0,0,1-3.915-4.25,14.458,14.458,0,0,1-1.391-6.541V97.327h8.756v15.606a6.306,6.306,0,0,0,1.494,4.482,5.24,5.24,0,0,0,4.018,1.6,5.305,5.305,0,0,0,4.069-1.6,6.31,6.31,0,0,0,1.494-4.482V97.327Z" transform="translate(-951.687 -84.81)" fill="#1d1d1c"/><path d="M1352.141,40.348a12.489,12.489,0,0,1,4.559-5.15,11.9,11.9,0,0,1,6.438-1.8,11.322,11.322,0,0,1,5.177,1.184A9.45,9.45,0,0,1,1372,37.774V24.433h8.807V62.548H1372v-4.12a8.99,8.99,0,0,1-3.529,3.3,11.061,11.061,0,0,1-5.331,1.236,11.771,11.771,0,0,1-6.438-1.828,12.633,12.633,0,0,1-4.559-5.2,17.341,17.341,0,0,1-1.673-7.8,17.179,17.179,0,0,1,1.673-7.778m18.028,2.627a6.191,6.191,0,0,0-8.91-.025,7.112,7.112,0,0,0-1.828,5.177,7.293,7.293,0,0,0,1.828,5.228,6.131,6.131,0,0,0,8.91.026,7.2,7.2,0,0,0,1.829-5.2,7.2,7.2,0,0,0-1.829-5.2" transform="translate(-1176.787 -21.291)" fill="#1d1d1c"/><path d="M1631.077,8.164a4.42,4.42,0,0,1-1.468-3.374,4.482,4.482,0,0,1,1.468-3.425A5.342,5.342,0,0,1,1634.863,0a5.272,5.272,0,0,1,3.734,1.365,4.481,4.481,0,0,1,1.468,3.425,4.419,4.419,0,0,1-1.468,3.374,5.267,5.267,0,0,1-3.734,1.365,5.337,5.337,0,0,1-3.785-1.365m8.164,33.094h-8.808V12.517h8.808Z" transform="translate(-1420.029 0)" fill="#1d1d1c"/></g></svg>