<svg xmlns="http://www.w3.org/2000/svg" width="44.736" height="80.351" viewBox="0 0 44.736 80.351"><g transform="translate(0 0)"><path d="M87.124,352.489v7.688h3.046l1.406-1.405H88.661V356.9h1.224l1.395-1.395H88.661v-1.624H90.77l1.395-1.395Z" transform="translate(-69.164 -279.826)" fill="#fff"/><path d="M0,352.489v7.688H3.113l1.406-1.405H1.537V356.9H2.761l1.395-1.395H1.537v-1.624H3.646l1.395-1.395Z" transform="translate(0 -279.826)" fill="#fff"/><path d="M192.561,352.489v7.688h3.368l1.405-1.405H194.1V356.9h1.225l1.395-1.395H194.1v-1.624h2.11l1.395-1.395Z" transform="translate(-152.866 -279.826)" fill="#fff"/><path d="M113.278,354.824l.417,2.311h-.835Zm.418-2.315h-1.537l-1.388,7.684h1.537l.3-1.664h0l1.132-1.134.506,2.8h1.537l-1.388-7.684Z" transform="translate(-87.936 -279.842)" fill="#fff"/><path d="M61.927,352.509v7.684h3.229l1.405-1.405h-3.1v-6.279Z" transform="translate(-49.161 -279.841)" fill="#fff"/><path d="M25.591,352.509l-.9.9v2.613l2.994,1.528v.946l-.305.305H26.4l-.305-.305v-1.221l-1.537.833v1.182l.9.9h2.862l.9-.9v-2.613l-2.994-1.527V354.2l.3-.3h.982l.305.3v1.331l1.537-.943V353.41l-.9-.9Z" transform="translate(-19.493 -279.841)" fill="#fff"/><path d="M138.505,352.509l-.9.9v5.881l.9.9h2.862l.9-.9V356.32h-2.46l.924.924V358.5l-.3.3h-.982l-.3-.3V354.2l.3-.3h.982l.305.3V355h1.537V353.41l-.9-.9Z" transform="translate(-109.238 -279.841)" fill="#fff"/><path d="M168.289,352.489v5.993l-.3.3H167l-.3-.3v-5.993H165.16v6.787l.9.9h2.862l.9-.9v-6.787Z" transform="translate(-131.114 -279.826)" fill="#fff"/><path d="M30.687,179.4l10.124-10.124v-5.647L25.134,179.307v8.463l5.553-5.552Z" transform="translate(-19.953 -129.895)" fill="#fff"/><path d="M25.134,118.421v8.474l5.553-5.563v-2.82l4.6-4.592-.031-2.785,7.153-7.17v-2.821Z" transform="translate(-19.953 -80.293)" fill="#b58133"/><path d="M25.134,239.709l15.677-15.676V218.39L25.134,234.067Z" transform="translate(-19.953 -173.37)" fill="#fff"/><path d="M117.373,92.7,127.5,82.577V88.24l-10.124,10.1v5.642L133.049,88.31V71.374L117.373,87.058Z" transform="translate(-93.177 -56.66)" fill="#fff"/><path d="M136.485,0,117.373,19.113v8.464l5.553-5.553V19.2L127.5,14.63V11.81l8.988-8.988Z" transform="translate(-93.177 0)" fill="#b58133"/></g></svg>