<svg xmlns="http://www.w3.org/2000/svg" xmlns:xlink="http://www.w3.org/1999/xlink" width="152.878" height="78.027" viewBox="0 0 152.878 78.027"><defs><clipPath id="a"><rect width="152.878" height="78.027" fill="none"/></clipPath></defs><g clip-path="url(#a)"><path d="M120.7.032a28.222,28.222,0,1,0,26.869,29.514A28.221,28.221,0,0,0,120.7.032m26.167,29.489A27.409,27.409,0,1,1,120.771.859a27.409,27.409,0,0,1,26.094,28.662" transform="translate(-42.938 0)" fill="#1a1311"/><path d="M148.219,71.66l1.556-.568-2.253-.7a2,2,0,0,0-.6-.116l-.1.018-.976.167,1.245.988a1.181,1.181,0,0,0,1.131.207" transform="translate(-68.698 -33.104)" fill="#1a1311"/><path d="M152.537,74.711l1.741-.887-1.395-.953a.857.857,0,0,0-.921-.148l-1.85.709,1.332,1.179a.837.837,0,0,0,1.093.1" transform="translate(-70.71 -34.22)" fill="#1a1311"/><path d="M155.811,78.319l2.415-.873-1.055-1.079a.967.967,0,0,0-1.141-.251l-1.9.851.718.985a.756.756,0,0,0,.961.366" transform="translate(-72.603 -35.812)" fill="#1a1311"/><path d="M158.061,82.665l3.09-.546-.9-1.359a1.006,1.006,0,0,0-1.22-.514l-2.34.743.229,1.139c.074.556.492.65,1.144.536" transform="translate(-73.807 -37.776)" fill="#1a1311"/><path d="M158.406,87.241l4.243-.521-.629-1.329c-.269-.47-.568-.771-1.1-.658l-3.517.631-.034,1.273c-.033.61.5.671,1.036.6" transform="translate(-74.128 -39.902)" fill="#1a1311"/><path d="M158.556,91.825l4.417.79.007-1.433-.114-.627c-.224-.94-.708-1.139-1.249-1.059l-4.379.541-.108.867c-.079.529.625.779,1.426.922" transform="translate(-74.012 -42.149)" fill="#1a1311"/><path d="M162.2,95.9l-.043.3-2.861,1.357-3.04-1.521c-.493-.248-.688-.438-.423-.879l.463-.984,4.867.972c.634.138,1.086.419,1.036.76" transform="translate(-73.347 -44.358)" fill="#1a1311"/><path d="M153.66,98.894l.988,1.219,1.526-.342,1.265-.369-3.3-1.86-.556.577c-.206.19-.253.375.073.776" transform="translate(-72.269 -45.946)" fill="#1a1311"/><path d="M149.527,66.714l1.308.332-.289-1.214c-.065-.269-.186-.34-.44-.307l-2.492.28.812.5a4.587,4.587,0,0,0,1.1.405" transform="translate(-69.533 -30.862)" fill="#1a1311"/><path d="M156.252,66.5l-.006,1.635-1.426-.722a.923.923,0,0,1-.6-.733l-.238-1.323,1.672.327a.741.741,0,0,1,.6.816" transform="translate(-72.531 -30.784)" fill="#1a1311"/><path d="M161.307,68.2l-.455,2.266-1.04-.864c-.526-.437-.63-.708-.586-1l.082-2.022,1.554.657a.774.774,0,0,1,.445.965" transform="translate(-74.998 -31.359)" fill="#1a1311"/><path d="M166.085,71.588l-1.134,2.379-1.023-1.141a1.067,1.067,0,0,1-.313-1.307l.624-2.327,1.4,1.042a1.074,1.074,0,0,1,.445,1.355" transform="translate(-77.022 -32.592)" fill="#1a1311"/><path d="M169.744,75.58l-1.47,2.745-1.04-1.49a.978.978,0,0,1-.119-1.275l1.335-2.69,1.206,1.356c.375.421.43.717.088,1.354" transform="translate(-78.632 -34.325)" fill="#1a1311"/><path d="M172.794,80.588l-1.856,2.5-.569-1.388a1.254,1.254,0,0,1,.149-1.342l1.569-2.891.94,1.549a1.374,1.374,0,0,1-.233,1.57" transform="translate(-80.191 -36.491)" fill="#1a1311"/><path d="M175.06,84.255l-.553-1.671-2.163,2.805a1.234,1.234,0,0,0-.305,1.161l.187.7.171.774,2.217-1.871a2.424,2.424,0,0,0,.447-1.894" transform="translate(-81.018 -38.9)" fill="#1a1311"/><path d="M165.029,48.065l1.119.051-.706-.987c-.22-.3-.334-.464-.655-.511l-.979-.187.648,1.24c.171.341.305.381.573.393" transform="translate(-77.161 -21.872)" fill="#1a1311"/><path d="M167.027,52.051l1.6.02-.846-1.227c-.266-.385-.423-.511-.774-.522l-1.331-.059.572,1.221a.714.714,0,0,0,.783.568" transform="translate(-78.039 -23.676)" fill="#1a1311"/><path d="M169.088,56.611l1.949-.026-.827-1.438c-.228-.4-.431-.563-.8-.547l-1.657.038.558,1.456c.158.477.379.523.782.518" transform="translate(-79.017 -25.718)" fill="#1a1311"/><path d="M171.017,62.11l2.154.056-.683-1.739c-.247-.627-.616-.934-1.12-.923l-1.895-.019.369,1.715c.131.664.476.891,1.176.909" transform="translate(-79.829 -28.02)" fill="#1a1311"/><path d="M171.561,67.943l2.82.147-.334-1.6c-.139-.663-.42-.791-.978-.874l-2.4-.088.125,1.61c.067.579.15.714.763.8" transform="translate(-80.394 -30.867)" fill="#1a1311"/><path d="M174.822,72.125,175,73.63l-2.626-.058-1.3-1.6.006-.917,2.946.122c.492.024.736.378.8.947" transform="translate(-80.581 -33.471)" fill="#1a1311"/><path d="M176.62,77.988l.013.7-.2,2.346-.631-1.749-1.431-2.319,1.63.08c.482.03.611.386.621.939" transform="translate(-82.136 -36.255)" fill="#1a1311"/><path d="M168.507,43.507l-.273.994-.8-.772a1.2,1.2,0,0,1-.273-.407l-.279-.986,1.444.72a.416.416,0,0,1,.185.451" transform="translate(-78.607 -19.942)" fill="#1a1311"/><path d="M172.163,45.664l-1.008,1.5-.907-1.113a.528.528,0,0,1-.146-.529l.433-1.349,1.563.863c.245.144.15.5.065.629" transform="translate(-80.113 -20.807)" fill="#1a1311"/><path d="M175.577,48.629l-1.6,1.958-.842-1.282c-.187-.286-.209-.406,0-.7l1.229-1.808,1.143.865a.613.613,0,0,1,.063.967" transform="translate(-81.486 -22.043)" fill="#1a1311"/><path d="M178.853,52.522l-2.214,2.193-.868-1.642c-.135-.3-.177-.321.045-.577l1.954-2.328,1.293,1.327c.33.351.26.562-.211,1.027" transform="translate(-82.743 -23.632)" fill="#1a1311"/><path d="M184.353,77.463l-1.934.394-.033-1.958c0-.307.078-.438.535-.654l3.549-1.668.024.79L185.2,76.7c-.354.614-.461.682-.845.76" transform="translate(-85.912 -34.658)" fill="#1a1311"/><path d="M185.42,69.765l-3.2,1.542-.138-1.609c-.05-.577-.015-.685.474-1.085l3.207-2.673a10.357,10.357,0,0,1,.428,1.714c.059.4.085.8.1,1.108.031.681-.467.808-.871,1" transform="translate(-85.76 -31.061)" fill="#1a1311"/><path d="M184.095,62.99l-2.864,2.476-.566-2.225c-.116-.456-.118-.543.3-.966l2.678-2.7.907,2.026c.32.773.176.851-.453,1.395" transform="translate(-85.07 -28.06)" fill="#1a1311"/><path d="M181.438,87l.381.015-1.046,1.019.416-.883a.264.264,0,0,1,.25-.151" transform="translate(-85.152 -40.982)" fill="#1a1311"/><path d="M191.413,70.449l-.7,1.845-.006-2.287.6.145c.156.048.168.132.106.3" transform="translate(-89.831 -32.976)" fill="#1a1311"/><path d="M163.356,41.9s4.871,3.633,7.826,11.814c2.234,6.188,1.221,11.713.3,13.7L170.083,68.7s3.519-6.777-.252-16.24c-2.283-5.723-7.295-10.666-7.295-10.666Z" transform="translate(-76.562 -19.686)" fill="#1a1311"/><path d="M157.4,83.581l1.614-.9s.339-3.009-2.245-7.315-6.14-7.419-11.65-7.516l-.733.412a14.952,14.952,0,0,1,7.6,3.057c2.945,2.5,6.455,7.857,5.417,12.259" transform="translate(-68.011 -31.962)" fill="#1a1311"/><path d="M172.748,91.917l.008.907,1.219-.868a1.485,1.485,0,0,0,.591-.787l.373-1.2Zm.234.745-.025.017.03-.751.026-.043Zm.12-.39-.025.007.028-.663.025-.022Zm.317-.022-.024,0,.006-.491-.162.094-.026.645-.025.019.04-1.008.026-.023-.014.344.161-.094h0l.033-.018Zm.117.017-.025.017.043-1.063.025-.023Z" transform="translate(-81.372 -42.381)" fill="#1a1311"/><path d="M187.294,27.5l.659,1.336-1.78-.5a.56.56,0,0,1-.235-.129,1.469,1.469,0,0,1-.068-.45l.017-.785,1,.147c.24.01.333.233.4.377" transform="translate(-87.553 -12.709)" fill="#1a1311"/><path d="M188.51,31.875c.223.528.549,1.31.678,1.761L186.5,32.9a.877.877,0,0,1-.679-.963l.028-1.2,1.943.472c.354.053.522.2.716.661" transform="translate(-87.529 -14.481)" fill="#1a1311"/><path d="M189.525,37.387l.5,1.839-3.5-.865c-.574-.122-.856-.531-.8-1.233l.005-1.34,3.06.8a.952.952,0,0,1,.732.8" transform="translate(-87.483 -16.857)" fill="#1a1311"/><path d="M190.085,43.4l.238,1.709-3.874-1.062c-.7-.158-1.057-.555-1.025-1.075l.053-1.426,3.753.932a.946.946,0,0,1,.854.923" transform="translate(-87.342 -19.568)" fill="#1a1311"/><path d="M190.291,49l.089,1.824-4.246-1.607c-.652-.254-1.048-.525-.981-1.24l.092-1.208,4.207,1.228a.969.969,0,0,1,.839,1" transform="translate(-87.212 -22.028)" fill="#1a1311"/><path d="M185.921,54.546l3.982,1.72.15-1.7a1,1,0,0,0-.753-1.095l-4.541-1.775-.172.812a2.668,2.668,0,0,0,1.335,2.042" transform="translate(-86.947 -24.349)" fill="#1a1311"/><path d="M188.779,61.138l1.59.679.331-1.33a.812.812,0,0,0-.542-.956L186.775,58.1l.985,2.005a1.788,1.788,0,0,0,1.019,1.032" transform="translate(-87.98 -27.368)" fill="#1a1311"/><path d="M190.726,67.227l.455.117.32-1.278a.615.615,0,0,0-.348-.788l-1.319-.563.412,1.975a.563.563,0,0,0,.479.537" transform="translate(-89.421 -30.484)" fill="#1a1311"/><path d="M181.665,57.095,179.17,59.66l-.8-1.863c-.181-.424-.259-.554.16-.956l2.5-2.461.873,1.546c.27.485.178.739-.24,1.168" transform="translate(-83.954 -25.615)" fill="#1a1311"/><path d="M182.117,82.774a3.026,3.026,0,0,0-.075.444c-.059.389-.2.917-.2.917l.754.008,1.769-2.316-1.509.325a.778.778,0,0,0-.741.623" transform="translate(-85.657 -38.544)" fill="#1a1311"/><path d="M185.917,24.97l.915.186-.871-1.273Z" transform="translate(-87.575 -11.25)" fill="#1a1311"/><path d="M150.36,101.158l-.075.434,2.271-.266-1.17-1.58-.691.718a1.015,1.015,0,0,0-.335.693" transform="translate(-70.791 -46.985)" fill="#1a1311"/><path d="M142.763,67.954a3.4,3.4,0,0,0,2.638.351l.366-.618s-.142-1.03-3,.267" transform="translate(-67.248 -31.701)" fill="#1a1311"/><path d="M161.12,41.452s1.358,2.876,2.6,2.22l.245-.785s.261-1.353-2.849-1.435" transform="translate(-75.895 -19.526)" fill="#1a1311"/><path d="M158.1,37.72l-1.266-1.067.517,2.3a1.943,1.943,0,0,0,.2.582l.064.078.629.763.24-1.57a1.184,1.184,0,0,0-.384-1.085" transform="translate(-73.876 -17.265)" fill="#1a1311"/><path d="M158.65,32.117l-1.634-1.07-.135,1.685a.859.859,0,0,0,.33.873l1.536,1.252.36-1.742a.837.837,0,0,0-.456-1" transform="translate(-73.894 -14.625)" fill="#1a1311"/><path d="M160.088,27.43l-1.958-1.661-.413,1.451a.967.967,0,0,0,.35,1.115l1.683,1.223.5-1.112a.756.756,0,0,0-.159-1.016" transform="translate(-74.268 -12.138)" fill="#1a1311"/><path d="M162.577,22.809l-2.009-2.41-.729,1.459A1,1,0,0,0,160,23.172l1.807,1.661.875-.765c.445-.34.32-.75-.1-1.258" transform="translate(-75.212 -9.609)" fill="#1a1311"/><path d="M165.908,19.566l-2.561-3.422-.841,1.208c-.275.467-.386.875-.025,1.279l2.3,2.738,1.12-.6c.545-.274.335-.764.009-1.2" transform="translate(-76.429 -7.605)" fill="#1a1311"/><path d="M169.374,16.219l-1.511-4.226-1.247.708-.488.408c-.7.664-.635,1.181-.3,1.612l2.646,3.53.808-.338c.5-.194.364-.929.09-1.7" transform="translate(-77.998 -5.649)" fill="#1a1311"/><path d="M171.523,11.065l.276-.107,2.6,1.807.19,3.394c.031.551-.036.815-.551.8l-1.084.088-1.577-4.706c-.2-.618-.175-1.152.146-1.278" transform="translate(-80.667 -5.162)" fill="#1a1311"/><path d="M179.8,18.935l.565-1.463-1.055-1.155-.949-.915.024,3.785.777.2c.266.085.451.032.637-.45" transform="translate(-84.016 -7.256)" fill="#1a1311"/><path d="M153.074,39.279l-.362-1.3-.909.855a.336.336,0,0,0-.048.535l1.482,2.021.034-.955a4.546,4.546,0,0,0-.2-1.155" transform="translate(-71.431 -17.89)" fill="#1a1311"/><path d="M150.206,33.737l1.421-.807.083,1.6a.919.919,0,0,1-.336.887l-1.03.866-.546-1.614a.74.74,0,0,1,.409-.927" transform="translate(-70.538 -15.512)" fill="#1a1311"/><path d="M149.473,28.5l2.191-.732-.232,1.333c-.117.673-.3.9-.579,1.006l-1.794.935-.2-1.675a.774.774,0,0,1,.616-.867" transform="translate(-70.115 -13.08)" fill="#1a1311"/><path d="M149.945,22.428l2.628-.2-.482,1.457c-.206.626-.391.805-.978.92l-2.33.616.208-1.735c.091-.577.373-1.015.954-1.059" transform="translate(-70.084 -10.471)" fill="#1a1311"/><path d="M151.241,17.04l3.112-.09-.775,1.643a.981.981,0,0,1-1.049.738l-3,.179.577-1.72c.179-.535.41-.73,1.132-.751" transform="translate(-70.436 -7.984)" fill="#1a1311"/><path d="M153.923,11.988l3.094.367-.921,1.183a1.256,1.256,0,0,1-1.238.538l-3.29.078.876-1.588a1.376,1.376,0,0,1,1.478-.577" transform="translate(-71.396 -5.638)" fill="#1a1311"/><path d="M155.685,7.929,154.51,9.24l3.508.482a1.238,1.238,0,0,0,1.161-.312l.511-.509.587-.533-2.726-.994a2.433,2.433,0,0,0-1.866.555" transform="translate(-72.781 -3.453)" fill="#1a1311"/><path d="M130.043,35.71l-.51-1-.506,1.1c-.149.34-.237.522-.118.825l.324.941.755-1.178a.551.551,0,0,0,.055-.694" transform="translate(-60.696 -16.352)" fill="#1a1311"/><path d="M132.209,31.467l-.778-1.394-.643,1.344c-.2.421-.233.622-.068.933l.611,1.184.774-1.1a.716.716,0,0,0,.1-.964" transform="translate(-61.525 -14.166)" fill="#1a1311"/><path d="M134.932,27.074l-.991-1.678-.837,1.433c-.23.394-.275.653-.075.97l.856,1.419.987-1.208a.646.646,0,0,0,.061-.936" transform="translate(-62.603 -11.963)" fill="#1a1311"/><path d="M138.634,22.043l-1.022-1.9-1.17,1.458a1.182,1.182,0,0,0-.242,1.431l.926,1.654,1.3-1.173a1.017,1.017,0,0,0,.2-1.473" transform="translate(-64.086 -9.49)" fill="#1a1311"/><path d="M143.267,18.716l-1.276-2.52-1.221,1.085a.938.938,0,0,0-.272,1.283l1.115,2.123,1.334-.908c.47-.347.546-.486.32-1.063" transform="translate(-66.115 -7.629)" fill="#1a1311"/><path d="M145.094,13.632l1.22-.9,1.254,2.306-.742,1.925-.8.45L144.67,14.8c-.223-.439-.038-.826.424-1.166" transform="translate(-68.102 -5.998)" fill="#1a1311"/><path d="M149.853,9.936l.6-.36,2.135-.992L151.388,10l-1.3,2.4-.741-1.454c-.213-.434.031-.721.507-1.007" transform="translate(-70.312 -4.043)" fill="#1a1311"/><path d="M124.613,35.507l1-.257-.27,1.082a1.181,1.181,0,0,1-.217.438l-.717.734-.093-1.611a.416.416,0,0,1,.3-.386" transform="translate(-58.558 -16.604)" fill="#1a1311"/><path d="M124.523,30.994l1.8.128-.514,1.341c-.09.208-.172.348-.387.391l-1.386.295-.028-1.784c0-.286.363-.381.514-.37" transform="translate(-58.414 -14.599)" fill="#1a1311"/><path d="M125.015,26.011l2.493.41-.694,1.368c-.154.3-.249.382-.609.346l-2.18-.168.184-1.422c.045-.383.322-.615.807-.534" transform="translate(-58.421 -12.245)" fill="#1a1311"/><path d="M126.442,20.459l3,.83-.993,1.57c-.193.267-.191.314-.523.249l-2.992-.54.508-1.782c.141-.461.358-.5,1-.328" transform="translate(-58.851 -9.592)" fill="#1a1311"/><path d="M144.474,3.327l1.3,1.482-1.684,1c-.263.157-.418.151-.833-.138l-3.211-2.251.673-.414,2.67-.035c.709,0,.822.061,1.079.355" transform="translate(-65.97 -1.4)" fill="#1a1311"/><path d="M137.435,5.133l2.93,2.01-1.328.92a.931.931,0,0,1-1.177.127l-3.914-1.454a10.4,10.4,0,0,1,1.274-1.223,11.108,11.108,0,0,1,.912-.637c.576-.366.934,0,1.3.257" transform="translate(-63.095 -2.224)" fill="#1a1311"/><path d="M132.507,9.9l3.572,1.255-1.649,1.6c-.337.326-.412.372-.986.222L129.765,12l1.307-1.794c.513-.663.651-.576,1.435-.3" transform="translate(-61.125 -4.567)" fill="#1a1311"/><path d="M155.56,3.853l-.175-.338,1.4.4-.974.078a.263.263,0,0,1-.255-.142" transform="translate(-73.193 -1.656)" fill="#1a1311"/><path d="M136.525,3.226l1.949-.309L136.492,4.06l-.173-.593c-.036-.16.031-.212.206-.24" transform="translate(-64.208 -1.374)" fill="#1a1311"/><path d="M125.577,24.531s.732-6.034,6.361-12.664c4.259-5.016,9.556-6.884,11.743-7.071l1.81.572s-7.63.315-13.967,8.292c-3.832,4.826-5.629,11.632-5.629,11.632Z" transform="translate(-59.152 -2.259)" fill="#1a1311"/><path d="M163.243,9.361l-1.581-.954s-2.778,1.2-5.23,5.585-3.383,9.015-.73,13.844l.722.432a14.943,14.943,0,0,1-1.125-8.112c.7-3.8,3.608-9.507,7.944-10.8" transform="translate(-72.589 -3.96)" fill="#1a1311"/><path d="M163.047,6.716a1.486,1.486,0,0,0-.977-.122l-1.225.271,2.777.936.784-.46Zm-.46.72.948-.5.029.014-.945.491Zm.409.139.3-.158-.161-.093h0l-.01-.006-.007,0-.015-.01.471-.252.011.023-.43.238.161.093.574-.3.027.013-.894.465Zm.157.054.6-.314.017.019-.589.306Zm.36-.043h-.05l.69-.359.027.013Z" transform="translate(-75.765 -3.089)" fill="#1a1311"/><path d="M101.1,26.734l.83-1.235.456,1.791a.557.557,0,0,1,0,.269c-.04.09-.357.282-.357.282l-.691.376-.37-.944c-.112-.213.036-.406.126-.538" transform="translate(-47.544 -12.011)" fill="#1a1311"/><path d="M104.089,22.054c.348-.456.863-1.128,1.191-1.465l.7,2.7a.875.875,0,0,1-.5,1.068l-1.054.572L103.872,23c-.13-.333-.086-.552.217-.95" transform="translate(-48.896 -9.698)" fill="#1a1311"/><path d="M108.16,17.47l1.346-1.349.988,3.464a1.01,1.01,0,0,1-.671,1.308l-1.165.663-.825-3.055a.956.956,0,0,1,.327-1.031" transform="translate(-50.774 -7.594)" fill="#1a1311"/><path d="M112.844,13.479l1.365-1.056,1,3.889c.213.69.044,1.193-.424,1.425l-1.263.661-1.058-3.72a.947.947,0,0,1,.377-1.2" transform="translate(-52.943 -5.852)" fill="#1a1311"/><path d="M117.619,10.042l1.539-.984.716,4.483c.1.692.066,1.17-.588,1.469l-1.093.521-1.028-4.261a.969.969,0,0,1,.454-1.227" transform="translate(-55.162 -4.267)" fill="#1a1311"/><path d="M124.882,10.778l-.487-4.31-1.553.717a1.006,1.006,0,0,0-.576,1.2l.718,4.821.79-.254a2.667,2.667,0,0,0,1.108-2.172" transform="translate(-57.583 -3.047)" fill="#1a1311"/><path d="M129.518,6.737l-.2-1.718L128,5.395a.811.811,0,0,0-.56.946l.441,3.645,1.25-1.852a1.783,1.783,0,0,0,.39-1.4" transform="translate(-60.025 -2.364)" fill="#1a1311"/><path d="M134.079,4.24l-.125-.453-1.268.355a.616.616,0,0,0-.51.694l.167,1.424,1.51-1.339a.562.562,0,0,0,.227-.681" transform="translate(-62.258 -1.784)" fill="#1a1311"/><path d="M128.706,15.419l3.464.89-1.22,1.615c-.277.368-.351.5-.909.337l-3.376-.943.907-1.527c.287-.476.552-.52,1.134-.372" transform="translate(-59.665 -7.227)" fill="#1a1311"/><path d="M150.886,4.233a3.054,3.054,0,0,0,.423-.156c.367-.141.894-.284.894-.284l-.368-.659-2.89-.383L149.979,3.9a.775.775,0,0,0,.907.334" transform="translate(-70.16 -1.296)" fill="#1a1311"/><path d="M99.939,30.351l-.293-.885-.672,1.389Z" transform="translate(-46.621 -13.88)" fill="#1a1311"/><path d="M183.255,22.144l.412-.151-1.359-1.839-.789,1.8.967.242a1.011,1.011,0,0,0,.769-.053" transform="translate(-85.504 -9.493)" fill="#1a1311"/><path d="M157.564,45.2a3.4,3.4,0,0,0-1.008-2.465l-.717-.009s-.824.635,1.724,2.474" transform="translate(-73.348 -20.128)" fill="#1a1311"/><path d="M125.962,41.95s1.821-2.609.632-3.362l-.8.177s-1.3.446.171,3.185" transform="translate(-59.002 -18.177)" fill="#1a1311"/><path d="M124.408,46.779l-.288,1.631,1.729-1.6a1.913,1.913,0,0,0,.4-.465l.035-.1.344-.927-1.478.582a1.178,1.178,0,0,0-.746.875" transform="translate(-58.466 -21.348)" fill="#1a1311"/><path d="M119.22,48.72l-.105,1.951,1.525-.728a.86.86,0,0,0,.589-.725l.312-1.957-1.687.563a.836.836,0,0,0-.634.9" transform="translate(-56.109 -22.262)" fill="#1a1311"/><path d="M114.3,49.678l-.453,2.527,1.461-.372a.966.966,0,0,0,.789-.863l.213-2.069-1.211.129c-.447.052-.719.2-.8.647" transform="translate(-53.629 -23.035)" fill="#1a1311"/><path d="M108.863,49.125l-1.075,2.946,1.628-.1a1.007,1.007,0,0,0,1.056-.8l.529-2.4-1.1-.372c-.518-.215-.81.1-1.037.723" transform="translate(-50.773 -22.768)" fill="#1a1311"/><path d="M104.3,46.913l-1.674,3.933,1.466.122c.542,0,.95-.106,1.119-.622l1.215-3.361-1.085-.666c-.51-.333-.829.095-1.041.595" transform="translate(-48.34 -21.763)" fill="#1a1311"/><path d="M99.132,44.984l-2.9,3.429,1.238.723.6.216c.926.276,1.339-.044,1.543-.552l1.724-4.061-.7-.528c-.418-.332-.987.151-1.512.773" transform="translate(-45.332 -20.774)" fill="#1a1311"/><path d="M94.371,46.189,94.138,46l.258-3.156,2.84-1.869c.46-.3.723-.376.971.074l.62.895-3.278,3.726c-.437.48-.908.73-1.178.515" transform="translate(-44.343 -19.188)" fill="#1a1311"/><path d="M97.266,37.49l-1.548.245-.469,1.493-.315,1.28,3.26-1.923-.22-.77c-.06-.272-.2-.406-.709-.325" transform="translate(-44.718 -17.649)" fill="#1a1311"/><path d="M127.8,50.34l-.942.968,1.2.356a.336.336,0,0,0,.487-.228l1-2.3-.842.453a4.608,4.608,0,0,0-.9.748" transform="translate(-59.756 -23.147)" fill="#1a1311"/><path d="M124.084,55.935l-1.411-.825,1.339-.872a.922.922,0,0,1,.936-.156l1.266.458-1.122,1.283a.742.742,0,0,1-1.007.112" transform="translate(-57.785 -25.444)" fill="#1a1311"/><path d="M119.506,58.89l-1.733-1.526,1.268-.469c.642-.238.928-.191,1.162-.006l1.71,1.083-1.348,1.016a.773.773,0,0,1-1.059-.1" transform="translate(-55.476 -26.724)" fill="#1a1311"/><path d="M113.583,61.007l-1.492-2.173,1.5-.315a1.069,1.069,0,0,1,1.288.383l1.7,1.705-1.6.692a1.073,1.073,0,0,1-1.394-.293" transform="translate(-52.8 -27.536)" fill="#1a1311"/><path d="M107.812,61.979l-1.64-2.647,1.811-.154a.981.981,0,0,1,1.164.537l1.659,2.5-1.777.364c-.553.114-.838.012-1.218-.6" transform="translate(-50.012 -27.867)" fill="#1a1311"/><path d="M102.11,61.692l-1.236-2.86,1.486.2a1.254,1.254,0,0,1,1.086.8l1.719,2.807-1.813.038a1.374,1.374,0,0,1-1.243-.988" transform="translate(-47.516 -27.713)" fill="#1a1311"/><path d="M98.076,61.671l1.724.358-1.345-3.276a1.233,1.233,0,0,0-.851-.845l-.7-.188-.755-.24.509,2.857a2.427,2.427,0,0,0,1.417,1.335" transform="translate(-45.292 -27.076)" fill="#1a1311"/><path d="M136.453,73.171l-.6.942L137.056,74c.368-.042.569-.058.772-.311l.651-.754-1.4-.06a.55.55,0,0,0-.628.3" transform="translate(-63.991 -34.324)" fill="#1a1311"/><path d="M131.635,72.837l-.816,1.372,1.485-.119c.465-.036.655-.11.841-.408l.717-1.123-1.342-.117a.718.718,0,0,0-.885.4" transform="translate(-61.622 -34.113)" fill="#1a1311"/><path d="M126.367,72.2l-.955,1.7,1.661,0c.455,0,.7-.09.876-.423l.8-1.453-1.54-.246c-.492-.1-.643.067-.84.417" transform="translate(-59.075 -33.799)" fill="#1a1311"/><path d="M119.925,70.817,118.8,72.654l1.847.278a1.179,1.179,0,0,0,1.359-.509l.966-1.63-1.669-.539a1.018,1.018,0,0,0-1.377.563" transform="translate(-55.96 -33.051)" fill="#1a1311"/><path d="M114.691,68.17l-1.538,2.368,1.551.513a.938.938,0,0,0,1.245-.409l1.277-2.03-1.456-.7c-.535-.234-.692-.23-1.08.255" transform="translate(-53.3 -31.92)" fill="#1a1311"/><path d="M109.328,69.247l-1.389-.6L109.3,66.4l2.037-.324.79.464-1.581,2.489c-.268.413-.7.446-1.222.218" transform="translate(-50.844 -31.124)" fill="#1a1311"/><path d="M103.033,68.052l-.616-.342-1.93-1.349,1.831.331,2.724-.078-.884,1.369c-.269.4-.641.336-1.125.068" transform="translate(-47.334 -31.259)" fill="#1a1311"/><path d="M138.726,78.285,138,77.551l1.071-.31a1.177,1.177,0,0,1,.488-.031l.994.251-1.346.889a.418.418,0,0,1-.483-.066" transform="translate(-65.005 -36.363)" fill="#1a1311"/><path d="M134.513,79.887l-.793-1.622,1.417-.229a.53.53,0,0,1,.533.139l.952,1.05-1.529.921c-.248.139-.512-.123-.579-.26" transform="translate(-62.988 -36.753)" fill="#1a1311"/><path d="M129.663,81.068l-.9-2.364,1.531-.086c.341-.019.455.022.6.354l.95,1.969-1.321.556a.612.612,0,0,1-.867-.429" transform="translate(-60.655 -37.031)" fill="#1a1311"/><path d="M124.071,81.687l-.789-3.016,1.857.071c.326.033.367.008.477.329l1.037,2.857-1.8.454c-.468.109-.615-.057-.784-.7" transform="translate(-58.071 -37.058)" fill="#1a1311"/><path d="M99.735,73.351l.627-1.871,1.711.953c.268.15.341.285.3.79l-.334,3.907-.7-.375-1.372-2.291c-.355-.613-.36-.74-.235-1.112" transform="translate(-46.944 -33.67)" fill="#1a1311"/><path d="M105.323,77.736l.267-3.541,1.462.685c.524.245.6.33.7.953l.708,4.116a10.543,10.543,0,0,1-1.7-.487c-.376-.15-.735-.327-1.01-.47-.605-.314-.466-.808-.431-1.256" transform="translate(-49.594 -34.949)" fill="#1a1311"/><path d="M111.5,80.115l-.708-3.719,2.21.625c.452.127.528.168.687.74l1,3.674-2.208-.229c-.83-.11-.824-.275-.98-1.091" transform="translate(-52.189 -35.986)" fill="#1a1311"/><path d="M96.075,67.471l-.2.322-.358-1.414.556.8a.259.259,0,0,1,.005.29" transform="translate(-44.991 -31.268)" fill="#1a1311"/><path d="M104.44,83.84l-1.246-1.529,1.983,1.14-.426.447c-.12.11-.2.079-.311-.058" transform="translate(-48.609 -38.772)" fill="#1a1311"/><path d="M120.867,68.685s-5.585,2.4-14.146.858c-6.476-1.164-10.75-4.807-12.01-6.6L94.3,61.085S98.4,67.527,108.48,69c6.1.891,12.886-.972,12.886-.972Z" transform="translate(-44.418 -28.774)" fill="#1a1311"/><path d="M93.918,48.654,93.886,50.5s2.434,1.8,7.457,1.719,9.495-1.6,12.339-6.319l.011-.842a14.939,14.939,0,0,1-6.451,5.046c-3.636,1.3-10.032,1.653-13.324-1.448" transform="translate(-44.225 -21.223)" fill="#1a1311"/><path d="M94.77,56.684l-.79-.447.141,1.49a1.488,1.488,0,0,0,.386.907l.848.922Zm.081.458.007.034-.574-.364.007-.025ZM94,56.484l.635.4.024.044-.656-.416Zm.026.28.852.54.006.034-.29-.183v.206h0v.018l-.453-.282.013-.02.421.251v-.187l-.546-.345Zm.04.426,0-.031.9.569.005.033Z" transform="translate(-44.269 -26.49)" fill="#1a1311"/><path d="M143.081,102.295l-1.485-.1,1.319-1.293a.561.561,0,0,1,.23-.141,1.511,1.511,0,0,1,.423.166l.671.41-.63.793c-.128.2-.368.172-.528.161" transform="translate(-66.698 -47.464)" fill="#1a1311"/><path d="M137.319,100.969c-.57-.072-1.41-.181-1.865-.3l1.978-1.958a.877.877,0,0,1,1.174-.105l1.024.624-1.382,1.445c-.223.281-.435.353-.93.29" transform="translate(-63.805 -46.365)" fill="#1a1311"/><path d="M131.2,98.94l-1.841-.487,2.5-2.593a1.008,1.008,0,0,1,1.468-.078l1.158.675L132.259,98.7a.959.959,0,0,1-1.056.235" transform="translate(-60.935 -44.988)" fill="#1a1311"/><path d="M125.356,96.481l-1.6-.651,2.86-2.823c.49-.53,1.01-.637,1.445-.348l1.207.76L126.582,96.2a.945.945,0,0,1-1.226.278" transform="translate(-58.296 -43.573)" fill="#1a1311"/><path d="M119.879,93.893l-1.623-.836,3.516-2.87c.548-.438.979-.645,1.565-.229l1,.683-3.17,3.028a.97.97,0,0,1-1.29.223" transform="translate(-55.704 -42.268)" fill="#1a1311"/><path d="M116.825,87.5l-3.484,2.586,1.4.984a1.007,1.007,0,0,0,1.326-.1l3.808-3.042-.616-.556a2.673,2.673,0,0,0-2.435.133" transform="translate(-53.389 -41.045)" fill="#1a1311"/><path d="M111.118,87.1l-1.384,1.038.987.952a.812.812,0,0,0,1.1.009l2.931-2.211-2.23-.151a1.784,1.784,0,0,0-1.4.363" transform="translate(-51.69 -40.852)" fill="#1a1311"/><path d="M106.714,85.256l-.33.336.946.917a.614.614,0,0,0,.855.094l1.149-.86-1.917-.632a.563.563,0,0,0-.7.145" transform="translate(-50.112 -40.062)" fill="#1a1311"/><path d="M118.16,81.475l-.971-3.443,2.011.245c.458.054.609.053.747.617l.88,3.393-1.776-.017c-.556-.008-.729-.216-.891-.793" transform="translate(-55.201 -36.757)" fill="#1a1311"/><path d="M98.074,69.608a3.045,3.045,0,0,0-.348-.287c-.306-.246-.695-.631-.695-.631l-.384.648,1.119,2.691.473-1.47a.776.776,0,0,0-.166-.952" transform="translate(-45.525 -32.357)" fill="#1a1311"/><path d="M146.937,102.387l-.618.7,1.538-.116Z" transform="translate(-68.923 -48.229)" fill="#1a1311"/><path d="M97.953,33.12l-.339-.281-.908,2.1,1.953-.221-.276-.958a1,1,0,0,0-.431-.637" transform="translate(-45.553 -15.469)" fill="#1a1311"/><path d="M130.775,43.7a3.4,3.4,0,0,0-1.624,2.109l.352.624s.963.394,1.272-2.733" transform="translate(-60.836 -20.586)" fill="#1a1311"/><path d="M143.6,73.135s-3.169-.264-3.225,1.143l.556.606s1.04.9,2.668-1.749" transform="translate(-66.125 -34.441)" fill="#1a1311"/><path d="M1.306,134.008c0-.788-.024-2.823-.024-3,0-.649-1.282-.878-1.282-.878,0-.076.013-.153.141-.153.215,0,.623.038,1.893.038,1.246,0,1.7-.038,1.92-.038.14,0,.152.038.152.14,0,0-.979.28-1.017.763-.012.178-.077,2.173-.077,2.885v.191c0,.064.039.1.2.1h3.8c.19,0,.254-.024.254-.164v-.129c0-.724-.088-2.81-.088-2.935-.012-.408-.941-.738-.941-.738,0-.077.013-.115.114-.115.23,0,.776.038,1.857.038,1.054,0,1.59-.038,1.754-.038s.166.038.166.14c0,0-1.156.28-1.156.714,0,.178-.026,2.643-.026,3.113v.432c0,.407.026,3.14.039,3.84,0,.458,1.257.712,1.257.712,0,.065-.013.127-.138.127-.2,0-.637-.039-1.782-.039-1.3,0-1.7.039-2,.039-.139,0-.165-.063-.165-.127,0,0,1.042-.317,1.056-.635.025-.6.05-2.962.05-3.369v-.153c0-.14-.126-.152-.28-.152h-3.8c-.14,0-.178.038-.178.152v.191c0,.319.051,2.593.089,3.459.013.3.89.52.89.52,0,.076-.012.115-.115.115-.227,0-.673-.039-1.742-.039-1.347,0-1.728.039-1.983.039-.114,0-.127-.039-.127-.139,0,0,1.244-.369,1.244-.649.013-.6.037-3.382.037-3.713Z" transform="translate(0 -61.225)" fill="#1a1311"/><path d="M55.907,135.21c0-1.133-.013-1.756-.039-2.392-.013-.5-.085-1.9-.114-2.092-.077-.491-1.158-.768-1.158-.768,0-.064.013-.089.115-.089.141,0,.547.038,1.488.038.763,0,1.068-.038,1.208-.038.115,0,.127.025.127.1,0,0-.763.306-.8.764-.088.851-.157,4.054-.157,5.732v2.175c0,.191-.148.42-.327.42a.674.674,0,0,1-.5-.2c-.216-.2-.84-.876-1.6-1.78-.916-1.081-1.933-2.3-2.175-2.581-.217-.253-1.97-2.442-2.264-2.86h-.1V134.2c0,1.056.107,2.739.12,3.222.025.983,1.216,1.418,1.216,1.418,0,.077-.013.1-.1.1-.127,0-.891-.038-1.488-.038-.395,0-1.272.038-1.4.038-.051,0-.064-.024-.064-.113a1.36,1.36,0,0,0,1.068-1.349c.014-.241.115-2.593.115-4.476v-1.778c0-.751-1.171-1.285-1.171-1.285,0-.051.012-.076.076-.076s.167.014.408.014.343.024,1.005.024c.432,0,.814-.024.966-.024a.442.442,0,0,1,.369.164c.063.077,2.569,3.141,2.95,3.611.178.217,2.034,2.543,2.174,2.708h.051Z" transform="translate(-22.561 -61.174)" fill="#1a1311"/><path d="M73.945,137.459a2.439,2.439,0,0,0,1.8,1.062,1.514,1.514,0,0,0,1.59-1.411c0-1.056-.2-1.36-1.857-1.985a6.815,6.815,0,0,1-1.845-1.106A2.386,2.386,0,0,1,73,132.215a2.041,2.041,0,0,1,.953-1.869,2.7,2.7,0,0,1,1.831-.611,4.53,4.53,0,0,1,1.691.256.229.229,0,0,0,.291-.065l.165-.165c.052-.05.522,2.314.522,2.314,0,.052-.024.064-.063.077a5.3,5.3,0,0,0-1.111-1.164,2.492,2.492,0,0,0-1.394-.693,1.328,1.328,0,0,0-1.348,1.158,1.483,1.483,0,0,0,.331,1.169,4.236,4.236,0,0,0,1.678.826,4.065,4.065,0,0,1,1.627.966,2.292,2.292,0,0,1,.7,1.894,2.712,2.712,0,0,1-2.784,2.81,3.737,3.737,0,0,1-2.276-.546.615.615,0,0,0-.294-.139c-.075,0-.127.088-.2.215a23.2,23.2,0,0,1-.2-2.467c.012-.089.051-.089.1-.089,0,0,.425.871.73,1.367" transform="translate(-34.386 -61.111)" fill="#1a1311"/><path d="M118.095,133.689c0-.3-.038-2.752-.051-2.919-.025-.3-1.131-.717-1.131-.717,0-.051.038-.077.089-.077.152,0,.8.039,2.047.039,1.3,0,1.7-.039,1.88-.039.065,0,.09.039.09.115,0,0-.98.477-.98.706,0,.126-.039,2.968-.039,3.122v.978c0,.126.039,3.064.039,3.179,0,.395,1.055.9,1.055.9,0,.051-.038.077-.114.077-.152,0-.662-.039-1.869-.039-1.336,0-1.882.039-2.022.039-.064,0-.1-.025-.1-.1,0,0,.992-.458,1.043-.763.026-.191.063-2.937.063-3.611Z" transform="translate(-55.071 -61.225)" fill="#1a1311"/><path d="M27.175,135.555a19.918,19.918,0,0,0-.725,2.734c0,.279,1.08.649,1.08.649,0,.1-.013.139-.114.139-.165,0-.687-.038-1.729-.038-.928,0-1.208.038-1.387.038-.076,0-.088-.076-.088-.166,0,0,1.03-.216,1.284-.6.178-.266,1.081-2.8,1.5-3.916.1-.253,1.131-2.988,1.246-3.33a.946.946,0,0,0,.013-.593.34.34,0,0,1-.089-.164c0-.037-.434-.705,1.716-.705.076,0,.1.076.141.216.241.8,1.233,3.649,1.475,4.463.292.992,1.118,3.675,1.3,4.016.215.419,1.259.611,1.259.611,0,.076-.013.166-.115.166-.242,0-.509-.038-2.135-.038-1.056,0-1.5.038-1.755.038-.127,0-.14-.076-.14-.166,0,0,.89-.166.814-.5-.115-.456-.61-2.4-.764-2.861Zm2.67-.509c-.114-.381-.865-3.05-.954-3.368-.05-.19-.076-.279-.139-.279s-.115.049-.154.165c-.063.166-1.156,3.165-1.257,3.483Z" transform="translate(-11.405 -61.05)" fill="#1a1311"/><path d="M139.274,135.21c0-1.133-.013-1.756-.038-2.392-.012-.5-.085-1.9-.116-2.092-.076-.491-1.156-.768-1.156-.768,0-.064.013-.089.114-.089.14,0,.546.038,1.486.038.764,0,1.069-.038,1.21-.038.114,0,.127.025.127.1,0,0-.764.306-.8.764-.088.851-.156,4.054-.156,5.732v2.175c0,.191-.15.42-.328.42a.678.678,0,0,1-.5-.2c-.214-.2-.839-.876-1.6-1.78-.916-1.081-1.934-2.3-2.176-2.581-.215-.253-1.97-2.442-2.262-2.86h-.1V134.2c0,1.056.105,2.739.118,3.222.026.983,1.213,1.418,1.213,1.418,0,.077-.012.1-.1.1-.129,0-.892-.038-1.489-.038-.394,0-1.272.038-1.4.038-.052,0-.065-.024-.065-.113a1.36,1.36,0,0,0,1.069-1.349c.013-.241.113-2.593.113-4.476v-1.778c0-.751-1.169-1.285-1.169-1.285,0-.051.012-.076.076-.076s.165.014.406.014.345.024,1.006.024c.431,0,.813-.024.966-.024a.445.445,0,0,1,.369.164c.063.077,2.568,3.141,2.949,3.611.178.217,2.035,2.543,2.176,2.708h.05Z" transform="translate(-61.831 -61.174)" fill="#1a1311"/><path d="M157.647,137.459a2.437,2.437,0,0,0,1.8,1.062,1.513,1.513,0,0,0,1.589-1.411c0-1.056-.2-1.36-1.857-1.985a6.819,6.819,0,0,1-1.843-1.106,2.377,2.377,0,0,1-.635-1.805,2.038,2.038,0,0,1,.953-1.869,2.706,2.706,0,0,1,1.832-.611,4.506,4.506,0,0,1,1.689.256.233.233,0,0,0,.294-.065l.164-.165c.051-.05.522,2.314.522,2.314,0,.052-.026.064-.065.077a5.291,5.291,0,0,0-1.11-1.164,2.5,2.5,0,0,0-1.393-.693,1.326,1.326,0,0,0-1.347,1.158,1.474,1.474,0,0,0,.33,1.169,4.249,4.249,0,0,0,1.677.826,4.058,4.058,0,0,1,1.628.966,2.292,2.292,0,0,1,.7,1.894,2.711,2.711,0,0,1-2.783,2.81,3.743,3.743,0,0,1-2.278-.546.611.611,0,0,0-.291-.139c-.076,0-.127.088-.2.215a23.317,23.317,0,0,1-.205-2.467c.013-.089.053-.089.1-.089,0,0,.427.871.732,1.367" transform="translate(-73.813 -61.111)" fill="#1a1311"/><path d="M200.538,130.686c0-.446-1.043-.751-1.043-.751,0-.076.014-.1.114-.1.128,0,.75.038,2.087.038,1.118,0,1.728-.038,1.868-.038.1,0,.114.026.114.1,0,0-1.182.343-1.209.6-.012.14-.024,1.322-.024,1.97v.839c0,.674.051,2.289.063,2.7a2.637,2.637,0,0,0,.406,1.513,2.023,2.023,0,0,0,1.591.712,2.566,2.566,0,0,0,1.5-.56,2.68,2.68,0,0,0,.8-2.071v-1.958c0-1.069-.129-2.783-.177-3.077-.051-.33-.967-.673-.967-.673,0-.063.013-.089.088-.089.129,0,.714.038,1.578.038.687,0,1.094-.038,1.207-.038s.127.05.127.114c0,0-.991.446-1.017.572-.026.178-.026,2.251-.026,2.428s-.025,2.4-.063,2.9a3.393,3.393,0,0,1-1.081,2.428,3.511,3.511,0,0,1-2.25.788,5.555,5.555,0,0,1-1.946-.317,2.923,2.923,0,0,1-1.476-1.678,9.468,9.468,0,0,1-.267-3.064Z" transform="translate(-93.971 -61.158)" fill="#1a1311"/><path d="M278.81,135.21c0-1.133-.013-1.756-.039-2.392-.014-.5-.085-1.9-.114-2.092-.076-.491-1.158-.768-1.158-.768,0-.064.014-.089.115-.089.139,0,.546.038,1.489.038.761,0,1.067-.038,1.207-.038.115,0,.127.025.127.1,0,0-.762.306-.8.764-.087.851-.156,4.054-.156,5.732v2.175c0,.191-.149.42-.327.42a.676.676,0,0,1-.5-.2c-.216-.2-.839-.876-1.6-1.78-.916-1.081-1.934-2.3-2.175-2.581-.216-.253-1.97-2.442-2.262-2.86h-.1V134.2c0,1.056.107,2.739.119,3.222.026.983,1.216,1.418,1.216,1.418,0,.077-.011.1-.1.1-.127,0-.89-.038-1.487-.038-.393,0-1.271.038-1.4.038-.05,0-.064-.024-.064-.113a1.363,1.363,0,0,0,1.07-1.349c.012-.241.114-2.593.114-4.476v-1.778c0-.751-1.171-1.285-1.171-1.285,0-.051.013-.076.077-.076s.164.014.407.014.343.024,1,.024c.433,0,.813-.024.966-.024a.438.438,0,0,1,.368.164c.064.077,2.569,3.141,2.951,3.611.177.217,2.035,2.543,2.172,2.708h.053Z" transform="translate(-127.559 -61.174)" fill="#1a1311"/><path d="M250.08,135.555a19.912,19.912,0,0,0-.726,2.734c0,.279,1.081.649,1.081.649,0,.1-.014.139-.114.139-.165,0-.686-.038-1.729-.038-.929,0-1.209.038-1.386.038-.076,0-.09-.076-.09-.166,0,0,1.029-.216,1.284-.6.179-.266,1.082-2.8,1.5-3.916.1-.253,1.133-2.988,1.246-3.33a.938.938,0,0,0,.012-.593.35.35,0,0,1-.088-.164c0-.037-.433-.705,1.716-.705.076,0,.1.076.139.216.243.8,1.235,3.649,1.476,4.463.293.992,1.12,3.675,1.3,4.016.216.419,1.259.611,1.259.611,0,.076-.013.166-.115.166-.243,0-.507-.038-2.136-.038-1.055,0-1.5.038-1.755.038-.127,0-.139-.076-.139-.166,0,0,.89-.166.813-.5-.115-.456-.61-2.4-.764-2.861Zm2.669-.509c-.114-.381-.864-3.05-.954-3.368-.05-.19-.075-.279-.14-.279s-.114.049-.151.165c-.064.166-1.158,3.165-1.259,3.483Z" transform="translate(-116.403 -61.05)" fill="#1a1311"/><path d="M92.489,133.742c0-.788-.024-2.822-.024-3,0-.649-1.282-.878-1.282-.878,0-.076.013-.153.141-.153.215,0,.623.038,1.893.038,1.246,0,1.7-.038,1.92-.038.14,0,.152.038.152.14,0,0-.979.28-1.017.763-.012.178-.077,2.173-.077,2.885v.191c0,.064.039.1.2.1h3.8c.19,0,.254-.024.254-.164V133.5c0-.724-.088-2.81-.088-2.935-.012-.408-.941-.738-.941-.738,0-.077.013-.115.114-.115.23,0,.776.038,1.857.038,1.055,0,1.59-.038,1.755-.038s.165.038.165.14c0,0-1.156.28-1.156.713,0,.178-.026,2.643-.026,3.113v.432c0,.407.026,3.14.039,3.84,0,.458,1.257.712,1.257.712,0,.065-.013.127-.138.127-.2,0-.637-.039-1.782-.039-1.3,0-1.7.039-2,.039-.139,0-.166-.063-.166-.127,0,0,1.043-.317,1.056-.635.025-.6.05-2.962.05-3.369V134.5c0-.14-.126-.152-.28-.152h-3.8c-.14,0-.178.039-.178.152v.191c0,.319.051,2.593.089,3.459.013.3.89.52.89.52,0,.076-.012.115-.115.115-.227,0-.673-.039-1.742-.039-1.347,0-1.728.039-1.983.039-.114,0-.127-.039-.127-.139,0,0,1.244-.369,1.244-.649.013-.6.037-3.382.037-3.713Z" transform="translate(-42.951 -61.1)" fill="#1a1311"/><path d="M175.908,134.008c0-.788-.024-2.823-.024-3,0-.649-1.282-.878-1.282-.878,0-.076.013-.153.141-.153.215,0,.623.038,1.893.038,1.246,0,1.7-.038,1.92-.038.14,0,.152.038.152.14,0,0-.979.28-1.017.763-.012.178-.077,2.173-.077,2.885v.191c0,.064.039.1.2.1h3.8c.19,0,.254-.024.254-.164v-.129c0-.724-.088-2.81-.088-2.935-.012-.408-.941-.738-.941-.738,0-.077.013-.115.114-.115.23,0,.776.038,1.857.038,1.054,0,1.589-.038,1.754-.038s.166.038.166.14c0,0-1.156.28-1.156.714,0,.178-.026,2.643-.026,3.113v.432c0,.407.026,3.14.039,3.84,0,.458,1.257.712,1.257.712,0,.065-.013.127-.138.127-.2,0-.637-.039-1.782-.039-1.3,0-1.7.039-2,.039-.139,0-.165-.063-.165-.127,0,0,1.042-.317,1.056-.635.025-.6.05-2.962.05-3.369v-.153c0-.14-.126-.152-.28-.152h-3.8c-.14,0-.178.038-.178.152v.191c0,.319.051,2.593.089,3.459.013.3.89.52.89.52,0,.076-.012.115-.115.115-.227,0-.673-.039-1.742-.039-1.347,0-1.728.039-1.983.039-.114,0-.127-.039-.127-.139,0,0,1.244-.369,1.244-.649.013-.6.037-3.382.037-3.713Z" transform="translate(-82.245 -61.225)" fill="#1a1311"/><path d="M224.21,134.008c0-.788-.024-2.823-.024-3,0-.649-1.282-.878-1.282-.878,0-.076.013-.153.141-.153.215,0,.623.038,1.893.038,1.246,0,1.7-.038,1.92-.038.14,0,.152.038.152.14,0,0-.979.28-1.017.763-.012.178-.077,2.173-.077,2.885v.191c0,.064.039.1.2.1h3.8c.19,0,.254-.024.254-.164v-.129c0-.724-.088-2.81-.088-2.935-.012-.408-.941-.738-.941-.738,0-.077.013-.115.114-.115.23,0,.776.038,1.857.038,1.054,0,1.59-.038,1.754-.038s.166.038.166.14c0,0-1.156.28-1.156.714,0,.178-.026,2.643-.026,3.113v.432c0,.407.026,3.14.039,3.84,0,.458,1.257.712,1.257.712,0,.065-.013.127-.138.127-.2,0-.637-.039-1.782-.039-1.3,0-1.7.039-2,.039-.139,0-.165-.063-.165-.127,0,0,1.042-.317,1.056-.635.025-.6.05-2.962.05-3.369v-.153c0-.14-.126-.152-.28-.152h-3.8c-.14,0-.178.038-.178.152v.191c0,.319.051,2.593.089,3.459.013.3.89.52.89.52,0,.076-.012.115-.115.115-.227,0-.673-.039-1.742-.039-1.347,0-1.728.039-1.983.039-.114,0-.127-.039-.127-.139,0,0,1.244-.369,1.244-.649.013-.6.037-3.382.037-3.713Z" transform="translate(-104.998 -61.225)" fill="#1a1311"/></g></svg>