<svg xmlns="http://www.w3.org/2000/svg" xmlns:xlink="http://www.w3.org/1999/xlink" width="245" height="83" viewBox="0 0 245 83"><defs><clipPath id="a"><rect width="245" height="83" transform="translate(3143.529 17708.326)" fill="none"/></clipPath><clipPath id="b"><rect width="726.043" height="513.362" fill="none"/></clipPath></defs><g transform="translate(-3143.529 -17708.326)" clip-path="url(#a)"><g transform="translate(2903.392 17493.264)"><line x2="138.954" transform="translate(90.73 61.45)" fill="none" stroke="#2f2725" stroke-width="0.427"/><line x2="152.801" transform="translate(78.801 37.698)" fill="none" stroke="#2f2725" stroke-width="0.427"/><g clip-path="url(#b)"><path d="M278.661,31.828l-.807,1.149V38.4h-.874V34.117q-.351.417-.658.742a5.616,5.616,0,0,0-.5-.931,12.138,12.138,0,0,0,1-1.062,14.587,14.587,0,0,0,1.115-1.667Zm3.663,6.666v-9.03h2.538v6.9a1.114,1.114,0,0,1-.074.46.487.487,0,0,1-.129.153,3.253,3.253,0,0,1-1.08.317,2.656,2.656,0,0,0-.041-.448c-.03-.134-.086-.324-.17-.574h.46a.187.187,0,0,0,.138-.042.177.177,0,0,0,.041-.128V30.333h-.857v8.162Zm-5.884-7.116a6.046,6.046,0,0,0-.313-.539,1.742,1.742,0,0,0-.273-.277,9.532,9.532,0,0,0,1.909-1.692l.648.73q-.6.638-.916.924c-.313.279-.664.563-1.056.853m3.386-1.3h2.05V30.9h-1.006v1.213h1.166v.848h-1.166v1.161h1.064v.845h-1.064v1.494q.225-.04,1.2-.281v.888q-2.037.528-3.843.837l-.179-1.034a4.116,4.116,0,0,0,.607-.074V33.707h.837v2.98l.558-.1V32.956h-1.424v-.848h1.424V30.9h-.608c-.054.113-.185.359-.4.743a7.726,7.726,0,0,0-.738-.492,9.2,9.2,0,0,0,.573-1.1,13.774,13.774,0,0,0,.473-1.35l.9.3q-.04.118-.428,1.076" transform="translate(-37.955 -3.949)" fill="#2f2725"/><path d="M278.661,31.828l-.807,1.149V38.4h-.874V34.117q-.351.417-.658.742a5.616,5.616,0,0,0-.5-.931,12.138,12.138,0,0,0,1-1.062,14.587,14.587,0,0,0,1.115-1.667Zm3.663,6.666v-9.03h2.538v6.9a1.114,1.114,0,0,1-.074.46.487.487,0,0,1-.129.153,3.253,3.253,0,0,1-1.08.317,2.656,2.656,0,0,0-.041-.448c-.03-.134-.086-.324-.17-.574h.46a.187.187,0,0,0,.138-.042.177.177,0,0,0,.041-.128V30.333h-.857v8.162Zm-5.884-7.116a6.046,6.046,0,0,0-.313-.539,1.742,1.742,0,0,0-.273-.277,9.532,9.532,0,0,0,1.909-1.692l.648.73q-.6.638-.916.924C277.184,30.8,276.833,31.088,276.441,31.378Zm3.386-1.3h2.05V30.9h-1.006v1.213h1.166v.848h-1.166v1.161h1.064v.845h-1.064v1.494q.225-.04,1.2-.281v.888q-2.037.528-3.843.837l-.179-1.034a4.116,4.116,0,0,0,.607-.074V33.707h.837v2.98l.558-.1V32.956h-1.424v-.848h1.424V30.9h-.608c-.054.113-.185.359-.4.743a7.726,7.726,0,0,0-.738-.492,9.2,9.2,0,0,0,.573-1.1,13.774,13.774,0,0,0,.473-1.35l.9.3Q280.214,29.122,279.826,30.081Z" transform="translate(-37.955 -3.949)" fill="none" stroke="#2f2725" stroke-width="0.365"/><path d="M293.675,31.72h2.488v2.247h-2.488Zm-3.345,0h2.38v2.247h-2.38Zm-.955-.91v4.715h.955v-.661h2.38v3.681h.965V34.864h2.488v.554h.975V30.81h-3.463V28.981h-.965V30.81Z" transform="translate(-39.819 -3.988)" fill="#2f2725"/><path d="M293.675,31.72h2.488v2.247h-2.488Zm-3.345,0h2.38v2.247h-2.38Zm-.955-.91v4.715h.955v-.661h2.38v3.681h.965V34.864h2.488v.554h.975V30.81h-3.463V28.981h-.965V30.81Z" transform="translate(-39.819 -3.988)" fill="none" stroke="#2f2725" stroke-width="0.365"/><path d="M277.675,64.978l.588-.627a8.951,8.951,0,0,1,1.135.982l-.628.668a14.054,14.054,0,0,0-1.1-1.024m4.71-5.393-.717.93h1.523v.774h-2.31v.658h1.881v.732h-1.881v.574H283.5v.815h-2.617v.982a5.526,5.526,0,0,0,.407.586c.095-.079.26-.231.5-.454s.534-.5.886-.821l.667.73c-.359.267-.868.639-1.532,1.108a6.585,6.585,0,0,0,.9.743,6.975,6.975,0,0,0,1.056.6,3.114,3.114,0,0,0-.473.406,1.693,1.693,0,0,0-.245.473,9.9,9.9,0,0,1-1.248-.927,7.421,7.421,0,0,1-.921-1.05V68.1c0,.3-.056.493-.17.581a3.276,3.276,0,0,1-1.4.379,2.942,2.942,0,0,0-.115-.568,2.827,2.827,0,0,0-.273-.486h.887a.083.083,0,0,0,.074-.031.2.2,0,0,0,.045-.135V66.8c-.292.173-.584.343-.875.507l-1.543.821-.519-.973a30.155,30.155,0,0,0,2.937-1.263V64.068h-2.24a6.969,6.969,0,0,0-.517.816,1.248,1.248,0,0,1-.234-.167l-.344-.354v4.585h-.926V64.716c-.145.278-.305.566-.477.862s-.338.569-.5.821a2.906,2.906,0,0,0-.2-.471,3.662,3.662,0,0,0-.329-.429,11.112,11.112,0,0,0,.906-1.613,13.418,13.418,0,0,0,.626-1.783H274.45v-.816h1.214V59.146h.926v2.142h.9V62.1h-.9v.866a6.211,6.211,0,0,0,.477.539,4.948,4.948,0,0,0,.539.444v-.7h2.319v-.574h-1.741v-.732h1.741v-.658h-2.191v-.774h1.4c-.047-.072-.15-.222-.311-.446s-.283-.39-.366-.493l.657-.5c.172.185.291.321.359.412s.234.336.486.706l-.448.323h1.165c.4-.653.687-1.142.866-1.462Z" transform="translate(-37.726 -8.126)" fill="#2f2725"/><path d="M277.675,64.978l.588-.627a8.951,8.951,0,0,1,1.135.982l-.628.668A14.054,14.054,0,0,0,277.675,64.978Zm4.71-5.393-.717.93h1.523v.774h-2.31v.658h1.881v.732h-1.881v.574H283.5v.815h-2.617v.982a5.526,5.526,0,0,0,.407.586c.095-.079.26-.231.5-.454s.534-.5.886-.821l.667.73c-.359.267-.868.639-1.532,1.108a6.585,6.585,0,0,0,.9.743,6.975,6.975,0,0,0,1.056.6,3.114,3.114,0,0,0-.473.406,1.693,1.693,0,0,0-.245.473,9.9,9.9,0,0,1-1.248-.927,7.421,7.421,0,0,1-.921-1.05V68.1c0,.3-.056.493-.17.581a3.276,3.276,0,0,1-1.4.379,2.942,2.942,0,0,0-.115-.568,2.827,2.827,0,0,0-.273-.486h.887a.083.083,0,0,0,.074-.031.2.2,0,0,0,.045-.135V66.8c-.292.173-.584.343-.875.507l-1.543.821-.519-.973a30.155,30.155,0,0,0,2.937-1.263V64.068h-2.24a6.969,6.969,0,0,0-.517.816,1.248,1.248,0,0,1-.234-.167l-.344-.354v4.585h-.926V64.716c-.145.278-.305.566-.477.862s-.338.569-.5.821a2.906,2.906,0,0,0-.2-.471,3.662,3.662,0,0,0-.329-.429,11.112,11.112,0,0,0,.906-1.613,13.418,13.418,0,0,0,.626-1.783H274.45v-.816h1.214V59.146h.926v2.142h.9V62.1h-.9v.866a6.211,6.211,0,0,0,.477.539,4.948,4.948,0,0,0,.539.444v-.7h2.319v-.574h-1.741v-.732h1.741v-.658h-2.191v-.774h1.4c-.047-.072-.15-.222-.311-.446s-.283-.39-.366-.493l.657-.5c.172.185.291.321.359.412s.234.336.486.706l-.448.323h1.165c.4-.653.687-1.142.866-1.462Z" transform="translate(-37.726 -8.126)" fill="none" stroke="#2f2725" stroke-width="0.365"/><path d="M52,31.828,51.2,32.977V38.4h-.876V34.117q-.348.417-.657.742a5.61,5.61,0,0,0-.5-.931,12.268,12.268,0,0,0,1-1.062A14.574,14.574,0,0,0,51.275,31.2Zm3.663,6.666v-9.03H58.2v6.9a1.113,1.113,0,0,1-.075.46.476.476,0,0,1-.129.153,3.246,3.246,0,0,1-1.081.317,2.686,2.686,0,0,0-.038-.448c-.031-.134-.087-.324-.171-.574h.459a.192.192,0,0,0,.14-.042.181.181,0,0,0,.04-.128V30.333H56.49v8.162Zm-5.883-7.116q-.23-.423-.313-.539a1.777,1.777,0,0,0-.275-.277,9.5,9.5,0,0,0,1.912-1.692l.647.73q-.6.638-.915.924-.47.418-1.056.853m3.385-1.3h2.051V30.9H54.212v1.213h1.163v.848H54.212v1.161h1.064v.845H54.212v1.494q.224-.04,1.2-.281v.888q-2.036.528-3.842.837l-.179-1.034A4.084,4.084,0,0,0,52,36.791V33.707h.836v2.98l.558-.1V32.956H51.971v-.848H53.4V30.9h-.607c-.053.113-.185.359-.4.743a7.933,7.933,0,0,0-.737-.492,9.2,9.2,0,0,0,.573-1.1A13.8,13.8,0,0,0,52.7,28.7l.9.3q-.039.118-.428,1.076" transform="translate(-6.765 -3.949)" fill="#2f2725"/><path d="M52,31.828,51.2,32.977V38.4h-.876V34.117q-.348.417-.657.742a5.61,5.61,0,0,0-.5-.931,12.268,12.268,0,0,0,1-1.062A14.574,14.574,0,0,0,51.275,31.2Zm3.663,6.666v-9.03H58.2v6.9a1.113,1.113,0,0,1-.075.46.476.476,0,0,1-.129.153,3.246,3.246,0,0,1-1.081.317,2.686,2.686,0,0,0-.038-.448c-.031-.134-.087-.324-.171-.574h.459a.192.192,0,0,0,.14-.042.181.181,0,0,0,.04-.128V30.333H56.49v8.162Zm-5.883-7.116q-.23-.423-.313-.539a1.777,1.777,0,0,0-.275-.277,9.5,9.5,0,0,0,1.912-1.692l.647.73q-.6.638-.915.924Q50.368,30.943,49.782,31.378Zm3.385-1.3h2.051V30.9H54.212v1.213h1.163v.848H54.212v1.161h1.064v.845H54.212v1.494q.224-.04,1.2-.281v.888q-2.036.528-3.842.837l-.179-1.034A4.084,4.084,0,0,0,52,36.791V33.707h.836v2.98l.558-.1V32.956H51.971v-.848H53.4V30.9h-.607c-.053.113-.185.359-.4.743a7.933,7.933,0,0,0-.737-.492,9.2,9.2,0,0,0,.573-1.1A13.8,13.8,0,0,0,52.7,28.7l.9.3Q53.555,29.122,53.167,30.081Z" transform="translate(-6.765 -3.949)" fill="none" stroke="#2f2725" stroke-width="0.365"/><path d="M67.6,32.234V28.892h1.035v3.343h2.15v.931h-2.15v4.089h2.459v.93H64.932v-.93H67.6V33.165H65.629v-.931ZM63.25,30.6V28.859h.966V30.6h1l.08-.042.6.617-.771,1.27q-.224.344-.633.872l.19.233c.047.058.124.149.234.278s.181.209.214.242c.2.205.432.433.707.679-.076.095-.279.355-.607.786q-.363-.366-.6-.625c-.156-.172-.308-.354-.458-.547v4.182H63.21v-3.9a9.9,9.9,0,0,1-1.056.909,8.942,8.942,0,0,0-.548-.836,9.744,9.744,0,0,0,.99-.754,11.56,11.56,0,0,0,1.27-1.346c.142-.183.394-.551.756-1.108H61.975V30.6Z" transform="translate(-8.477 -3.971)" fill="#2f2725"/><path d="M67.6,32.234V28.892h1.035v3.343h2.15v.931h-2.15v4.089h2.459v.93H64.932v-.93H67.6V33.165H65.629v-.931ZM63.25,30.6V28.859h.966V30.6h1l.08-.042.6.617-.771,1.27q-.224.344-.633.872l.19.233c.047.058.124.149.234.278s.181.209.214.242c.2.205.432.433.707.679-.076.095-.279.355-.607.786q-.363-.366-.6-.625c-.156-.172-.308-.354-.458-.547v4.182H63.21v-3.9a9.9,9.9,0,0,1-1.056.909,8.942,8.942,0,0,0-.548-.836,9.744,9.744,0,0,0,.99-.754,11.56,11.56,0,0,0,1.27-1.346c.142-.183.394-.551.756-1.108H61.975V30.6Z" transform="translate(-8.477 -3.971)" fill="none" stroke="#2f2725" stroke-width="0.365"/><path d="M77.824,34.854h3.962v2.121H77.824Zm1.006-5.759-.906-.429a10.933,10.933,0,0,1-.93,1.213c-.266.3-.549.591-.851.87s-.605.538-.911.773a9.109,9.109,0,0,1-.881.531,4.167,4.167,0,0,1,.616.825q.344-.207.692-.456c.233-.166.467-.349.707-.548a17.854,17.854,0,0,0,1.308-1.253H80.68q-.605.82-1.025,1.28a12.112,12.112,0,0,1-1.1,1.072l-.6-.622-.812-.7-.667.6.667.611q.472.461.676.686a11.145,11.145,0,0,1-1.377.849c-.21.105-.416.2-.618.29s-.431.184-.686.285-.51.191-.761.279q.234.3.343.47a4.223,4.223,0,0,1,.244.5c.352-.16.663-.311.937-.45s.582-.31.935-.513V38.48h1v-.636h3.962v.541h.985V34.019H78.73q.79-.64,1.12-.957a15.131,15.131,0,0,0,1.094-1.213c.093-.11.222-.279.391-.5s.434-.582.8-1.081l-.726-.669-.189.158H78.381c.276-.395.425-.614.448-.66" transform="translate(-10.231 -3.944)" fill="#2f2725"/><path d="M77.824,34.854h3.962v2.121H77.824Zm1.006-5.759-.906-.429a10.933,10.933,0,0,1-.93,1.213c-.266.3-.549.591-.851.87s-.605.538-.911.773a9.109,9.109,0,0,1-.881.531,4.167,4.167,0,0,1,.616.825q.344-.207.692-.456c.233-.166.467-.349.707-.548a17.854,17.854,0,0,0,1.308-1.253H80.68q-.605.82-1.025,1.28a12.112,12.112,0,0,1-1.1,1.072l-.6-.622-.812-.7-.667.6.667.611q.472.461.676.686a11.145,11.145,0,0,1-1.377.849c-.21.105-.416.2-.618.29s-.431.184-.686.285-.51.191-.761.279q.234.3.343.47a4.223,4.223,0,0,1,.244.5c.352-.16.663-.311.937-.45s.582-.31.935-.513V38.48h1v-.636h3.962v.541h.985V34.019H78.73q.79-.64,1.12-.957a15.131,15.131,0,0,0,1.094-1.213c.093-.11.222-.279.391-.5s.434-.582.8-1.081l-.726-.669-.189.158H78.381C78.657,29.359,78.806,29.14,78.829,29.094Z" transform="translate(-10.231 -3.944)" fill="none" stroke="#2f2725" stroke-width="0.365"/><path d="M50.374,62.213l-.806,1.149v5.424h-.876V64.5q-.348.419-.656.743a5.678,5.678,0,0,0-.5-.931,12.107,12.107,0,0,0,1-1.062,14.188,14.188,0,0,0,1.115-1.668Zm3.663,6.667V59.85h2.538v6.9a1.1,1.1,0,0,1-.075.459.447.447,0,0,1-.129.152,3.21,3.21,0,0,1-1.08.318,2.792,2.792,0,0,0-.04-.45q-.045-.2-.17-.574h.459a.189.189,0,0,0,.139-.041.177.177,0,0,0,.04-.125V60.718h-.856V68.88Zm-5.883-7.118c-.154-.283-.258-.461-.314-.539a1.918,1.918,0,0,0-.273-.275,9.6,9.6,0,0,0,1.911-1.693l.647.73q-.6.638-.916.925-.468.417-1.055.851m3.384-1.3h2.051v.815h-1v1.213h1.164v.847H52.585V64.5h1.064v.847H52.585v1.5q.222-.044,1.2-.284v.888q-2.036.526-3.843.837l-.179-1.036a3.906,3.906,0,0,0,.608-.072V64.095h.836v2.977l.558-.1V63.341H50.344v-.847h1.424V61.281h-.607c-.053.112-.186.359-.4.744a7.811,7.811,0,0,0-.736-.493,9.182,9.182,0,0,0,.572-1.1,13.239,13.239,0,0,0,.473-1.349l.9.3q-.039.115-.428,1.076" transform="translate(-6.541 -8.131)" fill="#2f2725"/><path d="M50.374,62.213l-.806,1.149v5.424h-.876V64.5q-.348.419-.656.743a5.678,5.678,0,0,0-.5-.931,12.107,12.107,0,0,0,1-1.062,14.188,14.188,0,0,0,1.115-1.668Zm3.663,6.667V59.85h2.538v6.9a1.1,1.1,0,0,1-.075.459.447.447,0,0,1-.129.152,3.21,3.21,0,0,1-1.08.318,2.792,2.792,0,0,0-.04-.45q-.045-.2-.17-.574h.459a.189.189,0,0,0,.139-.041.177.177,0,0,0,.04-.125V60.718h-.856V68.88Zm-5.883-7.118c-.154-.283-.258-.461-.314-.539a1.918,1.918,0,0,0-.273-.275,9.6,9.6,0,0,0,1.911-1.693l.647.73q-.6.638-.916.925Q48.741,61.327,48.154,61.762Zm3.384-1.3h2.051v.815h-1v1.213h1.164v.847H52.585V64.5h1.064v.847H52.585v1.5q.222-.044,1.2-.284v.888q-2.036.526-3.843.837l-.179-1.036a3.906,3.906,0,0,0,.608-.072V64.095h.836v2.977l.558-.1V63.341H50.344v-.847h1.424V61.281h-.607c-.053.112-.186.359-.4.744a7.811,7.811,0,0,0-.736-.493,9.182,9.182,0,0,0,.572-1.1,13.239,13.239,0,0,0,.473-1.349l.9.3Q51.927,59.5,51.539,60.466Z" transform="translate(-6.541 -8.131)" fill="none" stroke="#2f2725" stroke-width="0.365"/><path d="M65.08,63.434h2.589V65.3H65.08Zm4.351,4.224H62.95v.9h6.481ZM65.08,60.79h2.589v1.787H65.08Zm0,5.79v-.418h2.588V66.5h.906V59.881H64.215v6.7Zm-4.728-5.028v.92h1.224V64.2q-.964.292-1.354.385l.26.984,1.094-.418v2.5a.209.209,0,0,1-.049.141.081.081,0,0,1-.079.036h-.856a4.458,4.458,0,0,1,.338.951,2.536,2.536,0,0,0,1.289-.371,1.069,1.069,0,0,0,.265-.812V64.814c.179-.056.512-.179,1-.366l.011-.91c-.325.122-.665.244-1.015.367V62.472h1v-.92h-1V59.378h-.907v2.174Z" transform="translate(-8.287 -8.171)" fill="#2f2725"/><path d="M65.08,63.434h2.589V65.3H65.08Zm4.351,4.224H62.95v.9h6.481ZM65.08,60.79h2.589v1.787H65.08Zm0,5.79v-.418h2.588V66.5h.906V59.881H64.215v6.7Zm-4.728-5.028v.92h1.224V64.2q-.964.292-1.354.385l.26.984,1.094-.418v2.5a.209.209,0,0,1-.049.141.081.081,0,0,1-.079.036h-.856a4.458,4.458,0,0,1,.338.951,2.536,2.536,0,0,0,1.289-.371,1.069,1.069,0,0,0,.265-.812V64.814c.179-.056.512-.179,1-.366l.011-.91c-.325.122-.665.244-1.015.367V62.472h1v-.92h-1V59.378h-.907v2.174Z" transform="translate(-8.287 -8.171)" fill="none" stroke="#2f2725" stroke-width="0.365"/><path d="M73.959,60.695l.656-.574.752.836.3.389c.161.206.274.357.341.447l-.686.628-.667-.878c-.023-.032-.055-.072-.1-.123s-.093-.116-.157-.193-.141-.173-.235-.288-.164-.194-.207-.242m5.435,2.017c-.229-.205-.465-.4-.706-.586q.224-.307.652-.944l.762-1.2.825.617q-.862,1.269-1.533,2.111m-2.4.23V59.377h.9v3.565h3.285v5.832H80.23v-.429H73.6v-.9h6.63V65.984H73.64v-.8h6.59V63.8H73.6v-.856Z" transform="translate(-10.128 -8.171)" fill="#2f2725"/><path d="M73.959,60.695l.656-.574.752.836.3.389c.161.206.274.357.341.447l-.686.628-.667-.878c-.023-.032-.055-.072-.1-.123s-.093-.116-.157-.193-.141-.173-.235-.288S74,60.743,73.959,60.695Zm5.435,2.017c-.229-.205-.465-.4-.706-.586q.224-.307.652-.944l.762-1.2.825.617Q80.065,61.87,79.394,62.712Zm-2.4.23V59.377h.9v3.565h3.285v5.832H80.23v-.429H73.6v-.9h6.63V65.984H73.64v-.8h6.59V63.8H73.6v-.856Z" transform="translate(-10.128 -8.171)" fill="none" stroke="#2f2725" stroke-width="0.365"/><path d="M88.475,66.679h3.534v.889H88.475Zm0-1.6h3.534v.805H88.475Zm1.831-2.707h-.657v-1h1.693c-.444.45-.79.783-1.036,1M86.2,60.5v.869h2.479v1H85.3v.919h3.972c-.209.183-.615.492-1.214.931h-.5v.3q-.77.477-1.353.785c-.282.147-.667.323-1.155.535a1.593,1.593,0,0,1,.329.318,2.452,2.452,0,0,1,.239.517c.179-.094.4-.216.655-.363s.492-.288.7-.418.405-.254.584-.369v3.365h.917v-.469h3.534v.469h.935V64.223H89.52q.647-.523,1.1-.931h3.583v-.919H91.64a22.366,22.366,0,0,0,1.852-2.005l-.8-.577q-.706.885-1.075,1.287V60.5H89.648V59.268h-.965V60.5Z" transform="translate(-11.703 -8.156)" fill="#2f2725"/><path d="M88.475,66.679h3.534v.889H88.475Zm0-1.6h3.534v.805H88.475Zm1.831-2.707h-.657v-1h1.693C90.9,61.821,90.551,62.154,90.305,62.373ZM86.2,60.5v.869h2.479v1H85.3v.919h3.972c-.209.183-.615.492-1.214.931h-.5v.3q-.77.477-1.353.785c-.282.147-.667.323-1.155.535a1.593,1.593,0,0,1,.329.318,2.452,2.452,0,0,1,.239.517c.179-.094.4-.216.655-.363s.492-.288.7-.418.405-.254.584-.369v3.365h.917v-.469h3.534v.469h.935V64.223H89.52q.647-.523,1.1-.931h3.583v-.919H91.64a22.366,22.366,0,0,0,1.852-2.005l-.8-.577q-.706.885-1.075,1.287V60.5H89.648V59.268h-.965V60.5Z" transform="translate(-11.703 -8.156)" fill="none" stroke="#2f2725" stroke-width="0.365"/><rect width="244.459" height="83.116" transform="translate(240.792 215.123)" fill="#fff"/><path d="M397.159,323.689H386.5v-1.473h10.656Zm-6.995-16.668a18.622,18.622,0,0,1-1.073,2.441h-6.164c.046.555.091,1.112.091,1.651v14.226c0,.54-.045,1.1-.091,1.655h17.8a14.04,14.04,0,0,1-.09-1.655V311.113a13.928,13.928,0,0,1,.09-1.651h-7.618l.717-1.321c.223-.134.354-.251.354-.336,0-.129-.132-.224-.354-.272-1.52-.151-2.726-.327-3.665-.512M386.5,317.5h10.656v1.74H386.5Zm0-4.713h10.656v1.743H386.5Z" transform="translate(-52.693 -42.248)" fill="#221815"/><path d="M416.124,324.36H416.1q-1.206.061-2.209.132V323.6h2.9c-.225.27-.445.534-.668.762m1.608-15.258.243.093c.048,0,.091-.05.091-.162a1.061,1.061,0,0,0-.2-.485,14.589,14.589,0,0,1-.848-1.528,75.034,75.034,0,0,1-10.03.784,12.073,12.073,0,0,1,.445,2.19c1.208-.041,2.371-.087,3.488-.177v.783h-4.29a11.18,11.18,0,0,1,.091,1.224,10.884,10.884,0,0,1-.091,1.209h4.29v.87h-3.933a6.309,6.309,0,0,1,.091.871v4.894a6.6,6.6,0,0,1-.091.961h3.933v.782h-3.663V323.6h3.663v1.029c-1.476.085-2.459.11-2.949.11h-1.5c.044.5.068.939.068,1.385v1.23c0,.181.067.271.179.271.066,0,.179-.09.357-.271,3.26-.178,6.61-.381,10.1-.6a7.708,7.708,0,0,1,.8,1.206,16.666,16.666,0,0,0,2.213-3.08,12.376,12.376,0,0,1,.49,2.75c.427-.09,1.074-.182,1.946-.291a4.134,4.134,0,0,0,1.964-.674q1.741-.8,1.948-13.534a5.374,5.374,0,0,1,.265-1.648h-3.82c.045-1.1.069-2.258.069-3.493a1.193,1.193,0,0,0,.354-.622c0-.178-.181-.27-.514-.27-1.273,0-2.478-.02-3.6-.07a15.959,15.959,0,0,1,.36,2.441c0,.711-.022,1.379-.045,2.013h-1.363a5.554,5.554,0,0,1,.089-.874h-4.444V309.6c1.428-.133,2.7-.292,3.842-.492m-.716,14.181v-1.872h-3.126v-.782h3.928a4.72,4.72,0,0,1-.086-.961v-4.894h1.721a27.308,27.308,0,0,1-.7,4.63,10.662,10.662,0,0,1-1.74,3.879m5.763-8.509h.7c-.2,5.181-.406,7.953-.585,8.351a.927.927,0,0,1-.871.562c-.355,0-.78,0-1.226-.025a20.547,20.547,0,0,0,1.117-3.126,35.7,35.7,0,0,0,.87-5.763m-5.34-.871h-3.55v-.87h3.575v.09c0,.266-.025.536-.025.78m-2.165,4.894H413.89v-.782h1.384Zm-4.356,0h-1.407v-.782h1.407Zm-1.407-3.061h1.407v.8h-1.407Zm4.378,0h1.384v.8h-1.384Z" transform="translate(-55.932 -42.248)" fill="#221815"/><path d="M314.412,309.478a40,40,0,0,0-.622,6.578c0,1.952.15,6.684,1.867,6.684,1.1,0,2.044-2.258,2.646-4.022l2.794,1.636c-.646,1.891-2.321,6.339-5.652,6.339-4.534,0-5.051-7.371-5.051-10.959,0-2.214.236-4.856.387-6.578Zm11.261,15.082c.021-.427.043-.875.043-1.544,0-7.328-2.407-10.444-3.781-11.605l2.75-1.828c1.935,1.958,4.858,4.943,4.707,14.764Z" transform="translate(-42.712 -42.541)" fill="#221815"/><path d="M344.993,308.013h3.525v1.995h5.65v3.161h-5.65v4.617a13.725,13.725,0,0,1,.388,2.969c0,5.606-5.8,6.535-9.479,6.577l-1.053-3.03a22.013,22.013,0,0,0,4.254-.324c2.042-.409,2.386-1.267,2.579-1.742a2.874,2.874,0,0,1-2,.6,4.307,4.307,0,0,1-4.428-4.448,4.413,4.413,0,0,1,4.751-4.383,5.215,5.215,0,0,1,1.612.3l-.045-1.141h-9.886v-3.161h9.822Zm.257,10.1a1.515,1.515,0,0,0-1.57-1.528,1.727,1.727,0,0,0-1.785,1.844,1.708,1.708,0,0,0,1.741,1.9,1.512,1.512,0,0,0,1.614-1.608Z" transform="translate(-46.127 -42.384)" fill="#221815"/><path d="M362.965,322.042a15.226,15.226,0,0,0,4.707-1.228,1.42,1.42,0,0,0,.838-1.112c0-1.614-4.793-5.293-7.482-6.948l2.9-2.492a35.419,35.419,0,0,1,7.091,5.715,6.182,6.182,0,0,1,1.87,3.849c0,3.889-5.8,4.946-8.316,5.418Zm9.047-8.384a14.866,14.866,0,0,0-2.493-2.924l1.526-1.14a17.478,17.478,0,0,1,2.514,2.773Zm2.663-1.952a15.241,15.241,0,0,0-2.49-2.754l1.544-1.121a15.128,15.128,0,0,1,2.474,2.627Z" transform="translate(-49.679 -42.359)" fill="#221815"/><path d="M444.151,317.571h3.338v.881h-3.338Zm-11.909-7.757a12.641,12.641,0,0,1-.09,1.509H440.7v1.062h-7.038a4.286,4.286,0,0,1,.157,1.149V319.6a4.238,4.238,0,0,1-.157,1.148H440.7V321.9h-8.82a12.334,12.334,0,0,1,.09,1.491,12.858,12.858,0,0,1-.09,1.508h8.82v2.821a16.126,16.126,0,0,1,1.667-.094c.6,0,1.2.036,1.783.094V324.9h8.457a13.242,13.242,0,0,1-.091-1.508,12.693,12.693,0,0,1,.091-1.491h-8.457v-1.152h6.7a7.482,7.482,0,0,1-.09-1.148v-6.069a7.571,7.571,0,0,1,.09-1.149h-6.7v-1.062h8.279a11.953,11.953,0,0,1-.091-1.509,11.8,11.8,0,0,1,.091-1.488h-8.279v-.27a.812.812,0,0,1,.249-.633.5.5,0,0,0,.179-.339c0-.105-.121-.156-.361-.156a27.438,27.438,0,0,1-3.7-.181,12.124,12.124,0,0,1,.158,1.579h-8.526a12.485,12.485,0,0,1,.09,1.488m4.849,7.757h3.61v.881h-3.61Zm0-2.909h3.61v.97h-3.61Zm10.4.97h-3.338v-.97h3.338Z" transform="translate(-59.429 -42.21)" fill="#221815"/><path d="M463.294,323.112h8.73v1.238h-8.73Zm-2.64-15.587a15.736,15.736,0,0,1,1.175,2.03h-4.51c.044.495.066.993.066,1.487,0,.526-.022,1.057-.066,1.583h8.344l-.361,1.234h-5.617a4.409,4.409,0,0,1,.181,1.241v10.491a4.939,4.939,0,0,1-.181,1.306h15.852a10.218,10.218,0,0,1-.086-1.306V315.1a9.093,9.093,0,0,1,.086-1.241h-6.446l.359-1.234h8.572a13.168,13.168,0,0,1-.092-1.583,11.639,11.639,0,0,1,.092-1.487h-4.738l1.037-1.693c.228-.152.341-.264.341-.337,0-.151-.113-.243-.341-.275q-2.275-.246-3.7-.517a18.585,18.585,0,0,1-1.444,2.822H466q-.66-1.445-1.557-3c-1.221.377-2.484.7-3.791.973m2.64,12.246h8.73v1.057h-8.73Zm0-3.362h8.73v1.063h-8.73Z" transform="translate(-62.929 -42.183)" fill="#221815"/><path d="M493.155,313.3q.926-1.376,1.762-2.908V313.3Zm-9.6-2.731a12.257,12.257,0,0,1-.088,1.4h3V313.3h-3.54a12.9,12.9,0,0,1,.089,1.488,13.446,13.446,0,0,1-.089,1.511h3.923a21.055,21.055,0,0,1-4.442,2.46,7.826,7.826,0,0,1,1.577,2.819,11.164,11.164,0,0,0,1.062-.562v4.959a3.733,3.733,0,0,1-.181,1.153h8.908a7.282,7.282,0,0,1-.091-1.153v-7.129a6.421,6.421,0,0,1,.091-1.056h-4.375c.494-.466.985-.964,1.469-1.49h4.059v11.46a11.935,11.935,0,0,1,1.486-.091,13.949,13.949,0,0,1,1.6.091v-3.9a14.084,14.084,0,0,1,.521,1.4l.361,1.26a16.266,16.266,0,0,1,1.557-.586,3.785,3.785,0,0,0,2.93-3.988,14.884,14.884,0,0,0-1.583-5.642l1.4-5.388v-1.307a15.336,15.336,0,0,1,.09-1.6h-8.544a6.3,6.3,0,0,1,.178,1.6v.294a16.7,16.7,0,0,1-2.306-1.446,10.205,10.205,0,0,1-.967,2.46v-.342a11.235,11.235,0,0,1,.091-1.42h-2.209V308.1a.683.683,0,0,1,.247-.562c.136-.129.2-.228.2-.32s-.1-.157-.317-.157a22.433,22.433,0,0,1-3.38-.182,12.277,12.277,0,0,1,.178,2.011v.266h-3a12.684,12.684,0,0,1,.088,1.42m5.975,2.731v-1.335h1.487a14.075,14.075,0,0,1-.99,1.335Zm-1.4,10.213h2.461v1.423h-2.461Zm0-3.515h2.461v1.4h-2.461ZM498,311.185h2.007l-1.394,5.457a15.915,15.915,0,0,1,1.24,4.574c0,1.16-.615,1.755-1.852,1.786Z" transform="translate(-66.38 -42.227)" fill="#221815"/><path d="M512.275,324.309v-4.1c.29.359.555.733.815,1.1a13.381,13.381,0,0,0,1.986-1.354,1.921,1.921,0,0,1,.041.384v1.872a1.239,1.239,0,0,0,.474.973,2.348,2.348,0,0,0,1.219.426,20.844,20.844,0,0,0,2.98.181,14.044,14.044,0,0,0,3.855-.319,1.608,1.608,0,0,0,.967-.987c.122-.3.213-.515.275-.636a11.2,11.2,0,0,1-2.732-1.056c-.015.613-.142.991-.385,1.124a4.635,4.635,0,0,1-1.98.294,15.249,15.249,0,0,1-2.121-.113c-.36-.064-.542-.172-.542-.337v-.786h4.422a2.137,2.137,0,0,1-.091-.636V318.4a11.657,11.657,0,0,0,2.91,2.573,14.178,14.178,0,0,1,.967-1.967v5.3Zm-2.976-15.5v16.83a10.873,10.873,0,0,1-.09,1.331h19.22a9.4,9.4,0,0,1-.091-1.331v-16.83a9.083,9.083,0,0,1,.091-1.326h-19.22a10.461,10.461,0,0,1,.09,1.326m6.879,10.131h2.888v.787h-3.72a10.126,10.126,0,0,0,.832-.787m1.739-2.212c.026-.06.061-.119.09-.182h2.37a8.827,8.827,0,0,0,.583,1.153h-3.7c.224-.316.441-.641.654-.971m7.417-.182v1.6a5.638,5.638,0,0,1-2.213-1.6Zm-13.059,0h2.842a12.212,12.212,0,0,1-2.842,2.305Zm0-6.426h2.459a17.444,17.444,0,0,1-1.395,1.15,10.091,10.091,0,0,1,1.326,1.241H513V314h3.74a8.446,8.446,0,0,1-.427.88h-4.038ZM519.564,314a6.392,6.392,0,0,0,.226.88h-1.062a6.137,6.137,0,0,0,.267-.88Zm5.048,0v-1.488H522.9a10.252,10.252,0,0,0,.676-1.062.5.5,0,0,0,.161-.27c0-.078-.108-.129-.314-.158a19.055,19.055,0,0,1-1.872-.545,6.538,6.538,0,0,1-1.194,2.034h-.993c.091-.485.169-.984.249-1.511a.7.7,0,0,0,.179-.339c0-.122-.095-.185-.276-.185a15.589,15.589,0,0,1-2.387-.27c.062.768.09,1.294.09,1.584a3.876,3.876,0,0,1-.068.72h-1.311c.287-.257.572-.5.856-.72-.553-.574-1.135-1.13-1.758-1.671h10.4v4.76H522.09a8.954,8.954,0,0,1-.345-.88Z" transform="translate(-70.07 -42.311)" fill="#221815"/><path d="M319.962,264.206c-.688-.069-7.1-.086-8.123,0-1.081.1-1.445.559-1.445,1.669V295.8c0,1.342.949,1.316,1.9,1.368.628.034,6.766.034,7.458-.009,1.451-.095,1.522-.843,1.528-2.09.011-2.151,0-27.164,0-29.3,0-1.015-.247-1.462-1.322-1.565" transform="translate(-42.712 -36.348)" fill="#e60012"/><path d="M368.806,293.542a7.935,7.935,0,0,0-2.993-11.629c-3.076-1.686-19.2-6.907-22.525-8.24-.929-.37-1.2-.792-1.075-1.342.155-.645,1.073-.636,1.48-.645.342,0,3.67.026,23.706.1,1.124.009,1.639-.284,1.769-1.428.063-.585.037-3.957.026-4.327-.049-1.29-.258-1.833-1.729-1.833-1.651-.016-21.337-.077-27.508.147-6.93.249-8.98,3.5-9.471,6.83a7.927,7.927,0,0,0,3.848,8.232c2.967,1.806,13.212,4.963,22.68,8.369,1.525.56,1.652,1.1,1.419,1.583-.16.335-.851.4-1.76.412-2.348.017-22.471-.292-23.672-.266-1.47.043-1.74.473-1.771,2-.017.37,0,3.114,0,3.51.016,1.436.258,1.978,1.694,1.987,8.525.077,23.213.163,26.321.068,4.943-.172,7.653-1.006,9.562-3.535" transform="translate(-45.462 -36.353)" fill="#e60012"/><path d="M473.223,268.39c-1.248-2.924-3.819-4.095-9.007-4.275-4.033-.147-26.965-.009-27.508-.009-1.607.017-1.7.662-1.728,2.082,0,.353,0,3.578.035,4.111.1,1.188.9,1.316,1.72,1.316.533,0,22.709-.146,24.2-.146.723,0,1.006.241,1.057.7.027.395-.19.636-.723.877-6.8,3.149-18.191,8.086-21.6,9.737-4.954,2.416-6.1,5.23-5.832,8.033.3,3.131,2.219,5.91,9.221,6.133,6.158.2,23.765-.06,28.083-.164,1.558-.034,1.634-.6,1.764-1.72.052-.456.017-2.934.017-3.294-.017-1.962-.223-2.426-1.944-2.417-1.325.017-18.589.353-23.517.31-.774-.009-1-.439-.732-.886.164-.293.68-.551,1.661-.99,4.119-1.866,15.456-6.563,21.16-9.968,3.4-2.047,5.316-5.583,3.664-9.428" transform="translate(-59.694 -36.334)" fill="#e60012"/><path d="M419.617,264.137c-1.006-.078-7.193-.078-7.832-.009-.8.095-1.5.223-1.5,1.686,0,.946,0,14.863,0,17.556,0,3.458-.559,5.781-4.782,6.064a42.918,42.918,0,0,1-6.652-.052c-4.025-.361-4.8-1.738-4.8-6.563,0-3.019.046-15.518.037-16.739s-.12-1.858-1.6-1.918c-1.05-.043-6.881-.043-7.526-.017-.792.06-1.569.223-1.569,1.729,0,.9-.078,11.242.011,19.887.092,11.156,7.7,10.889,11.268,11.19,2.168.181,11.79.223,16.077-.095,7.8-.576,9.938-4.593,10.127-10.27.111-3.741.207-17.238.138-20.532,0-1.238-.206-1.823-1.4-1.918" transform="translate(-52.753 -36.338)" fill="#e60012"/><path d="M525.505,265.826c0-1.11-.266-1.712-1.445-1.789-1.125-.085-7.043-.06-7.586,0-1.246.086-1.573.448-1.59,1.634-.027.938-.034,15.828-.086,18.46-.078,3.9-1.369,4.413-3.243,4.894s-7.921.344-8.678.241c-2.349-.31-3.845-1.247-3.9-5.092-.052-3.716-.052-17.255-.052-18.468,0-1.187-.489-1.583-1.514-1.634-.9-.052-6.408-.068-7.724,0-1.531.086-1.608.731-1.634,1.91-.034,2.253-.077,18.467.165,21.177.575,6.4,3.688,9.015,9.142,9.461,5.05.43,17.065.491,20.705-.353,5.874-1.376,7.078-5.978,7.353-11.784.138-3.054.086-17.255.086-18.657" transform="translate(-67.155 -36.325)" fill="#e60012"/></g></g></g></svg>