<svg xmlns="http://www.w3.org/2000/svg" xmlns:xlink="http://www.w3.org/1999/xlink" width="199.305" height="57.099" viewBox="0 0 199.305 57.099"><defs><clipPath id="a"><rect width="199.305" height="57.099" fill="none"/></clipPath></defs><g transform="translate(0 0)"><g transform="translate(0 0)"><g clip-path="url(#a)"><path d="M22.7,43.127a5.229,5.229,0,0,1-5.373-.984,3.55,3.55,0,0,1-.891-1.767,5.17,5.17,0,0,0,.324,1.652c.889,2.257,3.558,3.909,6.4,4.083,2.277.261,3.521-1.507,5.833-1.158a11.356,11.356,0,0,0,4.839-.174c2.453-.26,5.086-.348,6.757-2.027a4.629,4.629,0,0,0,2.453-3.563,5.181,5.181,0,0,0-2.453-1.766c-3.594-1.044-7.434-2.2-11.7-1.507-.741-.076-1.486-.122-2.247-.14a22.122,22.122,0,0,1-.984,3.385A4.768,4.768,0,0,1,22.7,43.127" transform="translate(5.046 10.962)" fill="#0066b9"/><path d="M25.405,35.935a10,10,0,0,0-3.094-.754c-1.247-.085-1.993.724-3.06,1.014A12.3,12.3,0,0,0,17.4,37.472a4.5,4.5,0,0,0-.963,3.066,3.562,3.562,0,0,0,.89,1.768,5.232,5.232,0,0,0,5.373.984,4.767,4.767,0,0,0,2.956-3.965,21.831,21.831,0,0,0,.984-3.385c-.405-.009-.817-.013-1.236-.005" transform="translate(5.046 10.798)" fill="#0066b9"/><path d="M29.175,20.162a3.1,3.1,0,0,1-2.117-.907c.008-.231-.178-.327-.212-.5.378-.911-.44-1.587.059-2.346a2.813,2.813,0,0,1,.2-1.614,6.767,6.767,0,0,1,.91-1.961,3.693,3.693,0,0,1,3.352-1.859,2.8,2.8,0,0,0-1.319-.21c-2.36.2-4.094,2.431-5.061,4.458-1.223,3.33-2.36,6.721-3.7,10.022-.137.456-.289.919-.427,1.38,1.993-.059,4.052.393,6.059.454l.365.14c1-.038,1.979-.046,2.938-.034a33.97,33.97,0,0,1,3.094-6.777c.078-.107.149-.221.218-.336-1.459.037-2.9.5-4.358.091" transform="translate(6.404 3.301)" fill="#f38200"/><path d="M19.082,30.053a22.45,22.45,0,0,0-1.613,4.239c-.114.348-.114.724-.257,1.072a20.843,20.843,0,0,0-.482,2.9,8.605,8.605,0,0,0-.265,3.849,4.51,4.51,0,0,1,.963-3.068,12.523,12.523,0,0,1,1.851-1.276c1.068-.29,1.814-1.1,3.06-1.014a9.936,9.936,0,0,1,3.094.754c.422-.009.831,0,1.239,0a6.394,6.394,0,0,1,1.6-3.074c.37-.606-.056-1.476.144-2.345.174-.5.35-1,.524-1.5-.361-.013-.724-.022-1.084-.026-2.9-.2-5.828-.38-8.775-.514" transform="translate(5.018 9.226)" fill="#f38200"/><path d="M47.158,12.968c-.618-.376-1.247-.984-2-.642a3.014,3.014,0,0,1-3.352.227l-.1-.15a1.584,1.584,0,0,1-1.03-.656c-1.357-.408-2.875-.533-4.2-.826-2.387-.57-4.564.405-6.875.012-.233.01-.469.025-.708.046a3.717,3.717,0,0,1,1.84,1.787,7.264,7.264,0,0,1,.329,7.31h.068c3.875-.58,7.67.69,11.222-1.208,1.362-.693,3.018-.328,4.361-1.08A3.419,3.419,0,0,0,48,15.9a3.359,3.359,0,0,0-.847-2.937" transform="translate(8.871 3.296)" fill="#ffc400"/><path d="M31.82,12.709a3.719,3.719,0,0,0-1.839-1.787,3.693,3.693,0,0,0-3.352,1.859,6.767,6.767,0,0,0-.91,1.961,2.8,2.8,0,0,0-.2,1.614c-.5.761.319,1.435-.059,2.346.034.175.22.271.212.5a3.1,3.1,0,0,0,2.117.907c1.46.406,2.9-.055,4.358-.091a7.268,7.268,0,0,0-.331-7.31" transform="translate(7.785 3.353)" fill="#f38200"/><path d="M4.334,30.742a7.5,7.5,0,0,1-1.47-.391,3.742,3.742,0,0,0,1.47.391" transform="translate(0.879 9.318)" fill="#e886b1"/><path d="M2.741,31.3a5.822,5.822,0,0,1,5.329-.325,16.168,16.168,0,0,0,3.495.648c.472-1.175,1.242-2.277,1.3-3.627.74-1.042.91-2.317,1.48-3.418.54-1.767,2.1-2.925,2.33-4.835.2-3.247,2.132-5.736,3.213-8.634a17.3,17.3,0,0,0,1.31-2.635c.825-2.665.767-5.967-1.593-7.935-1.251-1.072-2.9-.29-4.207.174A5.025,5.025,0,0,0,12.72,5.2c-.855,1.68-1.281,3.5-2.107,5.155a48.283,48.283,0,0,0-2.641,4.516c.027.205-.115.322-.2.465-.654,1.563-1.564,3.04-2.162,4.633,0,3.332-2.7,5.387-3.64,8.314-.312,2.259-2.36,3.793-1.9,6.372l.007.017A5.191,5.191,0,0,1,2.741,31.3" transform="translate(0 0)" fill="#d90052"/><path d="M.062,26.529a3.124,3.124,0,0,0,.085,1.286A4.749,4.749,0,0,0,2.088,30.59a5.79,5.79,0,0,0,1.646.933,2.351,2.351,0,0,1-.209-.116c-1.983-.9-2.81-3.027-3.462-4.878" transform="translate(0.009 8.144)" fill="#2e9b28"/><path d="M25.982,32.658c3.747.124,7.545.6,11.083.267,2.287-.395-.043-.4,2-1.34,1.293-.4.906-1.791,1.919-2.4-.156-.49.5-.651.488-1.087.086-.025.146-.123.23-.12.268-.427.166-.839.353-1.323a1.407,1.407,0,0,0-.877-1.154c-1.448-1.093-3.347-1.329-5.156-1.744-4.079.022-3.286-.383-7.378-.431a37.538,37.538,0,0,0-1.227,4.721c-.406,1.571-.911,3.091-1.438,4.612" transform="translate(7.977 7.161)" fill="#00942c"/><path d="M25.641,24.673a10.121,10.121,0,0,1,.4-1.776,9.011,9.011,0,0,0-1.959.26c-2.776.583-5.7.367-8.452,1.1l-3.96.265a6.62,6.62,0,0,1-1.325.067,4.043,4.043,0,0,0-.323,2.137,6.813,6.813,0,0,1-3.526,5.793,4.764,4.764,0,0,1-2.5.508,19.763,19.763,0,0,0,5.955-.257c1.613-.618,3.516-.533,5.283-.735,2.555.017,5.108.1,7.649.212a23.767,23.767,0,0,0,1.116-2.8c.682-1.536,1.023-3.214,1.649-4.778" transform="translate(1.225 7.029)" fill="#00942c"/><path d="M28.025,23.491l-.365-.14c-2.006-.06-4.066-.511-6.059-.454a10.16,10.16,0,0,0-.4,1.778c-.625,1.564-.967,3.243-1.648,4.778a24.1,24.1,0,0,1-1.117,2.8c2.947.133,5.876.316,8.775.514.359.005.723.014,1.084.026.527-1.521,1.031-3.041,1.438-4.612a37.538,37.538,0,0,1,1.227-4.721c-.959-.013-1.937-.005-2.938.033" transform="translate(5.661 7.028)" fill="#f38200"/><path d="M7.7,32.393A6.817,6.817,0,0,0,11.225,26.6a4.041,4.041,0,0,1,.323-2.137,16.091,16.091,0,0,1-3.495-.65,5.823,5.823,0,0,0-5.329.327A5.2,5.2,0,0,0,.055,27.515c.652,1.851,1.48,3.98,3.464,4.878a2.33,2.33,0,0,0,.208.116A7.5,7.5,0,0,0,5.2,32.9a4.774,4.774,0,0,0,2.5-.508" transform="translate(0.017 7.158)" fill="#00942c"/><text transform="translate(62.722 18.146)" fill="#1a1311" font-size="18" font-family="HGSMinchoE"><tspan x="0" y="0">ＬＩＢＥＲＴＹ</tspan></text><text transform="translate(63.001 38.249)" fill="#1a1311" font-size="18" font-family="HGSMinchoE"><tspan x="0" y="0">ＥＳＴＡＴＥ</tspan></text></g></g><text transform="translate(65.227 51.042)" fill="#1a1311" font-size="8" font-family="HGSMinchoE"><tspan x="0" y="0">株式会社</tspan><tspan y="0">リバティーエステート</tspan></text></g></svg>