<svg xmlns="http://www.w3.org/2000/svg" xmlns:xlink="http://www.w3.org/1999/xlink" width="231" height="42" viewBox="0 0 231 42"><defs><clipPath id="a"><rect width="231" height="42" transform="translate(0 0.169)" fill="none"/></clipPath></defs><g transform="translate(0.277 0.154)"><g transform="translate(-0.277 -0.323)" clip-path="url(#a)"><path d="M141.392,11.5H128.617V0H122.35V33a8.177,8.177,0,0,0,8.052,8.278h10.989A8.176,8.176,0,0,0,149.443,33V19.781a8.175,8.175,0,0,0-8.051-8.277M143.177,33a1.813,1.813,0,0,1-1.786,1.835H130.4A1.812,1.812,0,0,1,128.617,33V17.945h12.775a1.813,1.813,0,0,1,1.786,1.835Z" transform="translate(-75.101 0.366)" fill="#1e4581"/><path d="M391.024,30.4H371.562v6.441h19.462a1.812,1.812,0,0,1,1.786,1.835v2.5H378.441a8.635,8.635,0,0,0-8.505,8.741v1.51a8.635,8.635,0,0,0,8.505,8.742h11.891v0h.692a8.178,8.178,0,0,0,8.054-8.275V38.679a8.176,8.176,0,0,0-8.054-8.275m0,23.326H380.035v0h-1.594a2.274,2.274,0,0,1-2.24-2.3v-1.51a2.274,2.274,0,0,1,2.24-2.3H392.81V51.9a1.811,1.811,0,0,1-1.786,1.833" transform="translate(-227.695 -18.372)" fill="#1e4581"/><path d="M467.388,34.95a2.272,2.272,0,0,1-2.238-2.3V18.329H476.32v-6.44H465.151V.069h-6.266v11.82h-4.92v6.44h4.92V32.651a8.636,8.636,0,0,0,8.5,8.742h8.971V34.95Z" transform="translate(-279.485 0.324)" fill="#1e4581"/><path d="M0,.036V32.593a8.613,8.613,0,0,0,8.5,8.7H30v-6.41H8.5a2.265,2.265,0,0,1-2.238-2.288V.036Z" transform="translate(0.307 0.344)" fill="#1e4581"/><rect width="8.211" height="6.441" transform="translate(83.038 20.161)" fill="#1e4581"/><path d="M544.687,49.146a8.635,8.635,0,0,0,8.5-8.742v-1.51a8.635,8.635,0,0,0-8.5-8.741H532.793v0H532.1a8.174,8.174,0,0,0-8.052,8.274V51.649a8.178,8.178,0,0,0,8.052,8.279h19.464V53.486H532.1a1.815,1.815,0,0,1-1.784-1.837v-2.5ZM532.1,36.6h10.989v0h1.6a2.272,2.272,0,0,1,2.236,2.3V40.4a2.271,2.271,0,0,1-2.236,2.3H530.315V38.432A1.813,1.813,0,0,1,532.1,36.6" transform="translate(-322.679 -18.218)" fill="#1e4581"/><path d="M276.831,17.63V24.1H290.9v8.708a2.251,2.251,0,0,1-2.219,2.284l-20.47,0a2.279,2.279,0,0,1-2.24-2.311V9.247a2.288,2.288,0,0,1,2.249-2.312h29.33V.462h-29.34A8.659,8.659,0,0,0,259.7,9.247V32.784a8.659,8.659,0,0,0,8.507,8.785l20.512,0a8.564,8.564,0,0,0,8.443-8.679V17.63Z" transform="translate(-159.755 0.082)" fill="#1e4581"/><rect width="6.266" height="6.441" transform="translate(34.727 0.38)" fill="#1e4581"/><rect width="6.266" height="29.768" transform="translate(34.727 12.033)" fill="#1e4581"/></g></g></svg>