<svg xmlns="http://www.w3.org/2000/svg" xmlns:xlink="http://www.w3.org/1999/xlink" width="207.152" height="68" viewBox="0 0 207.152 68"><defs><clipPath id="a"><rect width="206.969" height="54.065" fill="none"/></clipPath></defs><g transform="translate(-103 -1586)"><g transform="translate(103.183 1586.285)"><path d="M22.658,18.247v1.527L16.521,44.046,10.364,19.722V18.247H0v2.536l2.606.31.482.7V49.868l-.56.957L0,51.214V53.8H8.974V51.214l-2.452-.389-.6-.957V21.9L13.954,53.8H16.81l8.221-32.165V50.1l-.4.827-2.451.286V53.8H33.118V51.214l-2.682-.286-.424-.827V21.844l.424-.75,2.682-.31V18.247Z" transform="translate(0 -0.332)"/><g transform="translate(0 0)"><g clip-path="url(#a)"><path d="M52.538,52.626v-9.6H55.53l.637,6.365.521.8a9.469,9.469,0,0,0,1.727.543,8.438,8.438,0,0,0,1.747.182,5.043,5.043,0,0,0,3.705-1.372A4.9,4.9,0,0,0,65.256,45.9a6.641,6.641,0,0,0-.975-3.584,10.889,10.889,0,0,0-3.252-3.092q-.367-.259-1.119-.726a18.44,18.44,0,0,1-4.053-3.208,11.006,11.006,0,0,1-2.76-7.246,10.94,10.94,0,0,1,2.6-7.5,8.539,8.539,0,0,1,6.725-2.95,15.354,15.354,0,0,1,3.648.453A20.274,20.274,0,0,1,69.85,19.4V27.99H66.994l-.657-5.512-.56-.75a3.91,3.91,0,0,0-1.273-.569,6.665,6.665,0,0,0-1.621-.181,4.351,4.351,0,0,0-3.378,1.4,5.2,5.2,0,0,0-1.273,3.648,6.163,6.163,0,0,0,.724,2.989,9.436,9.436,0,0,0,2.48,2.729A23.126,23.126,0,0,0,63.8,33.256a23.624,23.624,0,0,1,3.271,2.291,10.006,10.006,0,0,1,2.644,3.545,10.71,10.71,0,0,1,.926,4.425,10.9,10.9,0,0,1-2.875,7.866,10.046,10.046,0,0,1-7.6,3,17.075,17.075,0,0,1-3.88-.454,18.389,18.389,0,0,1-3.744-1.306" transform="translate(-0.956 -0.32)"/><path d="M34.7,30.318h7.2v1.725l-1.479.173-.244.431,3.615,8.971,3.77-8.66-.206-.552-1.583-.362V30.318h5.739v1.725l-1.557.4-5.005,11.4v7.746l.425.483,1.789.19v1.759h-7.9V52.262l1.762-.19.451-.483v-6.9L36.394,32.405l-1.7-.362Z" transform="translate(-0.631 -0.552)"/><path d="M74.769,54.022V52.3l1.557-.189.475-.553V32.717l-.4-.5-1.737-.173V30.318h7.115q3.77,0,5.481,1.707t1.711,5.418a8.478,8.478,0,0,1-1.814,5.789,6.416,6.416,0,0,1-5.083,2.061q-.308,0-.759-.026t-1.042-.078v6.365l.4.553,1.878.189v1.725Zm5.507-10.851a.4.4,0,0,1,.089.018q.592.052.863.051a3.572,3.572,0,0,0,3.081-1.415A7.126,7.126,0,0,0,85.345,37.6a6.676,6.676,0,0,0-.952-3.882,3.152,3.152,0,0,0-2.74-1.345H80.276Z" transform="translate(-1.359 -0.552)"/><path d="M90.85,42.039a18.372,18.372,0,0,1,.682-5.209,11.394,11.394,0,0,1,2.032-3.985,8.511,8.511,0,0,1,2.785-2.3,7.458,7.458,0,0,1,3.377-.767,7.22,7.22,0,0,1,3.146.689,8.281,8.281,0,0,1,2.657,2.071,12.1,12.1,0,0,1,2.323,4.243,18.985,18.985,0,0,1,.089,10.627,11.956,11.956,0,0,1-2.1,4.072,8.579,8.579,0,0,1-2.727,2.3,6.81,6.81,0,0,1-3.2.8A7.728,7.728,0,0,1,93.34,51.13a15.193,15.193,0,0,1-2.49-9.091m8.929-10.006q-2.265,0-3.635,2.734a16.516,16.516,0,0,0-1.371,7.341,17.282,17.282,0,0,0,1.371,7.5q1.37,2.822,3.583,2.822,2.24,0,3.609-2.752a16.535,16.535,0,0,0,1.371-7.323,17.548,17.548,0,0,0-1.345-7.522q-1.345-2.8-3.583-2.8" transform="translate(-1.653 -0.542)"/><path d="M110.757,30.318h8.015a6.353,6.353,0,0,1,4.613,1.536,6.006,6.006,0,0,1,1.577,4.5,6.425,6.425,0,0,1-1.146,3.96,5.782,5.782,0,0,1-3.383,2.078,5.226,5.226,0,0,1,1.652.837,4.12,4.12,0,0,1,1.113,1.354,15.89,15.89,0,0,1,1.106,3.52q.271,1.155.425,1.707a3.811,3.811,0,0,0,1.061,1.94,3.2,3.2,0,0,0,2.052.544h.335v1.691q-.733.138-1.4.207a11.989,11.989,0,0,1-1.241.069,4.088,4.088,0,0,1-1.526-.285,3.456,3.456,0,0,1-1.215-.8,8.872,8.872,0,0,1-1.878-4.088l-.142-.621a9.715,9.715,0,0,0-1.608-3.942,3.339,3.339,0,0,0-2.56-.923h-.451v7.953l.425.553,1.607.189v1.725h-7.436V52.3l1.556-.189.425-.553V32.717l-.425-.5-1.556-.173Zm5.4,2.019.013,9.212c.111.012.234.02.367.026s.323.009.572.009a3.985,3.985,0,0,0,3.153-1.156,5.306,5.306,0,0,0,1.016-3.571,4.984,4.984,0,0,0-1-3.364,3.625,3.625,0,0,0-2.894-1.157Z" transform="translate(-2.016 -0.552)"/><path d="M128.37,30.318h15.2v6.244h-1.814l-.451-3.777-.386-.449h-3.165V51.554l.451.552,1.711.19v1.725h-7.887V52.3l1.724-.19.437-.552V32.337h-3.153l-.4.449-.45,3.777H128.37Z" transform="translate(-2.336 -0.552)"/><path d="M145.707,53.237v-6.4h2l.424,4.244.348.535a6.462,6.462,0,0,0,1.152.362,5.627,5.627,0,0,0,1.164.121,3.362,3.362,0,0,0,2.47-.915,3.262,3.262,0,0,0,.927-2.432,4.432,4.432,0,0,0-.65-2.39,7.281,7.281,0,0,0-2.168-2.062q-.244-.172-.746-.483a12.26,12.26,0,0,1-2.7-2.138,7.329,7.329,0,0,1-1.84-4.83,7.292,7.292,0,0,1,1.731-5,5.693,5.693,0,0,1,4.483-1.967,10.232,10.232,0,0,1,2.433.3,13.525,13.525,0,0,1,2.521.905v5.727h-1.9l-.438-3.674-.373-.5a2.593,2.593,0,0,0-.848-.38,4.414,4.414,0,0,0-1.082-.121,2.9,2.9,0,0,0-2.251.932A3.467,3.467,0,0,0,149.5,35.5a4.115,4.115,0,0,0,.482,1.992,6.322,6.322,0,0,0,1.654,1.819,15.827,15.827,0,0,0,1.576,1.01,15.648,15.648,0,0,1,2.181,1.526,6.677,6.677,0,0,1,1.763,2.364,7.145,7.145,0,0,1,.618,2.949,7.264,7.264,0,0,1-1.917,5.245,6.7,6.7,0,0,1-5.069,2,11.39,11.39,0,0,1-2.586-.3,12.218,12.218,0,0,1-2.5-.872" transform="translate(-2.652 -0.544)"/></g></g><g transform="translate(0 0)"><g clip-path="url(#a)"><path d="M160.935,53.057c-.078-.927,1.793-5.5,5.043-10.015.84-1.171,2.5-3.039,5.794-6.761l.066-.073c.82-.926,1.5-1.678,2.073-2.321a55,55,0,0,0,3.846-4.586c3.26-4.41,4.555-6.947,3.848-7.54a.665.665,0,0,0-.434-.151c-.584,0-1.519.714-3.148,2.119-1.043.9-2.018,1.922-3.963,3.961-.348.365-.59.619-.959.96a11.468,11.468,0,0,1-2.351,1.862,9.361,9.361,0,0,1,1.162-4.232,16.022,16.022,0,0,1,1.913-2.863c1.971-2.579,2.949-3.859,3.9-4.873a39.735,39.735,0,0,1,5.827-4.852c4.547-3.426,7.443-5.606,7.839-5.879,5.881-4.066,8.6-5.2,10.662-5.825.124-.037.313-.1.553-.179A22.657,22.657,0,0,1,208.256.5c.572,0,.97.109,1.088.3.274.438-.324,1.845-1.017,3.475a19.728,19.728,0,0,1-.957,1.914,22.669,22.669,0,0,1-1.446,2.21l-.493.7c-.647.921-1.02,1.5-1.376,2.048-.19.293-.374.578-.594.905-3.2,4.773-4.81,7.168-7.675,8.675a33.544,33.544,0,0,1-4.829,1.93c-.544.174-1.058.322-1.5.45-1.476.427-1.871.543-1.781,1.082.088.5.657.5,1.16.5.55,0,1.376-.045,2.3-.1,0,0,1.85-.109,2.082-.119A12.165,12.165,0,0,1,190.42,26.1a17.693,17.693,0,0,1-3.106.9c-.587.143-1.311.319-2.219.545-2.718.678-3.364.839-3.317,1.494.044.617.754.673,1.93.766a8.255,8.255,0,0,1,1.955.3,16.113,16.113,0,0,1-2.958,1.748c-.645.338-1.367.714-2.144,1.137-6.212,3.385-8.928,5.877-10.43,7.457-2.625,2.76-3.631,4.62-2.992,5.53a1.443,1.443,0,0,0,1.276.515,9.189,9.189,0,0,0,1.761-.252l.165-.035c-.477.343-1.13.764-1.7,1.132-.438.283-.9.582-1.372.894a53.679,53.679,0,0,0-5.134,3.874,12.62,12.62,0,0,1-1.2.945" transform="translate(-2.929 -0.009)"/><path d="M208.248.982a1.809,1.809,0,0,1,.664.087,12.126,12.126,0,0,1-1.046,3,18.961,18.961,0,0,1-.933,1.864,22.242,22.242,0,0,1-1.421,2.17c-.151.213-.314.442-.492.7-.653.931-1.026,1.507-1.386,2.064-.189.292-.371.574-.589.9-3.157,4.7-4.742,7.065-7.5,8.514a33.16,33.16,0,0,1-4.749,1.9c-.54.171-1.051.319-1.488.446-1.48.428-2.294.665-2.128,1.638.156.91,1.123.91,1.643.91.569,0,1.382-.044,2.324-.1l.269-.015a13.321,13.321,0,0,1-1.2.587,17.507,17.507,0,0,1-3.025.875c-.589.143-1.314.32-2.225.548-2.891.721-3.764.938-3.688,2,.075,1.038,1.143,1.122,2.38,1.22.21.017.491.038.77.068-.553.321-1.283.7-1.964,1.057-.647.339-1.37.716-2.149,1.141-6.271,3.415-9.025,5.944-10.55,7.549-4.233,4.451-3.364,5.686-3.038,6.15a1.858,1.858,0,0,0,1.548.723c-.414.267-.85.549-1.289.84a54.111,54.111,0,0,0-5.177,3.908l-.066.056a36.159,36.159,0,0,1,4.62-8.463c.833-1.158,2.5-3.042,5.829-6.8.82-.925,1.494-1.677,2.073-2.32a55.277,55.277,0,0,0,3.873-4.62c5.187-7.017,4.3-7.763,3.768-8.208a1.144,1.144,0,0,0-.749-.266c-.746,0-1.673.69-3.469,2.238-1.058.913-2.04,1.943-4,3.994l-.047.048c-.3.313-.533.56-.891.89-.388.358-.985.909-1.476,1.3a12.482,12.482,0,0,1,1.059-3.091,15.735,15.735,0,0,1,1.862-2.781c1.952-2.554,2.932-3.835,3.864-4.835a39.467,39.467,0,0,1,5.764-4.8c4.547-3.426,7.442-5.6,7.822-5.867,5.826-4.027,8.5-5.148,10.525-5.758.127-.038.319-.1.563-.182a22.329,22.329,0,0,1,5.5-1.286m0-.982c-2.1,0-5.563,1.272-6.351,1.51-1.886.569-4.632,1.628-10.8,5.891-.38.262-2.873,2.136-7.854,5.891a40.153,40.153,0,0,0-5.891,4.909c-.966,1.035-1.953,2.326-3.927,4.909a16.521,16.521,0,0,0-1.964,2.945c-.97,1.977-1.6,4.558-.982,4.909a.367.367,0,0,0,.179.042c.593,0,1.755-1.073,2.767-2.006.4-.369.655-.638.982-.982,1.937-2.03,2.905-3.046,3.927-3.927.848-.731,2.32-2,2.828-2a.178.178,0,0,1,.118.036c.489.409-1.994,4.257-3.927,6.873-1.677,2.269-2.653,3.219-5.891,6.873-3.353,3.783-5.029,5.675-5.891,6.873-3.3,4.594-5.775,10.178-4.909,10.8a.265.265,0,0,0,.158.049c.648,0,2.174-1.934,6.715-4.958,2.08-1.385,4.1-2.538,3.927-2.945-.033-.079-.139-.11-.3-.11-.58,0-1.856.417-2.755.417a1.025,1.025,0,0,1-.875-.307c-.7-1,2.293-4.223,2.945-4.909,1.493-1.571,4.207-4.04,10.309-7.364,3.3-1.8,5.573-2.745,5.4-3.436-.211-.847-3.894-.522-3.927-.982-.016-.223.837-.457,2.945-.982a36.833,36.833,0,0,0,5.4-1.473c1.847-.791,3.6-2.038,3.436-2.455-.036-.094-.163-.13-.489-.13-.416,0-1.16.059-2.456.13-.908.049-1.727.094-2.27.094-.411,0-.664-.026-.675-.094a14.332,14.332,0,0,1,2.945-.982,33.79,33.79,0,0,0,4.909-1.964c2.975-1.564,4.653-4.065,7.854-8.836.63-.939.974-1.536,1.964-2.945a31.7,31.7,0,0,0,1.964-2.945,19.788,19.788,0,0,0,.982-1.964c.844-1.984,1.392-3.273.982-3.927-.239-.382-.792-.528-1.5-.528" transform="translate(-2.921 0)"/></g></g></g><rect width="207" height="68" transform="translate(103 1586)" fill="none"/></g></svg>