<svg xmlns="http://www.w3.org/2000/svg" xmlns:xlink="http://www.w3.org/1999/xlink" width="205.563" height="64.49" viewBox="0 0 205.563 64.49"><defs><clipPath id="a"><rect width="205.563" height="64.49" fill="none"/></clipPath></defs><g clip-path="url(#a)"><path d="M458.575,513.366A15.956,15.956,0,1,1,442.62,497.41a15.955,15.955,0,0,1,15.956,15.956" transform="translate(-416.553 -485.622)" fill="#fff"/><path d="M327.567,375.367a18.8,18.8,0,0,0-18.8,18.8c0,.013,0,.03,0,.046V422H314.4v-14.41a18.8,18.8,0,1,0,13.164-32.225m0,31.966a13.163,13.163,0,1,1,13.162-13.162,13.162,13.162,0,0,1-13.162,13.162" transform="translate(-301.446 -366.471)" fill="#008a32"/><path d="M591.93,694.858h-8.62v-8.618h-5.638v8.618h-8.623V700.5h8.623v8.617h5.638V700.5h8.62Z" transform="translate(-555.563 -669.976)" fill="#dc000c"/><path d="M877.248,1875.173h-1.855l.908-4.253Zm-2.795,3.67.416-1.5h2.844l.43,1.5h3.983l-3.957-11.337h-3.68l-3.956,11.337Z" transform="translate(-849.903 -1823.248)" fill="#008a32"/><path d="M1607.676,1923.079v-10.2h3.759v7.965h3.133v2.231Z" transform="translate(-1569.576 -1867.55)" fill="#008a32"/><path d="M2316.653,649.973a72.571,72.571,0,0,1-1.176,13.211,29.6,29.6,0,0,1-3.683,9.09,37.856,37.856,0,0,1-6.692,8.149l-3.646-3.452a30.222,30.222,0,0,0,5.138-6.223,35.452,35.452,0,0,0,3.161-7.176q1.347-4.129,1.49-13.759Zm20.065,26.477-4.041,3.756a31.711,31.711,0,0,1-6.316-9.377,45.353,45.353,0,0,1-3.151-10.517,56.111,56.111,0,0,1-.916-9.207l.018-1.223,5.424-.11v.6a48.1,48.1,0,0,0,1.877,13.778,33.326,33.326,0,0,0,7.1,12.3m1.643-25.611a4.129,4.129,0,0,1-1.309,3.141,5.015,5.015,0,0,1-6.6,0,4.431,4.431,0,0,1,0-6.288,5.01,5.01,0,0,1,6.6,0,4.128,4.128,0,0,1,1.309,3.147m-3.169-1.435a2.049,2.049,0,1,0,.582,1.435,1.941,1.941,0,0,0-.582-1.435" transform="translate(-2246.913 -631.133)" fill="#1a1311"/><path d="M3868.9,803.816q.033,8.446-2.786,13.234a19.009,19.009,0,0,1-8.657,7.513l-2.1-4.384a13.657,13.657,0,0,0,6.055-5.7q2.116-3.782,2.118-11.509v-8.46h5.372ZM3892,809.6a27.869,27.869,0,0,1-6.96,9.223,23.06,23.06,0,0,1-9.71,5.074l-2.135-1.76V793.452h5.37v23.441q5.516-2.71,9.269-10.543Z" transform="translate(-3763.991 -774.648)" fill="#1a1311"/><path d="M5441.915,760.1a49.48,49.48,0,0,1-13.831,4.651l-1.437-3.682a58.182,58.182,0,0,0,11.047-3.358h-9.771v-3.627h13.992V752.6h-4.975v-2.838a36.006,36.006,0,0,1-8.317,3.861l-1.688-3.9a36.141,36.141,0,0,0,4.7-1.733,33.325,33.325,0,0,0,4.105-2.023l1.185,2.731-.018-8.03h5.1c.3-.884.573-1.768.824-2.64l4.492.537q-.219.484-1.007,2.1h5.442v2.695a27.355,27.355,0,0,0,5.6-5.046l3.971,2.387a33.1,33.1,0,0,1-6.129,5.157q2.911,1.74,6.938,4.274l-3.236,3.412-7.148-4.669v3.72h-5.03v1.474h14.458v3.627H5450.9a33.983,33.983,0,0,0,4.734,1.6q2.216.555,6.8,1.347l-2.155,4.1a42.2,42.2,0,0,1-13.58-4.815v5.138h-4.778Zm-5.334-16.257-3.469,3.055a45.115,45.115,0,0,0-5.657-5.374l3.235-2.946a37.125,37.125,0,0,1,2.938,2.455q2.073,1.857,2.954,2.811m24.607-6.358h-7.506v1.473h-4.563V737.48h-9.089v1.473h-4.67V737.48h-7.58v-3.095h7.58v-1.615h4.67v1.615h9.089v-1.615h4.563v1.615h7.506Zm-14.046,7.905-.017-1.98h-5.657v1.98Zm.021,4.307-.021-2.026h-5.674v2.026Zm4.6-5.838v4.421l2.281-2.335Z" transform="translate(-5298.042 -715.405)" fill="#1a1311"/><path d="M6999.794,784.351V791.3q0,1.617-.1,5.057a11.263,11.263,0,0,1-1.363,5.541q-1.267,2.1-4.752,2.105h-5.194l-.732-4.276h4.525a2.063,2.063,0,0,0,2.092-1.3q.546-1.3.546-8.093c0-.694-.005-1.422-.015-2.19h-19.974q-.557,9.916-4.833,16.039l-3.937-2.5q3.861-6.126,3.864-15.2V772.906h28.22v9.344H6974.9v2.1Zm-24.9-5.585H6993.5v-2.174H6974.9Zm16.886,19.937h-11.087v1.276h-4.558V790.1h15.645Zm-4.635-5.44h-6.414v2.35h6.414Z" transform="translate(-6800.969 -754.589)" fill="#1a1311"/></g></svg>