<svg xmlns="http://www.w3.org/2000/svg" xmlns:xlink="http://www.w3.org/1999/xlink" width="152.879" height="63.699" viewBox="0 0 152.879 63.699"><defs><clipPath id="a"><rect width="152.879" height="63.699" fill="none"/></clipPath></defs><g clip-path="url(#a)"><path d="M151.18,63.7H1.7A1.7,1.7,0,0,1,0,62V1.7A1.7,1.7,0,0,1,1.7,0H151.18a1.7,1.7,0,0,1,1.7,1.7V62a1.7,1.7,0,0,1-1.7,1.7" fill="#1a1311"/><path d="M134.618,21.5V39.382H122.012v5.961h-6.318V21.5Zm-6.32,5.969h-6.286v5.953H128.3Z" transform="translate(-84.496 -15.702)" fill="#ef172f"/><path d="M222.588,21.5V45.343h-6.32V39.382h-6.286v5.961h-6.318V21.5Zm-6.32,5.969h-6.286v5.953h6.286Z" transform="translate(-148.744 -15.702)" fill="#ffd300"/><path d="M306.339,36.405h6.318v8.937h-6.318V39.39h-6.286v5.953h-6.318V21.5h18.922V33.437h-6.318Zm0-8.954h-6.287v5.985h6.287Z" transform="translate(-214.526 -15.702)" fill="#50cc1a"/><path d="M402.948,21.5v10.43h-3.159v2.984h3.159v10.43h-6.32V36.4h-6.286v8.941h-6.318V21.5h6.318v8.937h6.286V21.5Z" transform="translate(-280.467 -15.701)" fill="#a615ac"/><path d="M32.117,132.268v2.984H44.723v14.891H25.8V144.19H38.405v-2.984H25.8V126.3H44.723v5.969Z" transform="translate(-18.842 -92.241)" fill="#ef172f"/><path d="M134.793,126.3v17.884H122.187v5.961h-6.318V126.3Zm-6.32,5.969h-6.286v5.953h6.286Z" transform="translate(-84.624 -92.24)" fill="#ff3600"/><path d="M222.762,150.143H203.838V126.3h18.924Zm-6.32-17.875h-6.286v11.914h6.286Z" transform="translate(-148.871 -92.241)" fill="#ffd300"/><path d="M306.512,141.2h6.318v8.938h-6.318v-5.953h-6.287v5.953h-6.319V126.3H312.83v11.938h-6.318Zm0-8.954h-6.287v5.985h6.287Z" transform="translate(-214.652 -92.24)" fill="#50cc1a"/><path d="M403.124,126.3v5.969h-6.318v17.875h-6.288V132.267H384.2V126.3Z" transform="translate(-280.596 -92.241)" fill="#0071c0"/><path d="M477.271,132.268v2.984h12.606v14.891H470.952V144.19h12.606v-2.984H470.952V126.3h18.924v5.969Z" transform="translate(-343.955 -92.241)" fill="#a615ac"/></g></svg>