<svg xmlns="http://www.w3.org/2000/svg" xmlns:xlink="http://www.w3.org/1999/xlink" width="222.67" height="60.919" viewBox="0 0 222.67 60.919"><defs><clipPath id="a"><rect width="222.67" height="60.919" fill="none"/></clipPath></defs><g transform="translate(0 0)"><g transform="translate(0 0)" clip-path="url(#a)"><path d="M32.283,17.07V8.411C21.776,6.043,17.729,6.234,15.559,6.35,14.344,6.414.559,7,.017,16.8c-.307,5.532,3.378,9.086,8.5,10.253,1.859.423,10.937,1.882,11.308,1.945.348.056,3.049.572,3.886,2.428.752,1.657-.8,3.868-3.976,4.107C15.1,35.889,5.284,34.434.29,32.388v8.8s8.577,2.278,13.578,2.454c4.358.153,10-.067,14.7-2.278A10.785,10.785,0,0,0,34.681,32.2a8.02,8.02,0,0,0-3.1-7.088c-3.026-2.465-8.095-3.273-9.7-3.6-.733-.15-5.843-1.04-7.885-1.436-.744-.146-3.857-1.1-3.711-3,.18-2.327,3.583-2.761,4.477-2.847a38.683,38.683,0,0,1,7.893.64c2.562.434,8.338,1.844,9.628,2.207" transform="translate(-0.002 17.237)" fill="#6dad19"/><path d="M20.84,10.4l0,31.552H31V14.74h12.06a2.669,2.669,0,0,1,2.727,2.873,3.121,3.121,0,0,1-2.914,2.959c-2.02.03-4.982.011-4.982.011a4.972,4.972,0,0,0-4.522,3.5c-.931,3.191,2.315,6.318,2.315,6.318L45.67,41.952H56.622S45.449,28.965,45.116,28.434c.509-.4,9.3-1.014,9.83-11.042C55.115,6.17,44.14,6.529,43.979,6.529H24.719A3.876,3.876,0,0,0,20.84,10.4" transform="translate(57.114 17.888)" fill="#6dad19"/><path d="M23.557,16" transform="translate(64.56 43.843)" fill="#6dad19"/><path d="M22.988,35.555l-2.914,6.98H9.032L23.254,10.994a7.149,7.149,0,0,1,6.98-4.679,7.144,7.144,0,0,1,6.98,4.679L51.435,42.535H40.393l-2.914-6.98Zm7.246-18.022-4.549,11.54h9.187Z" transform="translate(24.753 17.306)" fill="#6dad19"/><path d="M59.66,18.9a2.011,2.011,0,0,1-1.945-1.148L51,6.526H39.783L54.536,28.614V41.953H64.785V28.614L79.538,6.526H68.32L61.606,17.748A2.011,2.011,0,0,1,59.66,18.9" transform="translate(109.029 17.884)" fill="#6dad19"/><path d="M44.67,35.555l-2.914,6.98H30.714L44.936,10.994a7.144,7.144,0,0,1,6.98-4.679,7.144,7.144,0,0,1,6.98,4.679L73.121,42.535H62.075l-2.914-6.98Zm7.246-18.022-4.549,11.54h9.187Z" transform="translate(84.174 17.306)" fill="#6dad19"/><path d="M62.147,35.555l-2.914,6.98H48.191L62.413,10.994a7.545,7.545,0,0,1,13.96,0L90.594,42.535H79.552l-2.914-6.98Zm7.246-18.022-4.549,11.54h9.187Z" transform="translate(132.072 17.306)" fill="#6dad19"/><path d="M3.493,12.677c-1.451,0-3.258-2.622-3.258-6.954A27.891,27.891,0,0,1,.882.389L2.337.838c.209.064.333.094.333.243,0,.209-.221.232-.344.232A15.378,15.378,0,0,0,1.6,6.037c0,2.764,1.107,4.949,1.93,4.949.774,0,1.552-2.009,2-3.12a4.02,4.02,0,0,0,.984.887c-.352.887-1.575,3.924-3.015,3.924m8.749-2.7A13.845,13.845,0,0,0,9.4,1.941l1.186-.729a16,16,0,0,1,3.131,8.143c-.082.034-1.309.557-1.47.621" transform="translate(0.644 1.065)" fill="#302d2c"/><path d="M17.119,10.888a9.136,9.136,0,0,1-3.785,2.151,5.927,5.927,0,0,0-.894-1.219c4.713-.995,5.207-4.287,5.207-5.562A4.562,4.562,0,0,0,12.836,1.6a22.885,22.885,0,0,1-1.724,7.29c-.872,2.061-1.623,2.9-2.5,2.9-1.167,0-2.974-1.844-2.974-4.433A7.288,7.288,0,0,1,12.817.351C16.206.351,19,2.618,19,6.224a6.749,6.749,0,0,1-1.882,4.665M6.933,7.279c0,1.706.931,2.959,1.612,2.959s1.253-1.5,1.638-2.5A18.451,18.451,0,0,0,11.41,1.81,5.927,5.927,0,0,0,6.933,7.279" transform="translate(15.443 0.961)" fill="#302d2c"/><path d="M21.1,13.323a13.848,13.848,0,0,1-5.136.838c-.857,0-1.373-.049-1.807-.075a4.576,4.576,0,0,0-.314-1.35,19.622,19.622,0,0,0,2.51.157c2.805,0,6.03-.756,6.03-3.254,0-2.125-2.312-2.125-2.753-2.125A8.8,8.8,0,0,0,13.4,10.555l-1.171-.617a22.2,22.2,0,0,0,2.532-5.63c-.49.019-.95.03-1.507.03-.995,0-1.668-.03-2.2-.067V2.823a24.755,24.755,0,0,0,4.077.2A19.994,19.994,0,0,0,15.792.051l1.481.4c.273.067.34.127.34.187,0,.18-.262.213-.352.221-.034.108-.1.318-.662,2.042a23.907,23.907,0,0,0,5.9-1.328c.045.206.288,1.111.34,1.3a27.031,27.031,0,0,1-6.669,1.343,38.752,38.752,0,0,1-1.418,3.7A9.436,9.436,0,0,1,19.761,6.35c2.835,0,4.029,1.564,4.029,3.329A4.086,4.086,0,0,1,21.1,13.323" transform="translate(30.311 0.139)" fill="#302d2c"/><path d="M24.93,7.923c.03.4.082,1.044.082,1.852,0,.662-.037,1.122-.067,1.5-.872-.015-1.118,0-1.38,0a14.84,14.84,0,0,0,.082-1.706c0-.512-.015-.823-.034-1.062C20.564,9.995,20.34,10.911,20.34,11.5c0,.46,0,1.343,3.224,1.343a18.434,18.434,0,0,0,4.833-.632,5.928,5.928,0,0,0-.165,1.455,19.008,19.008,0,0,1-4.044.378c-1.291,0-5.1,0-5.1-2.517,0-1.676,1.825-3.064,4.365-4.249a1.439,1.439,0,0,0-1.612-1.253A3.919,3.919,0,0,0,19,7.575a19.025,19.025,0,0,0-1.68,2.244l-1.107-.864a31.153,31.153,0,0,0,3.92-5.4c-1.717.075-1.99.075-3.206.067V2.3a22.535,22.535,0,0,0,2.274.09c.318,0,.931,0,1.567-.045A12.529,12.529,0,0,0,21.728.03l1.305.3c.123.034.344.086.344.269s-.251.224-.43.236c-.187.434-.363.808-.643,1.384a20.072,20.072,0,0,0,4.156-.875l.03,1.4c-1.863.382-3.95.632-4.852.726-.46.823-.849,1.406-1.216,1.979a3.625,3.625,0,0,1,1.766-.46,2.436,2.436,0,0,1,2.5,1.706c.587-.247,3.165-1.313,3.67-1.564l.535,1.421A36.262,36.262,0,0,0,24.93,7.923" transform="translate(44.436 0.081)" fill="#302d2c"/><path d="M25.886,11.5a5.009,5.009,0,0,0-.516-1.455c1.915-.019,8.6-.079,8.6-4.586,0-.655-.168-3.651-3.965-3.651a21.462,21.462,0,0,0-8.024,2.342l-.688-1.792A16.644,16.644,0,0,0,23.3,1.953C27.925.67,28.434.547,30.188.547c3.688,0,5.222,2.431,5.222,4.878,0,3.864-3.868,5.847-9.524,6.078" transform="translate(58.344 1.498)" fill="#302d2c"/><path d="M31.75,4.048a32.877,32.877,0,0,1-3.688,7.75c-.408-.213-.628-.3-1.283-.569a28.756,28.756,0,0,0,3.5-7.006,26.958,26.958,0,0,1-2.992.112l-.172-1.4a12.961,12.961,0,0,0,1.646.09,14.53,14.53,0,0,0,1.915-.108A25.4,25.4,0,0,0,31.335.064l1.444.4c.172.045.251.094.251.2,0,.176-.206.195-.325.206-.258.864-.34,1.13-.565,1.855a15.173,15.173,0,0,0,2.615-.677,6.488,6.488,0,0,0,.03,1.369,22.772,22.772,0,0,1-3.034.636m7.369,9.5a14.188,14.188,0,0,0-2.675-1.859c.007,2.409-2.327,2.409-2.865,2.409-1.769,0-3.191-.834-3.191-2.3,0-1.077.8-2.185,2.847-2.185a6.018,6.018,0,0,1,1.754.269A10.681,10.681,0,0,1,34.8,8.144a3,3,0,0,1,1.107-2.2l1.107.748A2.009,2.009,0,0,0,36.16,8.4a8.725,8.725,0,0,0,.243,1.911,16.783,16.783,0,0,1,3.531,2.2c-.3.344-.5.628-.815,1.04m-5.858-2.88c-.838,0-1.623.352-1.623,1.126,0,1.2,1.769,1.2,1.852,1.2,1.766,0,1.7-1.137,1.68-1.867a4.365,4.365,0,0,0-1.908-.46M39.546,6.2a10.036,10.036,0,0,0-4.081-2.061l.756-1.118a11.131,11.131,0,0,1,4.088,2.009c-.262.378-.557.819-.763,1.171" transform="translate(73.39 0.174)" fill="#302d2c"/><path d="M40.542,14.944a28.513,28.513,0,0,0-6.531-5.749c-1.739-1.156-1.84-1.219-1.84-1.807,0-.52.221-.692,1.642-1.784A37.824,37.824,0,0,0,39.749,0L41.01.883c.094.071.251.195.251.288s-.1.161-.206.161c-.06,0-.153-.037-.251-.049-1,.965-3.905,3.464-6.179,5.252-.239.191-.729.569-.729.8,0,.284.094.348.95.9a30.791,30.791,0,0,1,6.819,5.521c-.314.3-.763.808-1.122,1.182m1.867-9.12a9.164,9.164,0,0,0-1.635-1.709l.748-.662A13.658,13.658,0,0,1,43.146,5.11a6.557,6.557,0,0,0-.737.714m1.414-1.5a8.208,8.208,0,0,0-1.549-1.8l.744-.6a8.828,8.828,0,0,1,1.6,1.713,3.829,3.829,0,0,0-.8.692" transform="translate(88.167 -0.001)" fill="#302d2c"/></g></g></svg>