<svg xmlns="http://www.w3.org/2000/svg" xmlns:xlink="http://www.w3.org/1999/xlink" width="238.207" height="40" viewBox="0 0 238.207 40"><defs><clipPath id="a"><rect width="238.207" height="40" fill="none"/></clipPath></defs><g transform="translate(0 0)"><g transform="translate(0 0)" clip-path="url(#a)"><path d="M34.536,11.533V2.269C23.3-.264,18.966-.06,16.645.064,15.344.132.6.76.018,11.245c-.328,5.918,3.613,9.72,9.1,10.968,1.989.452,11.7,2.013,12.1,2.081.372.06,3.261.612,4.158,2.6.8,1.773-.856,4.138-4.254,4.394-4.966.38-15.462-1.176-20.8-3.365v9.416s9.176,2.437,14.526,2.625c4.662.164,10.7-.072,15.73-2.437A11.538,11.538,0,0,0,37.1,27.715a8.579,8.579,0,0,0-3.321-7.583c-3.237-2.637-8.659-3.5-10.372-3.85-.784-.16-6.25-1.112-8.435-1.537-.8-.156-4.126-1.172-3.97-3.213.192-2.489,3.834-2.953,4.79-3.045a41.383,41.383,0,0,1,8.443.684c2.741.464,8.92,1.973,10.3,2.361" transform="translate(-0.002 -0.002)" fill="#6dad19"/><path d="M20.84,4.381l0,33.754H31.712V9.023h12.9A2.855,2.855,0,0,1,47.531,12.1a3.339,3.339,0,0,1-3.117,3.165c-2.161.032-5.33.012-5.33.012a5.319,5.319,0,0,0-4.838,3.745c-1,3.413,2.477,6.759,2.477,6.759L47.4,38.134H59.119S47.167,24.241,46.81,23.672c.544-.424,9.944-1.084,10.516-11.813C57.507-.145,45.766.239,45.594.239H24.99a4.147,4.147,0,0,0-4.15,4.142" transform="translate(62.553 0.712)" fill="#6dad19"/><path d="M23.557,9.708" transform="translate(70.709 29.138)" fill="#6dad19"/><path d="M23.962,31.306l-3.117,7.467H9.032L24.246,5.031A7.648,7.648,0,0,1,31.713.025,7.643,7.643,0,0,1,39.18,5.031L54.394,38.773H42.581l-3.117-7.467Zm7.751-19.28L26.847,24.371h9.828Z" transform="translate(27.11 0.073)" fill="#6dad19"/><path d="M61.048,13.469a2.151,2.151,0,0,1-2.081-1.228l-7.183-12h-12L55.565,23.865v14.27H66.53V23.865L82.312.236h-12l-7.183,12a2.151,2.151,0,0,1-2.081,1.228" transform="translate(119.413 0.707)" fill="#6dad19"/><path d="M45.644,31.306l-3.117,7.467H30.714L45.928,5.031A7.643,7.643,0,0,1,53.4.025a7.643,7.643,0,0,1,7.467,5.006L76.08,38.773H64.263l-3.117-7.467ZM53.4,12.026,48.529,24.371h9.828Z" transform="translate(92.191 0.073)" fill="#6dad19"/><path d="M63.121,31.306,60,38.773H48.191L63.405,5.031a8.072,8.072,0,0,1,14.934,0L93.553,38.773H81.74l-3.117-7.467Zm7.751-19.28L66.006,24.371h9.828Z" transform="translate(144.65 0.073)" fill="#6dad19"/></g></g></svg>