<svg xmlns="http://www.w3.org/2000/svg" xmlns:xlink="http://www.w3.org/1999/xlink" width="115.885" height="82.452" viewBox="0 0 115.885 82.452"><defs><clipPath id="a"><rect width="115.885" height="82.452" fill="none"/></clipPath></defs><g clip-path="url(#a)"><path d="M36.622,54.339c-.7.649-1.6,1.269-2.208,1.777a16.99,16.99,0,0,0,2.208-1.777M81.9,58.25a27.9,27.9,0,0,1,3.159-2.964l-5.178,3.323c.749-.291,1.792.163,2.019-.359M7.9,81.287,5.67,83.794A20.87,20.87,0,0,0,7.9,81.287M37.572,53.15a2.905,2.905,0,0,1-.518.752,24.92,24.92,0,0,0,5.184-8.235c-.538.6-1.128,1.212-1.773,1.894-1,1.828-2.05,3.661-2.892,5.59M117.04,10.875l-1.085.55s-.288-.551-.574-1.1.257-.827.513-1.654c-2.173,1.1-4.892,2.474-7.639,2.471-.833-.277-1.4-1.38-1.948-1.105a29.783,29.783,0,0,1-4.667.27C95.629,11.948,83.128,7.057,77.6,5.671L84.29,8.624l-.542.275c.86,1.657,3.895,2.212,2.294,4.415,1.69,1.932,4.153,1.385,5.3,3.592l-1.63.826c-1.6,2.2-2.085,5.236-2.855,7.718a2.144,2.144,0,0,1,1.375,0c1.118.828.318,1.929.06,2.756a54.8,54.8,0,0,0-3.764,7.132c-.109-.312-.184-.639-.288-.9-.849-6.578-2.447-12.863-6.747-17.225-.683,1.563.88,2.246,1.174,2.995-1.857-1.431-3.031-4.428-5.116-5.338-1.042-.457-4.269-2.1-5.768-1.514-1.27.066-3.123,1.971-4.1,2.787a24.667,24.667,0,0,0-.777,2.687,17.661,17.661,0,0,1-1.665,4.316c-.877,7.687-2.5,15.666-5.986,22.214C55.671,32.891,53.2,30.18,51.8,27.7A12.45,12.45,0,0,1,49.874,25a7.019,7.019,0,0,0-10.52-1.5c-.456,1.043-5.37,9.447-4.88,14.006C35.164,42.194,15.3,72.042,7.9,81.287l20.665-23.21c.749-.292,3.893-5.968,3.894-.331,0,1.609,4.336-6.32,5.313-7.136.99-1.231,1.883-2.2,2.69-3.049,1.7-3.12,3.216-6.226,3.194-9.756.227-.521.75-.293.977-.814a41.968,41.968,0,0,1-2.4,8.677,14.186,14.186,0,0,0,3.506-6.951c-.162,1.792,1.4,2.475,1.987,3.972.293.751-.456,1.043-.162,1.793A22.287,22.287,0,0,1,49.135,55.1c-.325,3.585,3.911,6.679,7.428,5.734,5.243-2.056,11.1-6.946,10.775-13.3-1.139,2.607-1.008,5.149-3.482,6.552,1.626-7.986,4.294-15.509,2.337-23.813.162-1.792-.2-3.81,1.008-5.147,3.126,1.367-.325,3.584,1.532,5.016a3.436,3.436,0,0,0,.391-2.314c2.018-.358,2.832.619,3.647,1.6,2.869,6.219,2.444,12.863,2.774,19.216-.259,4.855-2.6,8.8-2.862,13.654.294.749.359,2.017,1.109,1.726l.456-1.043,1.041.454L85.919,52.091c-2.311-.39,4.739-6.778,2.654-7.689q.192-.437.381-.873L94.6,40.35c1.766-7.169,6.6-12.4,10.6-17.911,3.488-3.854,8.124-5.5,11.612-9.359.257-.826,1.058-1.929.226-2.205M66.514,16.757c.229-.521.229-.521-.293-.748.228-.521.748-.294,1.271-.065-.228.52-.456,1.041-.978.813m7.819,3.418c-.816-.977-1.857-1.433-2.672-2.408,1.041.454,2.313.389,2.9,1.887ZM80.1,28.283c-1.042-.456-1.107-1.726-1.4-2.474.294.748,1.336,1.2,1.63,1.953Zm1.892,7.034c-1.564-.683-1.173-3-1.239-4.266A6.859,6.859,0,0,0,82.218,34.8Zm1.922,1.571c-1.922-5.061-3.23-10.381-5.7-15.64l1.563.683c2.855,4.173,3.716,9.126,4.46,14.123-.111.279-.216.556-.318.834" transform="translate(-3.597 -3.598)" fill="#070202"/><path d="M194.974,181.955v-1.136a.48.48,0,0,1-.188.04.434.434,0,0,1-.179-.038.462.462,0,0,1-.146-.1.5.5,0,0,1-.1-.147.457.457,0,0,1,.1-.5.488.488,0,0,1,.367-.136.546.546,0,0,1,.4.144.531.531,0,0,1,.146.4v1.28h.938V179.97h.4v1.985Zm.094-1.557a.287.287,0,1,0-.084.2.27.27,0,0,0,.084-.2" transform="translate(-123.276 -114.149)" fill="#1a1311"/><path d="M203.638,179.987a.336.336,0,0,1-.174.276.786.786,0,0,1-.543.049c-.061-.018-.119-.037-.173-.057l-.165-.057a.556.556,0,0,0-.175-.027.357.357,0,0,0-.276.109.467.467,0,0,0-.121.268h1.463v.878a.539.539,0,0,1-.176.424.633.633,0,0,1-.434.155.476.476,0,0,1-.191-.037.518.518,0,0,1-.154-.1.445.445,0,0,1-.1-.146.457.457,0,0,1-.037-.184.464.464,0,0,1,.037-.181.442.442,0,0,1,.1-.149.531.531,0,0,1,.154-.1.517.517,0,0,1,.4.007v-.4h-1.493a.882.882,0,0,1,.2-.568.7.7,0,0,1,.539-.191.711.711,0,0,1,.218.03,1.631,1.631,0,0,1,.171.064l.141.065a.323.323,0,0,0,.134.029.173.173,0,0,0,.129-.044.2.2,0,0,0,.055-.119Zm-.471,1.552a.3.3,0,1,0-.089.214.291.291,0,0,0,.089-.214" transform="translate(-127.882 -114.165)" fill="#1a1311"/><path d="M201.433,178.293a.586.586,0,0,1,.283-.434,1.535,1.535,0,0,1,1.428,0,.586.586,0,0,1,.283.434Zm1.558-.144a.409.409,0,0,0-.178-.221.824.824,0,0,0-.769,0,.4.4,0,0,0-.173.223Z" transform="translate(-127.786 -112.719)" fill="#1a1311"/><path d="M210.653,180.709a.71.71,0,0,1-.139.342.967.967,0,0,1-.312.273v.63h-1.781v-1.136a.484.484,0,0,1-.188.04.437.437,0,0,1-.179-.038.468.468,0,0,1-.146-.1.493.493,0,0,1-.1-.146.438.438,0,0,1-.037-.179.447.447,0,0,1,.133-.325.49.49,0,0,1,.367-.136.548.548,0,0,1,.4.143.534.534,0,0,1,.145.4v1.28h.988v-.3l-.074.008-.075,0a.978.978,0,0,1-.5-.114.365.365,0,0,1-.2-.337.33.33,0,0,1,.109-.248.364.364,0,0,1,.263-.1.376.376,0,0,1,.258.1.324.324,0,0,1,.109.256.348.348,0,0,1-.042.174.328.328,0,0,1-.1.114.778.778,0,0,0,.248-.01v-1.32h.4v1.1a.609.609,0,0,0,.144-.357Zm-2.138-.312a.281.281,0,0,0-.481-.2.281.281,0,1,0,.4.4.272.272,0,0,0,.084-.2m1.022.615a.194.194,0,0,0-.062-.144.206.206,0,0,0-.146-.059.2.2,0,0,0-.2.2.2.2,0,0,0,.2.2.2.2,0,0,0,.146-.06.191.191,0,0,0,.062-.144" transform="translate(-131.807 -114.149)" fill="#1a1311"/><path d="M213.507,177.153a.56.56,0,0,1-.022.254.655.655,0,0,1-.159.26.905.905,0,0,1-.31.2,1.19,1.19,0,0,1-.466.082,1.108,1.108,0,0,1-.32-.04.655.655,0,0,1-.216-.1.382.382,0,0,1-.121-.143.375.375,0,0,1-.037-.164.342.342,0,0,1,.1-.243.359.359,0,0,1,.273-.1.4.4,0,0,1,.283.1.326.326,0,0,1,.109.246.511.511,0,0,1-.027.156.238.238,0,0,1-.111.136.613.613,0,0,0,.315-.05.642.642,0,0,0,.221-.163.507.507,0,0,0,.112-.216.4.4,0,0,0,0-.211Zm-1.072.353a.2.2,0,0,0-.059-.144.2.2,0,0,0-.148-.059.189.189,0,0,0-.141.059.21.21,0,0,0,0,.288.186.186,0,0,0,.141.059.2.2,0,0,0,.148-.059.2.2,0,0,0,.059-.144" transform="translate(-134.398 -112.383)" fill="#1a1311"/><path d="M217.672,181.955v-1.6l-.933,1.6h-.4v-1.136a.48.48,0,0,1-.188.04.434.434,0,0,1-.179-.038.462.462,0,0,1-.146-.1.5.5,0,0,1-.1-.147.457.457,0,0,1,.1-.5.488.488,0,0,1,.367-.136.546.546,0,0,1,.4.144.531.531,0,0,1,.146.4v1.081l.938-1.612a.482.482,0,0,1,.29.075.253.253,0,0,1,.1.218v1.717Zm-1.235-1.557a.287.287,0,1,0-.084.2.27.27,0,0,0,.084-.2" transform="translate(-136.832 -114.149)" fill="#1a1311"/><path d="M228.96,179.97a.512.512,0,0,1-.142.253.653.653,0,0,1-.295.188.468.468,0,0,1,.25.142.334.334,0,0,1,.086.221v1.181h-1.7v-.675a1.394,1.394,0,0,0,.221-.069.988.988,0,0,0,.238-.134.8.8,0,0,0,.189-.2.481.481,0,0,0,.077-.271.606.606,0,0,0-.027-.174.467.467,0,0,0-.087-.161.461.461,0,0,0-.154-.119.513.513,0,0,0-.229-.047.424.424,0,0,0-.154.027.219.219,0,0,0-.089.052.571.571,0,0,1,.231.025.484.484,0,0,1,.171.1.4.4,0,0,1,.1.147.448.448,0,0,1,.035.173.391.391,0,0,1-.134.3.459.459,0,0,1-.322.124.525.525,0,0,1-.184-.033.517.517,0,0,1-.162-.094.46.46,0,0,1-.116-.156.516.516,0,0,1-.045-.223.532.532,0,0,1,.055-.236.618.618,0,0,1,.148-.193.7.7,0,0,1,.224-.128.814.814,0,0,1,.283-.047.835.835,0,0,1,.288.049.681.681,0,0,1,.228.136.653.653,0,0,1,.15.2.587.587,0,0,1,.054.251.624.624,0,0,1-.064.292.781.781,0,0,1-.156.212.869.869,0,0,1-.2.141,1.219,1.219,0,0,1-.179.079v.456h.908v-1a.4.4,0,0,0-.052-.194.346.346,0,0,0-.211-.144.417.417,0,0,0,.146-.091.5.5,0,0,0,.092-.121.512.512,0,0,0,.049-.127.481.481,0,0,0,.015-.112Zm-1.463.63a.26.26,0,0,0-.079-.189.264.264,0,0,0-.377,0,.268.268,0,0,0,.189.456.27.27,0,0,0,.268-.268" transform="translate(-143.83 -114.149)" fill="#1a1311"/><path d="M227.185,178.293a.586.586,0,0,1,.283-.434,1.535,1.535,0,0,1,1.428,0,.586.586,0,0,1,.283.434Zm1.558-.144a.409.409,0,0,0-.178-.221.824.824,0,0,0-.769,0,.4.4,0,0,0-.173.223Z" transform="translate(-144.123 -112.719)" fill="#1a1311"/><path d="M236,181.527a.424.424,0,0,1-.04.184.461.461,0,0,1-.106.146.52.52,0,0,1-.355.136.508.508,0,0,1-.347-.126.435.435,0,0,1-.154-.315,3.061,3.061,0,0,0-.25.2,1.993,1.993,0,0,0-.2.2h-.362V180.8a.36.36,0,0,1-.094.027.68.68,0,0,1-.094.008.469.469,0,0,1-.184-.035.494.494,0,0,1-.151-.1.437.437,0,0,1-.1-.144.41.41,0,0,1-.037-.176.43.43,0,0,1,.136-.315.49.49,0,0,1,.364-.137.569.569,0,0,1,.407.146.521.521,0,0,1,.153.395v1.1a3.152,3.152,0,0,1,.419-.3,3.007,3.007,0,0,1,.469-.235v-1.062h.4v1.086a.522.522,0,0,0-.079.03c-.02.01-.043.023-.069.04a.42.42,0,0,1,.2.156.413.413,0,0,1,.084.246m-1.741-1.13a.281.281,0,0,0-.482-.2.281.281,0,1,0,.482.2m1.517,1.13a.287.287,0,1,0-.084.2.272.272,0,0,0,.084-.2" transform="translate(-148.142 -114.148)" fill="#1a1311"/><path d="M242.758,181.955v-1.6l-.933,1.6h-.4v-1.136a.48.48,0,0,1-.189.04.432.432,0,0,1-.178-.038.462.462,0,0,1-.146-.1.5.5,0,0,1-.1-.147.457.457,0,0,1,.1-.5.488.488,0,0,1,.367-.136.546.546,0,0,1,.4.144.531.531,0,0,1,.146.4v1.081l.937-1.612a.481.481,0,0,1,.29.075.252.252,0,0,1,.1.218v1.717Zm-1.235-1.557a.281.281,0,0,0-.481-.2.28.28,0,1,0,.4.4.268.268,0,0,0,.084-.2" transform="translate(-152.747 -114.149)" fill="#1a1311"/><path d="M249.539,181.955v-1.379a.514.514,0,0,0-.109-.333.43.43,0,0,0-.353-.133.521.521,0,0,0-.22.042.456.456,0,0,0-.154.112.537.537,0,0,0-.1.159.584.584,0,0,0-.039.178h-.407a.75.75,0,0,1,.288-.486,1.01,1.01,0,0,1,.63-.178,1.036,1.036,0,0,1,.626.17.642.642,0,0,1,.233.554v1.295Z" transform="translate(-157.429 -114.149)" fill="#1a1311"/><path d="M255.721,181.955v-1.389a.4.4,0,0,0-.159-.338.671.671,0,0,0-.412-.118.7.7,0,0,0-.426.129.416.416,0,0,0-.173.352h.312v.129a.318.318,0,0,0-.223.323v.913h-.4v-.868a.3.3,0,0,1,.025-.114.372.372,0,0,1,.069-.108.431.431,0,0,1,.111-.087.479.479,0,0,1,.151-.052h-.471a.79.79,0,0,1,.1-.342.807.807,0,0,1,.223-.248.984.984,0,0,1,.315-.149,1.427,1.427,0,0,1,.382-.049,1.643,1.643,0,0,1,.36.039,1.03,1.03,0,0,1,.31.121.652.652,0,0,1,.216.211.554.554,0,0,1,.082.307v1.34Z" transform="translate(-161.216 -114.149)" fill="#1a1311"/><path d="M262.534,180.03a.714.714,0,0,1-.025.295.822.822,0,0,1-.159.3.906.906,0,0,1-.308.233,1.065,1.065,0,0,1-.471.094,1.139,1.139,0,0,1-.335-.044.747.747,0,0,1-.231-.114.438.438,0,0,1-.173-.347.36.36,0,0,1,.124-.28.431.431,0,0,1,.3-.112.435.435,0,0,1,.3.106.363.363,0,0,1,.121.286.439.439,0,0,1-.044.191.306.306,0,0,1-.124.136.62.62,0,0,0,.32-.069.674.674,0,0,0,.22-.188.652.652,0,0,0,.114-.246.455.455,0,0,0-.005-.241Zm0,1.086a.72.72,0,0,1-.025.3.824.824,0,0,1-.159.3.889.889,0,0,1-.308.233,1.054,1.054,0,0,1-.471.094,1.115,1.115,0,0,1-.335-.044.739.739,0,0,1-.231-.114.436.436,0,0,1-.173-.347.363.363,0,0,1,.124-.281.457.457,0,0,1,.593,0,.36.36,0,0,1,.121.285.433.433,0,0,1-.044.19.3.3,0,0,1-.124.137.617.617,0,0,0,.32-.069.662.662,0,0,0,.22-.189.646.646,0,0,0,.114-.245.457.457,0,0,0-.005-.241Zm-1.037-.669a.233.233,0,0,0-.072-.171.239.239,0,0,0-.176-.072.23.23,0,0,0-.173.072.243.243,0,0,0,0,.342.229.229,0,0,0,.173.072.239.239,0,0,0,.176-.072.234.234,0,0,0,.072-.171m0,1.086a.234.234,0,0,0-.072-.171.239.239,0,0,0-.176-.071.229.229,0,0,0-.173.071.245.245,0,0,0,0,.343.229.229,0,0,0,.173.071.239.239,0,0,0,.176-.071.234.234,0,0,0,.072-.171" transform="translate(-165.468 -114.208)" fill="#1a1311"/><path d="M271.9,180.709c0,.089,0,.186-.015.291s-.021.211-.034.322-.025.22-.035.33-.015.21-.015.3h-.392l-.258-.65a.546.546,0,0,1-.159.131.458.458,0,0,1-.223.052.447.447,0,0,1-.337-.134.454.454,0,0,1,0-.635.446.446,0,0,1,.337-.133.5.5,0,0,1,.283.082.527.527,0,0,1,.193.265l.2.526c0-.1.014-.233.032-.392a4.359,4.359,0,0,0,.027-.49.429.429,0,0,0-.148-.333.624.624,0,0,0-.431-.133.785.785,0,0,0-.245.037.6.6,0,0,0-.209.114.558.558,0,0,0-.146.188.586.586,0,0,0-.054.261h-.432a.8.8,0,0,1,.121-.35.824.824,0,0,1,.243-.24,1.069,1.069,0,0,1,.332-.139,1.657,1.657,0,0,1,.39-.044,1.114,1.114,0,0,1,.721.208.691.691,0,0,1,.256.566m-.848.333a.275.275,0,0,0-.082-.2.282.282,0,0,0-.4,0,.28.28,0,0,0,0,.4.28.28,0,0,0,.4,0,.274.274,0,0,0,.082-.2" transform="translate(-171.182 -114.149)" fill="#1a1311"/><path d="M274.539,177.488a.383.383,0,0,1-.035.161.419.419,0,0,1-.094.135.434.434,0,0,1-.139.089.449.449,0,0,1-.169.032.441.441,0,0,1-.308-.121.424.424,0,0,1-.094-.135.387.387,0,0,1,0-.322.418.418,0,0,1,.094-.134.453.453,0,0,1,.476-.089.434.434,0,0,1,.139.089.414.414,0,0,1,.094.134.383.383,0,0,1,.035.161m-.169.005a.237.237,0,0,0-.079-.179.276.276,0,0,0-.377,0,.241.241,0,0,0,0,.357.274.274,0,0,0,.377,0,.235.235,0,0,0,.079-.178m1.612,2.644v-1.379a.514.514,0,0,0-.109-.333.43.43,0,0,0-.353-.133.52.52,0,0,0-.22.042.456.456,0,0,0-.154.112.537.537,0,0,0-.1.159.587.587,0,0,0-.039.178H274.6a.751.751,0,0,1,.288-.486,1.01,1.01,0,0,1,.63-.178,1.036,1.036,0,0,1,.626.17.642.642,0,0,1,.233.554v1.295Z" transform="translate(-173.61 -112.332)" fill="#1a1311"/><path d="M283.793,181.955v-1.389a.4.4,0,0,0-.159-.338.669.669,0,0,0-.411-.118.7.7,0,0,0-.427.129.416.416,0,0,0-.173.352h.313v.129a.317.317,0,0,0-.223.323v.913h-.4v-.868a.307.307,0,0,1,.024-.114.374.374,0,0,1,.07-.108.408.408,0,0,1,.111-.087.473.473,0,0,1,.151-.052H282.2a.789.789,0,0,1,.1-.342.8.8,0,0,1,.223-.248.97.97,0,0,1,.315-.149,1.427,1.427,0,0,1,.382-.049,1.637,1.637,0,0,1,.359.039,1.026,1.026,0,0,1,.31.121.658.658,0,0,1,.216.211.559.559,0,0,1,.082.307v1.34Z" transform="translate(-179.024 -114.149)" fill="#1a1311"/><path d="M286.4,177.153a.56.56,0,0,1-.022.254.655.655,0,0,1-.159.26.906.906,0,0,1-.31.2,1.19,1.19,0,0,1-.467.082,1.108,1.108,0,0,1-.32-.04.655.655,0,0,1-.216-.1.381.381,0,0,1-.121-.143.375.375,0,0,1-.037-.164.342.342,0,0,1,.1-.243.359.359,0,0,1,.273-.1.4.4,0,0,1,.283.1.326.326,0,0,1,.109.246.512.512,0,0,1-.027.156.238.238,0,0,1-.112.136.613.613,0,0,0,.315-.05.642.642,0,0,0,.221-.163.507.507,0,0,0,.112-.216.4.4,0,0,0,0-.211Zm-1.072.353a.2.2,0,0,0-.059-.144.2.2,0,0,0-.148-.059.189.189,0,0,0-.141.059.21.21,0,0,0,0,.288.186.186,0,0,0,.141.059.2.2,0,0,0,.148-.059.2.2,0,0,0,.059-.144" transform="translate(-180.642 -112.383)" fill="#1a1311"/><path d="M290.609,181.955v-1.384a.405.405,0,0,0-.164-.333.663.663,0,0,0-.421-.128.7.7,0,0,0-.447.141.471.471,0,0,0-.178.389c0,.1,0,.187.013.273s.016.171.022.256.012.171.017.26.005.184,0,.283a1.555,1.555,0,0,0,.184-.084,1.379,1.379,0,0,0,.179-.112,1.988,1.988,0,0,0,.158-.129.835.835,0,0,0,.124-.136.3.3,0,0,1-.114.02.449.449,0,0,1-.467-.456.426.426,0,0,1,.134-.315.455.455,0,0,1,.332-.131.5.5,0,0,1,.34.124.408.408,0,0,1,.142.322.789.789,0,0,1-.062.29,1.189,1.189,0,0,1-.191.313,1.582,1.582,0,0,1-.333.295,2.2,2.2,0,0,1-.491.243h-.337a3.158,3.158,0,0,0,.007-.375c0-.111-.011-.215-.019-.312s-.018-.193-.028-.286-.014-.188-.014-.288a.61.61,0,0,1,.087-.325.772.772,0,0,1,.231-.238,1.079,1.079,0,0,1,.33-.146,1.475,1.475,0,0,1,.38-.049,1.606,1.606,0,0,1,.376.042.982.982,0,0,1,.313.129.665.665,0,0,1,.214.22.615.615,0,0,1,.079.318v1.31Zm-.342-1.136a.287.287,0,1,0-.084.2.271.271,0,0,0,.084-.2" transform="translate(-183.335 -114.149)" fill="#1a1311"/><path d="M49.07,190.841l.067,2.745h-.249a2.81,2.81,0,0,0-.865-1.661,2.177,2.177,0,0,0-1.491-.628,1.4,1.4,0,0,0-.981.331,1.008,1.008,0,0,0-.361.762.927.927,0,0,0,.127.486,2.065,2.065,0,0,0,.565.565,12.712,12.712,0,0,0,1.318.711,5.85,5.85,0,0,1,1.949,1.343,2.27,2.27,0,0,1,.5,1.446,2.336,2.336,0,0,1-.8,1.776,2.891,2.891,0,0,1-2.044.744,3.3,3.3,0,0,1-.735-.079,5.541,5.541,0,0,1-.868-.3,1.313,1.313,0,0,0-.48-.122.594.594,0,0,0-.334.122.849.849,0,0,0-.285.37h-.225v-3.11H44.1a3.565,3.565,0,0,0,1.029,2,2.411,2.411,0,0,0,1.643.69,1.541,1.541,0,0,0,1.084-.371,1.118,1.118,0,0,0,.249-1.427,1.794,1.794,0,0,0-.471-.519,7.077,7.077,0,0,0-1.117-.641,9.63,9.63,0,0,1-1.616-.941,2.9,2.9,0,0,1-.756-.869,2.156,2.156,0,0,1-.264-1.057,2.236,2.236,0,0,1,.723-1.676,2.528,2.528,0,0,1,1.822-.692,3.106,3.106,0,0,1,.778.1,3.883,3.883,0,0,1,.7.27,1.642,1.642,0,0,0,.574.2.326.326,0,0,0,.249-.1,1.124,1.124,0,0,0,.17-.468Z" transform="translate(-27.831 -121.067)" fill="#1a1311"/><path d="M64.851,191.356v3.286a3.473,3.473,0,0,1,.857-.7,1.72,1.72,0,0,1,.808-.2,1.421,1.421,0,0,1,.914.3,1.455,1.455,0,0,1,.5.714,5.365,5.365,0,0,1,.124,1.382v2.217a1.641,1.641,0,0,0,.121.811.7.7,0,0,0,.492.2v.218H65.792v-.218a.659.659,0,0,0,.456-.243,1.658,1.658,0,0,0,.109-.771v-2.533a4.146,4.146,0,0,0-.054-.884.537.537,0,0,0-.186-.28.471.471,0,0,0-.295-.1.8.8,0,0,0-.473.167,2.147,2.147,0,0,0-.5.586v3.043a1.871,1.871,0,0,0,.091.759.593.593,0,0,0,.473.256v.218H62.537v-.218a.707.707,0,0,0,.51-.231,1.681,1.681,0,0,0,.1-.784v-5.77a1.633,1.633,0,0,0-.119-.8.72.72,0,0,0-.495-.207v-.225Z" transform="translate(-39.673 -121.393)" fill="#1a1311"/><path d="M83.713,193.576v4.5a1.351,1.351,0,0,0,.14.768.759.759,0,0,0,.547.192v.219H81.332v-.219a.743.743,0,0,0,.559-.219,1.36,1.36,0,0,0,.121-.741v-3.316a1.358,1.358,0,0,0-.14-.769.752.752,0,0,0-.541-.191v-.225Zm-.85-2.751a.938.938,0,1,1-.662.276.9.9,0,0,1,.662-.276" transform="translate(-51.596 -121.057)" fill="#1a1311"/><path d="M93.906,198.055v.735a3.332,3.332,0,0,1,.838-.689,1.793,1.793,0,0,1,.862-.216,1.374,1.374,0,0,1,.917.307,1.468,1.468,0,0,1,.486.762,5.858,5.858,0,0,1,.1,1.33V202.5a1.69,1.69,0,0,0,.118.817.7.7,0,0,0,.5.2v.218H94.847v-.218a.6.6,0,0,0,.462-.268,1.743,1.743,0,0,0,.1-.753v-2.527a4.121,4.121,0,0,0-.055-.881.537.537,0,0,0-.185-.282.463.463,0,0,0-.288-.1q-.522,0-.972.747V202.5a1.694,1.694,0,0,0,.118.808.6.6,0,0,0,.44.213v.218H91.592v-.218a.707.707,0,0,0,.51-.231,1.7,1.7,0,0,0,.1-.789v-3.208a1.627,1.627,0,0,0-.119-.8.72.72,0,0,0-.495-.207v-.224Z" transform="translate(-58.105 -125.535)" fill="#1a1311"/><path d="M112.763,192.668v2.077h1.348v.6h-1.348v3.5a2.669,2.669,0,0,0,.046.635.456.456,0,0,0,.161.231.361.361,0,0,0,.212.088q.395,0,.747-.6l.182.133a1.661,1.661,0,0,1-1.6,1.166,1.413,1.413,0,0,1-.914-.3,1.327,1.327,0,0,1-.476-.671,5.7,5.7,0,0,1-.061-1.118v-3.067h-.741v-.212a7.824,7.824,0,0,0,1.3-1.136,6.932,6.932,0,0,0,.939-1.33Z" transform="translate(-69.986 -122.226)" fill="#1a1311"/><path d="M125.884,202.9a3,3,0,0,1-1.865.917,1.1,1.1,0,0,1-.808-.319,1.077,1.077,0,0,1-.322-.8,1.565,1.565,0,0,1,.559-1.169,10.594,10.594,0,0,1,2.436-1.382v-.571a2.77,2.77,0,0,0-.07-.811.655.655,0,0,0-.264-.292.8.8,0,0,0-.437-.124,1.119,1.119,0,0,0-.65.176.31.31,0,0,0-.158.255.526.526,0,0,0,.17.316.78.78,0,0,1,.231.5.673.673,0,0,1-.222.507.81.81,0,0,1-.58.209.927.927,0,0,1-.641-.231.7.7,0,0,1-.258-.54,1.258,1.258,0,0,1,.346-.835,2.186,2.186,0,0,1,.966-.611,3.937,3.937,0,0,1,1.287-.212,2.127,2.127,0,0,1,1.279.343,1.608,1.608,0,0,1,.611.744,4.8,4.8,0,0,1,.085,1.172v2.205a2.273,2.273,0,0,0,.03.489.293.293,0,0,0,.091.149.219.219,0,0,0,.14.049c.1,0,.212-.075.321-.225l.183.146a2.225,2.225,0,0,1-.629.653,1.363,1.363,0,0,1-.738.2,1.151,1.151,0,0,1-.759-.228,1.031,1.031,0,0,1-.334-.69m0-.443v-1.9a3.541,3.541,0,0,0-1.093.923,1.121,1.121,0,0,0-.237.662.694.694,0,0,0,.2.492.55.55,0,0,0,.425.164,1.169,1.169,0,0,0,.7-.34" transform="translate(-77.959 -125.535)" fill="#1a1311"/><path d="M142.157,191.356v5.418l1.318-1.294a3.273,3.273,0,0,0,.507-.571.687.687,0,0,0,.1-.34.338.338,0,0,0-.134-.273,1.1,1.1,0,0,0-.522-.158v-.224h2.545v.224a1.432,1.432,0,0,0-.638.173,7.4,7.4,0,0,0-1.069.933l-.62.607,1.337,1.956a15.049,15.049,0,0,0,.96,1.336.8.8,0,0,0,.522.231v.218H143.53v-.218a.441.441,0,0,0,.282-.073.207.207,0,0,0,.088-.158,1.25,1.25,0,0,0-.255-.516l-1.124-1.646-.365.358v1.02a1.632,1.632,0,0,0,.121.811.71.71,0,0,0,.5.2v.218h-2.933v-.218a.707.707,0,0,0,.51-.231,1.682,1.682,0,0,0,.1-.784v-5.77a1.629,1.629,0,0,0-.119-.8.719.719,0,0,0-.495-.207v-.225Z" transform="translate(-88.714 -121.393)" fill="#1a1311"/><path d="M162.5,202.9a3,3,0,0,1-1.865.917,1.1,1.1,0,0,1-.808-.319,1.077,1.077,0,0,1-.322-.8,1.566,1.566,0,0,1,.559-1.169,10.607,10.607,0,0,1,2.436-1.382v-.571a2.771,2.771,0,0,0-.07-.811.655.655,0,0,0-.264-.292.8.8,0,0,0-.437-.124,1.12,1.12,0,0,0-.65.176.31.31,0,0,0-.158.255.526.526,0,0,0,.17.316.779.779,0,0,1,.231.5.673.673,0,0,1-.222.507.811.811,0,0,1-.581.209.925.925,0,0,1-.641-.231.7.7,0,0,1-.258-.54,1.259,1.259,0,0,1,.347-.835,2.184,2.184,0,0,1,.966-.611,3.937,3.937,0,0,1,1.287-.212,2.127,2.127,0,0,1,1.279.343,1.613,1.613,0,0,1,.611.744,4.821,4.821,0,0,1,.085,1.172v2.205a2.308,2.308,0,0,0,.03.489.293.293,0,0,0,.091.149.219.219,0,0,0,.14.049q.157,0,.321-.225l.183.146a2.225,2.225,0,0,1-.629.653,1.362,1.362,0,0,1-.738.2,1.151,1.151,0,0,1-.759-.228,1.031,1.031,0,0,1-.334-.69m0-.443v-1.9a3.541,3.541,0,0,0-1.093.923,1.121,1.121,0,0,0-.237.662.7.7,0,0,0,.2.492.55.55,0,0,0,.425.164,1.168,1.168,0,0,0,.7-.34" transform="translate(-101.187 -125.535)" fill="#1a1311"/><path d="M193.331,190.841V193.7h-.236a3.049,3.049,0,0,0-1-1.713,2.544,2.544,0,0,0-1.653-.6,2.441,2.441,0,0,0-1.415.443,2.582,2.582,0,0,0-.941,1.16,5.244,5.244,0,0,0-.383,2.041,6.82,6.82,0,0,0,.279,2.013,2.679,2.679,0,0,0,.875,1.373,2.438,2.438,0,0,0,1.543.464,3.012,3.012,0,0,0,1.425-.34,4.929,4.929,0,0,0,1.364-1.173v.711a4.5,4.5,0,0,1-1.443,1.048,4.374,4.374,0,0,1-1.752.325,5.026,5.026,0,0,1-2.341-.529,3.731,3.731,0,0,1-1.58-1.518,4.24,4.24,0,0,1-.555-2.108,4.493,4.493,0,0,1,2.281-3.875,4.5,4.5,0,0,1,2.226-.583,5.056,5.056,0,0,1,1.834.376,2.8,2.8,0,0,0,.711.219.461.461,0,0,0,.337-.143.781.781,0,0,0,.186-.452Z" transform="translate(-117.691 -121.067)" fill="#1a1311"/><path d="M212.962,197.885a2.634,2.634,0,0,1,1.379.382,2.45,2.45,0,0,1,.969,1.088,3.578,3.578,0,0,1,.331,1.543,3.262,3.262,0,0,1-.614,2.022,2.419,2.419,0,0,1-2.047.984,2.345,2.345,0,0,1-1.974-.9,3.32,3.32,0,0,1-.692-2.083,3.361,3.361,0,0,1,.708-2.129,2.325,2.325,0,0,1,1.94-.908m.024.431a.706.706,0,0,0-.531.234,1.63,1.63,0,0,0-.291.923q-.071.69-.07,1.916a8.23,8.23,0,0,0,.085,1.215,1.171,1.171,0,0,0,.286.656.676.676,0,0,0,.5.225.688.688,0,0,0,.456-.152,1.02,1.02,0,0,0,.316-.577,13.941,13.941,0,0,0,.122-2.332,5.777,5.777,0,0,0-.116-1.419,1.089,1.089,0,0,0-.34-.562.638.638,0,0,0-.413-.128" transform="translate(-133.42 -125.535)" fill="#1a1311"/><path d="M228.939,208.766a1.012,1.012,0,1,1-.713.3.974.974,0,0,1,.713-.3" transform="translate(-144.596 -132.438)" fill="#1a1311"/><path d="M236.6,212.828v-.267a2.251,2.251,0,0,0,1.024-.787,1.777,1.777,0,0,0,.318-.987.257.257,0,0,0-.042-.158.119.119,0,0,0-.085-.048.254.254,0,0,0-.11.042.85.85,0,0,1-.437.1.83.83,0,0,1-.623-.279.923.923,0,0,1-.264-.656.968.968,0,0,1,.3-.7,1,1,0,0,1,.736-.3,1.171,1.171,0,0,1,.893.4,1.578,1.578,0,0,1,.37,1.108,2.44,2.44,0,0,1-.525,1.543,3.026,3.026,0,0,1-1.558.99" transform="translate(-149.955 -132.449)" fill="#1a1311"/><path d="M252.382,196.7l-.31,2.891h-7.313v-.224h.273a1.139,1.139,0,0,0,.577-.128.552.552,0,0,0,.243-.291,2.514,2.514,0,0,0,.067-.766v-5.418a2.719,2.719,0,0,0-.067-.79.611.611,0,0,0-.27-.276,1.1,1.1,0,0,0-.55-.118h-.273v-.225h4.392v.225h-.358a1.135,1.135,0,0,0-.577.128.578.578,0,0,0-.249.291,2.506,2.506,0,0,0-.067.765v5.248a2.662,2.662,0,0,0,.073.8.485.485,0,0,0,.285.258,2.882,2.882,0,0,0,.735.055h.686a2.328,2.328,0,0,0,1.094-.231,2.042,2.042,0,0,0,.756-.729,5.932,5.932,0,0,0,.6-1.47Z" transform="translate(-155.271 -121.393)" fill="#1a1311"/><path d="M270.235,192.668v2.077h1.348v.6h-1.348v3.5a2.63,2.63,0,0,0,.046.635.454.454,0,0,0,.16.231.362.362,0,0,0,.213.088q.394,0,.747-.6l.182.133a1.661,1.661,0,0,1-1.6,1.166,1.414,1.414,0,0,1-.914-.3,1.327,1.327,0,0,1-.476-.671,5.684,5.684,0,0,1-.061-1.118v-3.067h-.741v-.212A7.839,7.839,0,0,0,269.1,194a6.909,6.909,0,0,0,.938-1.33Z" transform="translate(-169.884 -122.226)" fill="#1a1311"/><path d="M285.605,191.356v6.536a4.368,4.368,0,0,0,.037.783.49.49,0,0,0,.185.3.987.987,0,0,0,.477.121v.2l-2.4.468v-.9a2.967,2.967,0,0,1-.768.71,1.536,1.536,0,0,1-.762.188,1.955,1.955,0,0,1-1.719-.972,3.5,3.5,0,0,1-.51-1.937,4.083,4.083,0,0,1,.316-1.643,2.454,2.454,0,0,1,.865-1.1,2.074,2.074,0,0,1,1.181-.37,1.593,1.593,0,0,1,.722.158,2.418,2.418,0,0,1,.674.552v-1.713a3.091,3.091,0,0,0-.054-.784.523.523,0,0,0-.219-.261,1.207,1.207,0,0,0-.547-.085v-.255Zm-1.7,3.851q-.449-.863-1.1-.863a.558.558,0,0,0-.37.121,1.357,1.357,0,0,0-.368.662,5.436,5.436,0,0,0-.143,1.452,5.856,5.856,0,0,0,.158,1.591,1.544,1.544,0,0,0,.43.747.586.586,0,0,0,.383.116q.535,0,1.008-.838Z" transform="translate(-177.72 -121.393)" fill="#1a1311"/><path d="M300.6,208.766a1.012,1.012,0,1,1-.713.3.973.973,0,0,1,.713-.3" transform="translate(-190.055 -132.438)" fill="#1a1311"/></g></svg>