<svg xmlns="http://www.w3.org/2000/svg" xmlns:xlink="http://www.w3.org/1999/xlink" width="80.687" height="84.662" viewBox="0 0 80.687 84.662"><defs><clipPath id="a"><rect width="80.687" height="84.662" fill="none"/></clipPath><clipPath id="b"><rect width="12.455" height="12.459" fill="none"/></clipPath><clipPath id="c"><rect width="12.456" height="12.456" fill="none"/></clipPath><clipPath id="d"><rect width="12.456" height="12.454" fill="none"/></clipPath><clipPath id="e"><rect width="12.455" height="12.454" fill="none"/></clipPath><clipPath id="f"><rect width="12.458" height="12.456" fill="none"/></clipPath><clipPath id="h"><rect width="12.455" height="12.457" fill="none"/></clipPath><clipPath id="j"><rect width="12.458" height="12.457" fill="none"/></clipPath></defs><g clip-path="url(#a)"><path d="M80.687,69.305a10.493,10.493,0,0,0-1.071-4.883,8.1,8.1,0,0,0-3.458-3.49.218.218,0,0,1-.027-.016,11.021,11.021,0,0,0-5.119-1.094,9.752,9.752,0,0,0-5.875,1.741c-.073-.063-.149-.127-.227-.191a10.078,10.078,0,1,0-9.252-17.689A10.075,10.075,0,0,0,49.52,28.1a10.079,10.079,0,0,0-7.068-13.933,10.08,10.08,0,1,0-18.427,0A10.078,10.078,0,0,0,16.956,28.1a10.078,10.078,0,1,0,8,18.047,10.065,10.065,0,0,0,2.236,13.8,3.953,3.953,0,0,0-.467-.031l-3.81-.012a3.854,3.854,0,0,0-1.948.525,3.842,3.842,0,0,0-1.981-.551H15.051a3.869,3.869,0,0,0-1.7.4c-.158-.061-.319-.121-.486-.174-.014,0-.032-.009-.049-.015a12.813,12.813,0,0,0-3.726-.447,12.5,12.5,0,0,0-3.869.527c-.041.014-.081.027-.12.043A7.308,7.308,0,0,0,1.86,62.45l-.02.024a6.518,6.518,0,0,0-1.1,6.076s0,0-.006.01a3.857,3.857,0,0,0-.643,3.107A7.153,7.153,0,0,0,3.212,76.22a10.353,10.353,0,0,0,5.955,1.427,11.3,11.3,0,0,0,4.558-.789,8.034,8.034,0,0,0,2.1-1.3,3.846,3.846,0,0,0,3.318,1.908l3.337.006a3.849,3.849,0,0,0,3.545-2.335l.031-.071c.191.189.392.371.6.543a9.681,9.681,0,0,0,6.275,2.118h.025a10.312,10.312,0,0,0,5.055-1.2,3.822,3.822,0,0,0,2.555.994l3.77.027a3.842,3.842,0,0,0,1.253-.2,3.792,3.792,0,0,0,1.233.207l3.786.012a3.857,3.857,0,0,0,1.356-.248,3.825,3.825,0,0,0,1.342.251l3.792.017a3.862,3.862,0,0,0,1.357-.243,3.841,3.841,0,0,0,1.341.25l3.782.012a3.853,3.853,0,0,0,2.444-.86c.088.047.181.092.272.139a10.623,10.623,0,0,0,4.779.957,11.106,11.106,0,0,0,5.279-1.085,9.136,9.136,0,0,0,3.582-3.567,3.845,3.845,0,0,0,.534-1.955c0-.052-.009-.1-.009-.159a3.854,3.854,0,0,0,.227-1.286Z" fill="#140b0a"/><g transform="translate(27.009 3.85)" style="isolation:isolate"><g clip-path="url(#b)"><path d="M78.492,15.644a6.228,6.228,0,1,1-6.227-6.23,6.23,6.23,0,0,1,6.227,6.23" transform="translate(-66.037 -9.414)" fill="#2d782a"/></g></g><path d="M66.607,15.979a6,6,0,1,1,6,6,6,6,0,0,1-6-6" transform="translate(-39.365 -5.899)" fill="#090e09"/><g transform="translate(19.941 17.786)" style="isolation:isolate"><g clip-path="url(#c)"><path d="M61.212,49.715a6.228,6.228,0,1,1-6.227-6.228,6.23,6.23,0,0,1,6.227,6.228" transform="translate(-48.756 -43.487)" fill="#d64704"/></g></g><path d="M49.327,50.052a6,6,0,1,1,6,6,6,6,0,0,1-6-6" transform="translate(-29.152 -26.038)" fill="#1a0608"/><g transform="translate(12.873 31.721)" style="isolation:isolate"><g clip-path="url(#d)"><path d="M43.93,83.784A6.228,6.228,0,1,1,37.7,77.557a6.226,6.226,0,0,1,6.228,6.227" transform="translate(-31.474 -77.557)" fill="#00529a"/></g></g><g transform="translate(27.009 31.721)" style="isolation:isolate"><g clip-path="url(#e)"><path d="M66.037,83.784a6.228,6.228,0,1,0,6.229-6.227,6.229,6.229,0,0,0-6.229,6.227" transform="translate(-66.037 -77.557)" fill="#2d782a"/></g></g><g transform="translate(34.079 17.786)" style="isolation:isolate"><g clip-path="url(#f)"><path d="M83.323,49.715a6.229,6.229,0,1,0,6.228-6.228,6.229,6.229,0,0,0-6.228,6.228" transform="translate(-83.323 -43.487)" fill="#c20065"/></g></g><g transform="translate(41.146 31.721)" style="isolation:isolate"><g clip-path="url(#e)"><path d="M100.6,83.784a6.228,6.228,0,1,0,6.227-6.227,6.227,6.227,0,0,0-6.227,6.227" transform="translate(-100.602 -77.557)" fill="#fee10c"/></g></g><path d="M101.166,84.119a6,6,0,1,1,6,6,6,6,0,0,1-6-6" transform="translate(-59.79 -46.172)" fill="#1b170a"/><g transform="translate(27.009 45.654)" style="isolation:isolate"><g clip-path="url(#h)"><path d="M78.492,117.853a6.228,6.228,0,1,1-6.227-6.229,6.228,6.228,0,0,1,6.227,6.229" transform="translate(-66.037 -111.624)" fill="#c20065"/></g></g><path d="M66.607,118.191a6,6,0,1,1,6,6,6,6,0,0,1-6-6" transform="translate(-39.365 -66.308)" fill="#160608"/><g transform="translate(41.146 45.654)" style="isolation:isolate"><g clip-path="url(#h)"><path d="M100.6,117.853a6.228,6.228,0,1,0,6.227-6.229,6.228,6.228,0,0,0-6.227,6.229" transform="translate(-100.602 -111.624)" fill="#d64704"/></g></g><g transform="translate(55.281 45.654)" style="isolation:isolate"><g clip-path="url(#j)"><path d="M135.162,117.853a6.229,6.229,0,1,0,6.232-6.229,6.23,6.23,0,0,0-6.232,6.229" transform="translate(-135.162 -111.624)" fill="#00529a"/></g></g><path d="M135.731,118.191a6,6,0,1,1,6,6,6,6,0,0,1-6-6" transform="translate(-80.218 -66.308)" fill="#060810"/><path d="M78.492,15.644a6.228,6.228,0,1,1-6.227-6.23,6.23,6.23,0,0,1,6.227,6.23" transform="translate(-39.028 -5.564)" fill="#009633"/><path d="M61.212,49.715a6.228,6.228,0,1,1-6.227-6.228,6.23,6.23,0,0,1,6.227,6.228" transform="translate(-28.815 -25.701)" fill="#f17b00"/><path d="M43.93,83.784A6.228,6.228,0,1,1,37.7,77.557a6.226,6.226,0,0,1,6.228,6.227" transform="translate(-18.601 -45.837)" fill="#0060b3"/><path d="M66.037,83.784a6.228,6.228,0,1,0,6.229-6.227,6.229,6.229,0,0,0-6.229,6.227" transform="translate(-39.028 -45.837)" fill="#009633"/><path d="M83.323,49.715a6.229,6.229,0,1,0,6.228-6.228,6.229,6.229,0,0,0-6.228,6.228" transform="translate(-49.244 -25.701)" fill="#d0006d"/><path d="M100.6,83.784a6.228,6.228,0,1,0,6.227-6.227,6.227,6.227,0,0,0-6.227,6.227" transform="translate(-59.456 -45.837)" fill="#ffd100"/><path d="M78.492,117.853a6.228,6.228,0,1,1-6.227-6.229,6.228,6.228,0,0,1,6.227,6.229" transform="translate(-39.028 -65.97)" fill="#d0006d"/><path d="M100.6,117.853a6.228,6.228,0,1,0,6.227-6.229,6.228,6.228,0,0,0-6.227,6.229" transform="translate(-59.456 -65.97)" fill="#f17b00"/><path d="M135.162,117.853a6.229,6.229,0,1,0,6.232-6.229,6.23,6.23,0,0,0-6.232,6.229" transform="translate(-79.881 -65.97)" fill="#0060b3"/><path d="M41.724,83.925l1.065,2.157,2.38.346-1.722,1.681.409,2.372L41.724,89.36,39.6,90.481,40,88.109l-1.724-1.681,2.379-.346Z" transform="translate(-22.623 -49.6)" fill="#fff"/><path d="M46.7,92.783" transform="translate(-27.601 -54.835)" fill="#fff"/><path d="M76.289,83.925l1.066,2.157,2.38.346-1.721,1.681.4,2.372L76.289,89.36,74.16,90.481l.406-2.372-1.721-1.681,2.38-.346Z" transform="translate(-43.052 -49.6)" fill="#fff"/><path d="M81.266,92.783" transform="translate(-48.029 -54.835)" fill="#fff"/><path d="M110.847,83.925l1.064,2.157,2.382.346-1.722,1.681.407,2.372-2.131-1.121-2.131,1.121.409-2.372L107.4,86.428l2.382-.346Z" transform="translate(-63.474 -49.6)" fill="#fff"/><path d="M115.828,92.783" transform="translate(-68.455 -54.835)" fill="#fff"/><path d="M76.289,117.992l1.066,2.159,2.38.345-1.721,1.68.4,2.373-2.129-1.119-2.129,1.119.406-2.373-1.721-1.68,2.38-.345Z" transform="translate(-43.052 -69.734)" fill="#fff"/><path d="M81.266,126.854" transform="translate(-48.029 -74.971)" fill="#fff"/><path d="M110.847,117.992l1.064,2.159,2.382.345-1.722,1.68.407,2.373-2.131-1.119-2.131,1.119.409-2.373L107.4,120.5l2.382-.345Z" transform="translate(-63.474 -69.734)" fill="#fff"/><path d="M115.828,126.854" transform="translate(-68.455 -74.971)" fill="#fff"/><path d="M145.417,117.992l1.061,2.159,2.385.345-1.726,1.68.408,2.373-2.127-1.119-2.133,1.119.4-2.373-1.721-1.68,2.38-.345Z" transform="translate(-83.904 -69.734)" fill="#fff"/><path d="M150.4,126.854" transform="translate(-88.887 -74.971)" fill="#fff"/><path d="M9.415,162.551l3.741-.353a1.784,1.784,0,0,0,.643.964,1.9,1.9,0,0,0,1.133.3,1.987,1.987,0,0,0,1.2-.319.762.762,0,0,0,.308-.6.694.694,0,0,0-.408-.637,8.887,8.887,0,0,0-1.643-.394,16.88,16.88,0,0,1-2.732-.645,2.871,2.871,0,0,1-1.275-.989,2.567,2.567,0,0,1-.544-1.6,2.645,2.645,0,0,1,.582-1.681,3.528,3.528,0,0,1,1.575-1.056,8.771,8.771,0,0,1,2.663-.334,9.291,9.291,0,0,1,2.593.28,3.4,3.4,0,0,1,1.426.848,4.234,4.234,0,0,1,.918,1.536l-3.6.337a1.252,1.252,0,0,0-.469-.7,2.006,2.006,0,0,0-1.076-.285,1.472,1.472,0,0,0-.93.219.66.66,0,0,0-.3.555.571.571,0,0,0,.393.531,5.467,5.467,0,0,0,1.591.347,11.178,11.178,0,0,1,2.828.614,3.057,3.057,0,0,1,1.423,1.078,2.883,2.883,0,0,1,.461,1.549,3.168,3.168,0,0,1-.512,1.673,3.647,3.647,0,0,1-1.636,1.262,7.72,7.72,0,0,1-3.038.478,6.964,6.964,0,0,1-3.859-.8,3.335,3.335,0,0,1-1.457-2.175" transform="translate(-5.564 -91.73)" fill="#fff"/><path d="M36.8,155.81h3.935l1.919,6.276,2-6.251,3.811.009-4.225,9.865L40.9,165.7Z" transform="translate(-21.748 -92.084)" fill="#fff"/><path d="M66.786,160.56a4.889,4.889,0,0,1,1.552-3.711,6.619,6.619,0,0,1,8.6.3,4.9,4.9,0,0,1,1.215,3.393,5.011,5.011,0,0,1-1.526,3.727,6.69,6.69,0,0,1-8.046.219,4.878,4.878,0,0,1-1.794-3.926m3.789.014a2.933,2.933,0,0,0,.517,1.94,1.771,1.771,0,0,0,2.706.026,3.152,3.152,0,0,0,.526-2,3.1,3.1,0,0,0-.5-1.9,1.728,1.728,0,0,0-1.338-.613,1.661,1.661,0,0,0-1.369.634,2.888,2.888,0,0,0-.543,1.912" transform="translate(-39.471 -91.846)" fill="#fff"/><path d="M99.295,146.8l3.778.014-.052,13.641-3.772-.025Z" transform="translate(-58.657 -86.759)" fill="#fff"/><path d="M114.542,155.748l3.539.009-.018,1.465a4.936,4.936,0,0,1,1.547-1.294,4.483,4.483,0,0,1,1.879-.375,3.71,3.71,0,0,1,1.867.416,3.206,3.206,0,0,1,1.129,1.27,6.117,6.117,0,0,1,1.622-1.32,4.371,4.371,0,0,1,1.835-.336,3.239,3.239,0,0,1,2.469.945,4.243,4.243,0,0,1,.884,2.944l-.024,6.212-3.781-.014.02-5.638a1.732,1.732,0,0,0-.242-1.006,1.187,1.187,0,0,0-.964-.488,1.364,1.364,0,0,0-1.085.457,2.375,2.375,0,0,0-.416,1.559l-.011,5.11L121,165.647l.013-5.436a4.975,4.975,0,0,0-.045-.881,1.463,1.463,0,0,0-.46-.6,1.122,1.122,0,0,0-.693-.223,1.367,1.367,0,0,0-1.083.49,2.429,2.429,0,0,0-.416,1.6l-.022,5.046-3.782-.011Z" transform="translate(-67.678 -91.932)" fill="#fff"/><path d="M171.348,161.788l-7.6-.022a2.5,2.5,0,0,0,.49,1.358,1.816,1.816,0,0,0,1.453.652,2.184,2.184,0,0,0,1.062-.281,2.159,2.159,0,0,0,.655-.615l3.726.352a5.4,5.4,0,0,1-2.069,2.121,7.518,7.518,0,0,1-3.478.635,7.033,7.033,0,0,1-3.075-.555,4.691,4.691,0,0,1-1.873-1.774,5.267,5.267,0,0,1-.719-2.821,4.918,4.918,0,0,1,1.493-3.738,5.664,5.664,0,0,1,4.112-1.427,7.293,7.293,0,0,1,3.339.662,4.283,4.283,0,0,1,1.851,1.862,6.818,6.818,0,0,1,.633,3.164ZM167.5,159.94a2.467,2.467,0,0,0-.577-1.546,1.721,1.721,0,0,0-1.255-.474,1.751,1.751,0,0,0-1.452.715,2.461,2.461,0,0,0-.438,1.3Z" transform="translate(-94.513 -92.003)" fill="#fff"/><path d="M157.786,194.572h.7a4.22,4.22,0,0,1,.8.049.906.906,0,0,1,.514.31.892.892,0,0,1,.2.584.936.936,0,0,1-.137.51.857.857,0,0,1-.387.332,1.86,1.86,0,0,1-.7.113l1.273,1.644h-.437l-1.273-1.644h-.2v1.644h-.353Zm.353.346v1.2l.61.007a1.511,1.511,0,0,0,.525-.069.571.571,0,0,0,.265-.215.612.612,0,0,0,.094-.332.579.579,0,0,0-.1-.323.541.541,0,0,0-.253-.21,1.606,1.606,0,0,0-.521-.063Z" transform="translate(-93.252 -114.993)" fill="#140b0a"/><path d="M157.28,194.071v3.951h.765v-1.508l1.169,1.508h.956s-.985-1.274-1.3-1.675a1.491,1.491,0,0,0,.387-.1,1.067,1.067,0,0,0,.481-.413,1.138,1.138,0,0,0,.166-.616,1.078,1.078,0,0,0-.245-.715,1.129,1.129,0,0,0-.625-.38,4.613,4.613,0,0,0-.845-.052Zm.912.411a3.982,3.982,0,0,1,.753.043.7.7,0,0,1,.4.243.677.677,0,0,1,.15.451.742.742,0,0,1-.106.4.618.618,0,0,1-.3.252,1.614,1.614,0,0,1-.616.1l-.334,0,0,0h-.447v-1.485Z" transform="translate(-92.953 -114.697)" fill="#140b0a"/><path d="M158.146,194.92v1.611l.813.008a1.7,1.7,0,0,0,.6-.082.753.753,0,0,0,.36-.3.8.8,0,0,0,.13-.444.772.772,0,0,0-.13-.435.75.75,0,0,0-.348-.287,1.713,1.713,0,0,0-.6-.076Zm.831.41a1.256,1.256,0,0,1,.445.05.314.314,0,0,1,.156.13.366.366,0,0,1,.062.209.4.4,0,0,1-.062.221.345.345,0,0,1-.169.136,1.307,1.307,0,0,1-.447.052l-.4,0v-.795Z" transform="translate(-93.465 -115.199)" fill="#140b0a"/><path d="M152.452,194.112a3.314,3.314,0,1,0,3.313-3.314,3.317,3.317,0,0,0-3.313,3.314m.615,0a2.7,2.7,0,1,1,2.7,2.7,2.7,2.7,0,0,1-2.7-2.7" transform="translate(-90.1 -112.762)" fill="#140b0a"/></g></svg>