<svg xmlns="http://www.w3.org/2000/svg" xmlns:xlink="http://www.w3.org/1999/xlink" width="171.693" height="85.847" viewBox="0 0 171.693 85.847"><defs><clipPath id="a"><rect width="171.693" height="85.847" fill="none"/></clipPath></defs><rect width="171.693" height="85.847" fill="#004b9e"/><g clip-path="url(#a)"><path d="M22.9,62.754a1.579,1.579,0,0,1-1.616-1.319,2.318,2.318,0,0,1,1.01-2.2l10.277-7.215h-9.03l.687-3.939H38.874A1.574,1.574,0,0,1,40.5,49.4a2.294,2.294,0,0,1-1.018,2.2L29.2,58.806h9.413l-.7,3.948Z" transform="translate(-5.163 -11.679)" fill="#fff"/><path d="M152.226,48.085H135.533l-.692,3.939h6.118l-1.884,10.73h4.454l1.884-10.73h6.116Z" transform="translate(-32.75 -11.679)" fill="#fff"/><path d="M113.506,53.343a.236.236,0,0,1-.235-.283l.133-.752a.355.355,0,0,1,.33-.283h11.138l.69-3.939h-13.9a2.444,2.444,0,0,0-2.3,1.972l-.891,5.1a1.6,1.6,0,0,0,1.607,1.973h9.36a.232.232,0,0,1,.235.282l-.2,1.118a.349.349,0,0,1-.326.28H107.829l-.7,3.942h14.085a2.45,2.45,0,0,0,2.305-1.972l.957-5.468a1.607,1.607,0,0,0-1.616-1.972Z" transform="translate(-26.02 -11.679)" fill="#fff"/><path d="M64.852,48.085H50.887l-.693,3.939h11.2a.229.229,0,0,1,.23.283l-.131.752a.355.355,0,0,1-.324.283H51.51A2.446,2.446,0,0,0,49.2,55.315l-.959,5.467a1.6,1.6,0,0,0,1.613,1.972H62.283a2.449,2.449,0,0,0,2.3-1.972l1.879-10.725a1.6,1.6,0,0,0-1.613-1.972M60.73,57.414l-.2,1.119a.348.348,0,0,1-.332.273h-6.89a.221.221,0,0,1-.226-.273l.2-1.119a.339.339,0,0,1,.329-.282H60.5a.234.234,0,0,1,.235.282" transform="translate(-11.709 -11.679)" fill="#fff"/><path d="M95.626,62.754H91.184l1.683-9.625L87.1,61.552a2.4,2.4,0,0,1-1.931,1.068h-.743a1.556,1.556,0,0,1-1.55-1.068l-2.825-8.414-1.691,9.616H73.9l2.232-12.7a2.446,2.446,0,0,1,2.311-1.967h3.121a1.575,1.575,0,0,1,1.554,1.068l2.65,7.9,5.411-7.9a2.43,2.43,0,0,1,1.94-1.068h3.114a1.6,1.6,0,0,1,1.62,1.967Z" transform="translate(-17.95 -11.679)" fill="#fff"/><path d="M167.078,66.31c0-10.442,2.408-14.157,6.115-14.157-3.708,0-6.115-3.723-6.115-14.16l14.83,14.16Z" transform="translate(-40.58 -9.228)" fill="#fff"/><path d="M185.929,66.31c0-10.442,2.4-14.157,6.113-14.157-3.709,0-6.113-3.723-6.113-14.16l14.826,14.16Z" transform="translate(-45.158 -9.228)" fill="#dc000c"/></g></svg>