<?xml version="1.0" encoding="utf-8"?>
<!-- Generator: Adobe Illustrator 26.0.2, SVG Export Plug-In . SVG Version: 6.00 Build 0)  -->
<svg version="1.1" id="レイヤー_1" xmlns="http://www.w3.org/2000/svg" xmlns:xlink="http://www.w3.org/1999/xlink" x="0px"
	 y="0px" viewBox="0 0 311 160" style="enable-background:new 0 0 311 160;" xml:space="preserve">
<style type="text/css">
	.st0{fill:#F2F1F0;}
	.st1{fill:#B99145;}
</style>
<g>
	<rect class="st0" width="311" height="160"/>
</g>
<g>
	<polygon points="17.7,104.5 36,86.2 36,75.9 7.6,104.3 7.6,119.7 17.7,109.6 	"/>
	<polygon class="st1" points="7.6,83.9 7.6,99.3 17.7,89.2 17.7,84.1 26,75.8 26,70.7 38.9,57.7 38.9,52.6 	"/>
	<polygon points="7.6,135 36,106.6 36,96.4 7.6,124.8 	"/>
	<polygon points="42.1,80.1 60.4,61.8 60.4,72.1 42.1,90.3 42.1,100.6 70.5,72.2 70.5,41.5 42.1,69.9 	"/>
	<polygon class="st1" points="42.1,49.5 42.1,64.8 52.1,54.7 52.1,49.6 60.4,41.4 60.4,36.3 76.7,20 76.7,14.9 	"/>
	<g>
		<g>
			<polygon points="184.2,93.5 190,93.5 196.6,87 184.2,87 184.2,79.3 194.2,79.3 200.7,72.7 176.9,72.7 176.9,72.7 176.9,79.3 
				176.9,102.4 176.9,109 176.9,109 191.3,109 198,102.4 184.2,102.4 			"/>
			<polygon points="99.4,93.5 105.2,93.5 111.8,87 99.4,87 99.4,79.3 109.4,79.3 115.9,72.7 92.1,72.7 92.1,72.7 92.1,79.3 
				92.1,102.4 92.1,109 92.1,109 106.8,109 113.5,102.4 99.4,102.4 			"/>
			<polygon points="286.8,93.5 292.6,93.5 299.2,87 286.8,87 286.8,79.3 296.8,79.3 303.4,72.7 279.6,72.7 279.6,72.7 279.6,79.3 
				279.6,102.4 279.6,109 279.6,109 295.5,109 302.1,102.4 286.8,102.4 			"/>
			<path d="M223.6,109l-6.6-36.3h-3.3h-4h-3.3L200,109h7.3l1.4-7.9h0l5.3-5.4l2.4,13.2H223.6z M209.8,94.6l2-10.9l2,10.9H209.8z"/>
			<polygon points="174.3,102.4 159.7,102.4 159.7,72.7 152.4,72.7 152.4,109 167.7,109 			"/>
			<polygon points="133.8,109 138.1,104.7 138.1,102.4 138.1,92.4 123.9,85.2 123.9,80.7 125.4,79.3 130,79.3 131.4,80.7 131.4,87 
				138.7,82.6 138.7,79.3 138.7,77 134.4,72.7 120.9,72.7 116.7,77 116.7,79.3 116.7,89.3 130.8,96.5 130.8,101 129.4,102.4 
				124.7,102.4 123.3,101 123.3,95.2 116,99.2 116,102.4 116,104.7 120.3,109 			"/>
			<polygon points="248.1,84.5 248.1,77 243.8,72.7 230.3,72.7 226.1,77 226.1,104.7 230.3,109 243.8,109 248.1,104.7 248.1,90.7 
				236.5,90.7 240.8,95.1 240.8,101 239.4,102.4 234.8,102.4 233.3,101 233.3,80.7 234.8,79.3 239.4,79.3 240.8,80.7 240.8,84.5 			
				"/>
			<polygon points="267.7,72.7 267.7,101 266.2,102.4 261.6,102.4 260.2,101 260.2,72.7 252.9,72.7 252.9,104.7 257.2,109 
				270.7,109 274.9,104.7 274.9,72.7 			"/>
		</g>
		<g>
			<path d="M100.3,119.8l0.7,3.2l-1.3-0.4h-4.3v3.3h3l1.3-0.4v3.5l-1.2-0.4l-3.1,0v3.8l5.1,0v0l1.3-0.4l-0.6,3.2h-9.3l0.4-1.1v-13
				l-0.4-1.3H100.3z"/>
			<path d="M113.3,119.8l-0.7,1.2l-3,6.5l3,6.5l0.7,1.2H109l0.4-1l-1.5-3.4l-1.6,3.4l0.4,1h-4.2l0.8-1.1l3-6.6l-3-6.5l-0.7-1.2h4.2
				l-0.4,1l1.5,3.4l1.6-3.4l-0.4-1H113.3z"/>
			<path d="M123.4,119.7l0.7,3.2l-1.3-0.4h-2.3V134l0.6,1.1H117l0.4-1.1v-11.5h-2.3l-1.3,0.4l0.7-3.2H123.4z"/>
			<path d="M132.6,119.8l2,2l0,5.9l-1.8,1.8l2,4.3l1.2,1.3h-4.7l0.3-1l-2-4.5h-1.2v4.3l0.6,1.2h-4.1l0.4-1.1v-13.1l-0.4-1.1H132.6z
				 M128.5,126.9h2.4l0.7-0.7v-3l-0.7-0.7h-2.4V126.9z"/>
			<path d="M145.1,119.8l0.7,3.2l-1.3-0.4h-4.3v3.3h3l1.3-0.4v3.5l-1.2-0.4l-3.1,0v3.8l5.1,0v0l1.3-0.4l-0.6,3.2h-9.3l0.4-1.1v-13
				l-0.4-1.3H145.1z"/>
			<path d="M160.2,119.8l-0.4,1.3v13l0.6,1.1h-3.8l0.4-1.2v0v-8.1l-2,5.4h-2.1l-2.1-5.4v8.1l0.6,1.1h-3.8l0.4-1.2v-13l-0.4-1.3h4.1
				l2.2,6.1l2.3-6.1H160.2z"/>
			<path d="M170,119.8l0.7,3.2l-1.3-0.4h-4.3v3.3h3l1.3-0.4v3.5l-1.2-0.4l-3.1,0v3.8l5.1,0v0l1.3-0.4l-0.6,3.2h-9.3l0.4-1.1v-13
				l-0.4-1.3H170z"/>
			<path d="M184.1,119.8l2,2.1v2.2l-3.1,1.4v-2.2l-0.5-0.5l-2,0l-0.6,0.6v1.9l5.9,3.2v4.8l-2.1,2.1h-5.2l-2-2v-2.2l3.1-1.1v2
				l0.5,0.5h2l0.6-0.6v-1.8l-5.9-3.2v-4.9l2-2H184.1z"/>
			<path d="M195.8,119.8l0.7,3.2l-1.3-0.4h-4.3v3.3h3l1.3-0.4v3.5l-1.2-0.4l-3.1,0v3.8l5.1,0v0l1.3-0.4l-0.6,3.2h-9.3l0.4-1.1v-13
				l-0.4-1.3H195.8z"/>
			<path d="M206,119.8l2,2l0,5.9l-2,2h-4.2v4.3l0.6,1.1h-4.1l0.4-1.1v-13.1l-0.4-1.1H206z M201.8,126.9h2.4l0.7-0.7v-3l-0.6-0.7
				h-2.4V126.9z"/>
			<path d="M215.9,119.7l-0.5,1.2l2.5,13.1l0.6,1.1h-4.4l0.4-1.1l-0.4-2.2h-2.6l-0.4,2.2l0.4,1.1h-4.4l0.6-1l2.5-13.1l-0.4-1.3
				H215.9z M212.2,129.1h1.6l-0.8-5.2L212.2,129.1z"/>
			<path d="M229.8,135.1h-4.1l0.4-1.1v-5.7l-0.7-0.7l-2.2,1.1l0,5.1l0.5,1.1h-4.1l0.4-1.1l0-13.1l-0.4-1.3h4l-0.4,1.3l0,4.8l2.2-1.1
				l0.6-0.7v-3l-0.4-1.2h4l-0.4,1.2v3.9l-1.3,1.3l1.3,1.3v6.6v0L229.8,135.1z"/>
			<path d="M240.5,119.7l0.7,3.2l-1.3-0.4h-2.3V134l0.6,1.1H234l0.4-1.1v-11.5h-2.3l-1.3,0.4l0.7-3.2H240.5z"/>
			<path d="M248.4,119.7l-0.5,1.2l2.5,13.1l0.6,1.1h-4.4l0.4-1.1l-0.4-2.2h-2.6l-0.4,2.2l0.4,1.1h-4.4l0.6-1l2.5-13.1l-0.4-1.3
				H248.4z M244.7,129.1h1.6l-0.8-5.2L244.7,129.1z"/>
			<path d="M262,135.1H258l0.4-1.1v-5.7l-0.7-0.7l-2.2,1.1l0,5.1l0.5,1.1h-4.1l0.4-1.1l0-13.1l-0.4-1.3h4l-0.4,1.3l0,4.8l2.2-1.1
				l0.6-0.7v-3l-0.4-1.2h4l-0.4,1.2v3.9l-1.3,1.3l1.3,1.3v6.6v0L262,135.1z"/>
			<path d="M271.1,119.8l2,2l0,5.9l-1.8,1.8l2,4.3l1.2,1.3h-4.7l0.3-1l-2-4.5H267v4.3l0.6,1.2h-4.1l0.4-1.1v-13.1l-0.4-1.1H271.1z
				 M267,126.9h2.4l0.7-0.7v-3l-0.7-0.7H267V126.9z"/>
			<path d="M282.4,119.7L282,121l2.5,13.1l0.6,1.1h-4.4l0.4-1.1l-0.4-2.2h-2.6l-0.4,2.2l0.4,1.1H274l0.6-1l2.5-13.1l-0.4-1.3H282.4z
				 M278.8,129.1h1.6l-0.8-5.2L278.8,129.1z"/>
			<path d="M300.8,119.7L300,121l-3.1,13l0.5,1.1H293l0.5-1.2l-1.3-6.3l-1.3,6.3l0.5,1.1h-4.5l0.4-1.2l-3.1-12.9l-0.8-1.3h4.3
				l-0.5,1.2l1.8,7.9l1.4-7.8l-0.5-1.3h4.4l-0.5,1.2l1.4,7.8l1.8-7.9l-0.5-1.2H300.8z"/>
		</g>
	</g>
</g>
</svg>
